<svg width="861" height="400" viewBox="0 0 861 400" fill="none" xmlns="http://www.w3.org/2000/svg">
<g clip-path="url(#clip0_2_2)">
<path d="M206.69 175.276H206.687L206.69 175.277V175.276Z" fill="#BA865A"/>
<path d="M117.925 205.899L117.896 205.887V295.529L117.925 295.541L206.692 264.92L206.689 175.28L117.925 205.899Z" fill="#A26C45"/>
<path d="M117.925 205.899L117.896 205.887L135.811 257.671L206.692 224.754L206.689 175.28L117.925 205.899Z" fill="#DEAC7A"/>
<path d="M38.7873 172.173H38.7851L38.7837 261.814L117.896 295.529V205.887L38.7873 172.173Z" fill="#D09565"/>
<path d="M38.7873 172.173H38.7851L38.7837 234.076L90.2021 260.293L117.896 205.887L38.7873 172.173Z" fill="#DEAC7A"/>
<path d="M206.693 175.279L206.689 175.277V175.28L206.693 175.279Z" fill="#DEAC7A"/>
<path d="M206.686 175.276L129.689 143.771L38.7837 172.172L38.7873 172.173L117.896 205.887L117.925 205.899L206.689 175.28V175.277L206.686 175.276Z" fill="#DEAC7A"/>
<path d="M129.689 143.771L38.7837 172.172L38.7873 172.173L117.896 205.887L117.925 205.899L127.676 202.712L129.689 143.771Z" fill="#BA865A"/>
<path d="M129.689 143.771L38.7837 172.172L38.7873 172.173L117.896 205.887L117.925 205.899L127.676 202.712L129.689 143.771Z" fill="#BA865A"/>
<path d="M38.7872 172.173L11.7676 124.253L105.889 100.366L129.689 143.771L38.7872 172.173Z" fill="#D09565"/>
<path d="M38.7872 172.173L117.925 205.899L82.6492 249.661L5.08618 213.393L38.7872 172.173Z" fill="#DEAC7A"/>
<path d="M129.689 143.771L206.689 175.277L243.295 141.732L145.106 105.901L129.689 143.771Z" fill="#D09565"/>
<path d="M206.689 175.277L117.925 205.899L149.754 240.775L236.323 203.779L206.689 175.277Z" fill="#D09565"/>
<path opacity="0.52" d="M173.659 178.824C163.908 175.174 153.868 172.253 143.591 170.544C132.898 168.765 122.06 168.437 111.28 169.574C100.656 170.695 90.2085 173.132 80.011 176.283C74.1437 178.095 68.3561 180.146 62.6165 182.329L117.897 205.887L117.925 205.899L184.153 183.054C180.687 181.566 177.192 180.146 173.659 178.824Z" fill="#DEAC7A"/>
<path opacity="0.51" d="M85.4789 122.951C88.7912 121.922 92.0641 120.582 95.0444 118.741C98.1997 116.794 101.052 114.265 103.041 111.25C104.76 108.731 105.236 105.318 101.05 105.36C95.3306 105.792 89.6269 107.363 84.0106 108.575C72.1412 111.414 60.2696 114.242 48.5271 117.447C47.2583 117.833 45.9657 118.262 44.8647 118.853C42.487 120.014 41.4125 122.357 43.7121 123.949C44.9773 124.865 46.602 125.31 48.1262 125.653C51.0605 126.281 54.0774 126.663 57.1057 126.832C66.634 127.286 76.272 125.597 85.3971 122.975L85.4789 122.951Z" fill="#D09565"/>
<path opacity="0.51" d="M39.7685 124.877C40.6271 122.429 37.6246 120.973 35.6298 120.898C33.2923 120.81 30.1793 121.91 28.5898 123.655C28.0217 124.279 27.6014 125.152 27.8517 125.961C28.7397 128.82 33.7685 128.083 35.9454 127.601C37.4826 127.259 39.204 126.482 39.7685 124.877Z" fill="#D09565"/>
<path opacity="0.51" d="M162.954 131.611C171.793 135.081 181.23 137.67 190.759 138.117C193.789 138.234 196.829 138.139 199.809 137.789C201.359 137.591 203.018 137.301 204.364 136.508C206.803 135.14 205.952 132.707 203.694 131.326C202.653 130.634 201.407 130.085 200.18 129.581C188.79 125.284 177.235 121.35 165.685 117.405C160.207 115.669 154.676 113.567 149.022 112.599C144.859 112.162 145.013 115.605 146.489 118.275C148.186 121.463 150.789 124.25 153.747 126.486C156.543 128.6 159.676 130.242 162.877 131.578L162.954 131.611Z" fill="#D09565"/>
<path opacity="0.51" d="M211.755 140.874C213.878 141.559 218.815 142.767 219.967 140.004C220.292 139.223 219.955 138.315 219.448 137.639C218.029 135.752 215.033 134.364 212.697 134.232C210.704 134.119 207.578 135.285 208.204 137.802C208.615 139.454 210.256 140.39 211.755 140.874Z" fill="#D09565"/>
<mask id="mask0_2_2" style="mask-type:luminance" maskUnits="userSpaceOnUse" x="5" y="81" width="203" height="131">
<path d="M207.981 180.436L202.512 85.9092C192.378 71.3959 83.6286 92.1251 38.3759 108.372C-9.33711 125.502 3.82413 184.678 18.6831 191.064L40.0787 177.332L40.0823 177.334L119.191 211.046L119.22 211.058L207.983 180.439V180.436H207.981Z" fill="white"/>
</mask>
<g mask="url(#mask0_2_2)">
<path d="M165.257 203.738L86.0558 230.771C82.3009 232.053 78.221 230.04 76.9429 226.274L45.2982 133.043C44.02 129.277 46.0284 125.186 49.7826 123.904L128.984 96.8715C132.739 95.5898 136.819 97.603 138.097 101.368L169.742 194.599C171.02 198.366 169.012 202.457 165.257 203.738Z" fill="#C2CAD3"/>
<path d="M133.868 105.929L51.4264 134.065L82.2905 225.003L164.732 196.867L133.868 105.929Z" fill="#72787E"/>
<path d="M133.159 107.344L52.8475 134.753L82.9141 223.341L163.225 195.932L133.159 107.344Z" fill="#FFFDED"/>
<path d="M108.816 125.224L83.0102 134.032C79.8607 135.107 76.5383 133.742 75.6044 130.989L72.5137 121.883C71.5791 119.131 73.3808 116.016 76.5304 114.941L102.336 106.133C105.486 105.058 108.808 106.423 109.742 109.176L112.833 118.282C113.768 121.035 111.966 124.15 108.816 125.224ZM77.2376 117.025C75.2343 117.709 74.0472 119.57 74.5916 121.174L77.6823 130.28C78.2267 131.884 80.2997 132.633 82.3037 131.949L108.11 123.141C110.113 122.457 111.3 120.595 110.756 118.991L107.665 109.885C107.121 108.281 105.048 107.532 103.044 108.217L77.2376 117.025Z" fill="#4D7DBF"/>
<path d="M101.406 102.654L75.1544 111.613L78.8669 122.552L105.118 113.593L101.406 102.654Z" fill="#355162"/>
<path d="M135.132 134.617L78.2827 154.021C77.9549 154.133 77.5984 153.957 77.4872 153.628C77.3753 153.299 77.5511 152.942 77.8788 152.83L134.728 133.427C135.056 133.315 135.412 133.491 135.523 133.819C135.635 134.147 135.459 134.505 135.132 134.617Z" fill="#8DA1A3"/>
<path d="M140.706 151.039L83.8581 170.443C83.5303 170.555 83.1738 170.379 83.0627 170.05C82.9508 169.722 83.1265 169.364 83.4543 169.253L140.302 149.849C140.63 149.737 140.987 149.913 141.098 150.242C141.209 150.57 141.034 150.928 140.706 151.039Z" fill="#8DA1A3"/>
<path d="M146.28 167.462L89.4312 186.866C89.1034 186.977 88.7469 186.802 88.6358 186.473C88.5239 186.145 88.6996 185.787 89.0274 185.676L145.876 166.272C146.204 166.16 146.561 166.336 146.672 166.665C146.784 166.993 146.608 167.35 146.28 167.462Z" fill="#8DA1A3"/>
<path d="M151.855 183.885L95.0059 203.288C94.6781 203.4 94.3217 203.224 94.2105 202.895C94.0986 202.567 94.2743 202.209 94.6021 202.098L151.451 182.694C151.779 182.582 152.135 182.758 152.246 183.087C152.358 183.416 152.183 183.772 151.855 183.885Z" fill="#8DA1A3"/>
<path d="M70.6389 149.522L63.0961 152.096L65.6632 159.66L73.206 157.086L70.6389 149.522Z" fill="#C9E6D5"/>
<path d="M76.1657 165.805L68.6229 168.379L71.19 175.943L78.7328 173.369L76.1657 165.805Z" fill="#C9E6D5"/>
<path d="M81.6922 182.088L74.1494 184.663L76.7165 192.226L84.2593 189.652L81.6922 182.088Z" fill="#C9E6D5"/>
<path d="M87.2188 198.372L79.676 200.946L82.2431 208.51L89.7859 205.935L87.2188 198.372Z" fill="#C9E6D5"/>
</g>
<mask id="mask1_2_2" style="mask-type:luminance" maskUnits="userSpaceOnUse" x="5" y="81" width="203" height="131">
<path d="M207.981 180.436L202.512 85.9092C192.378 71.3959 83.6286 92.1251 38.3759 108.372C-9.33711 125.502 3.82413 184.678 18.6831 191.064L40.0787 177.332L40.0823 177.334L119.191 211.046L119.22 211.058L207.983 180.439V180.436H207.981Z" fill="white"/>
</mask>
<g mask="url(#mask1_2_2)">
<path d="M161.126 126.715L160.624 116.979L151.634 111.891L152.431 127.334L161.126 126.715Z" fill="#396925"/>
<path d="M155.598 137.998L155.6 138.026L157.257 137.926L158.915 137.854L158.914 137.826L176.08 136.796L175.728 131.626C175.728 131.626 164.619 131.114 162.312 126.046L161.464 122.826L158.148 122.998L154.832 123.17L151.516 123.342L151.004 126.632C149.23 131.912 138.234 133.571 138.234 133.571L138.416 138.749L155.598 137.998Z" fill="#B9D542"/>
<path d="M142.853 235.078L181.833 233.055L176.736 134.319L137.756 136.343L142.853 235.078Z" fill="#7CC24F"/>
<path d="M142.853 235.078L157.003 234.343L151.906 135.607L137.756 136.342L142.853 235.078Z" fill="#7CC24F"/>
<path opacity="0.53" d="M175.148 224.068C175.148 224.068 178.76 226.208 178.752 220.622C178.744 215.036 176.843 151.044 173.363 154.173C169.882 157.303 173.151 217.963 175.148 224.068Z" fill="#B9D542"/>
<path opacity="0.53" d="M171.513 147.809C171.614 148.431 171.881 149.124 172.43 149.553C173.004 150.002 173.806 149.93 174.399 149.525C175.067 149.069 175.301 148.336 175.356 147.633C175.406 146.999 175.355 146.359 175.211 145.738C175.196 145.511 175.171 145.285 175.13 145.064C175.041 144.571 174.804 144.01 174.33 143.706C173.75 143.335 173.007 143.472 172.483 143.872C171.841 144.362 171.672 145.082 171.566 145.781C171.462 146.45 171.403 147.139 171.513 147.809Z" fill="#B9D542"/>
<path d="M157.782 143.214C163.398 142.922 168.23 147.292 168.521 152.923L171.595 212.513C171.885 218.145 167.528 222.99 161.912 223.282C156.296 223.573 151.464 219.203 151.173 213.572L148.099 153.983C147.808 148.351 152.165 143.505 157.782 143.214Z" fill="#B9D542"/>
</g>
<mask id="mask2_2_2" style="mask-type:luminance" maskUnits="userSpaceOnUse" x="5" y="81" width="203" height="131">
<path d="M207.981 180.436L202.512 85.9092C192.378 71.3959 83.6286 92.1251 38.3759 108.372C-9.33711 125.502 3.82413 184.678 18.6831 191.064L40.0787 177.332L40.0823 177.334L119.191 211.046L119.22 211.058L207.983 180.439V180.436H207.981Z" fill="white"/>
</mask>
<g mask="url(#mask2_2_2)">
<path d="M94.4243 137.172C91.6026 134.05 88.9939 131.252 87.4395 129.794C86.6728 129.074 86.2826 128.946 85.3838 129.165C84.5662 129.364 84.3338 130.548 84.3338 130.548C84.3338 130.548 83.1022 134.941 81.6354 140.28L94.4243 137.172Z" fill="#1F2F3D"/>
<path d="M81.1232 138.625C78.9169 146.66 76.2178 156.699 76.3871 157.121C76.6704 157.831 78.5497 161.179 82.1561 160.043C85.7619 158.907 89.067 160.093 93.7365 158.007C98.4066 155.921 102.163 156.478 105.021 154.745C108.185 152.827 106.687 149.757 106.687 149.757C106.687 149.757 99.9854 141.961 94.1217 135.466L81.1232 138.625Z" fill="#AFB7C7"/>
<path d="M82.1554 160.042C83.7965 159.525 85.3752 159.489 87.0486 159.407C87.1103 157.879 87.144 156.35 87.1576 154.822C87.1828 152.13 87.1584 149.438 87.1691 146.745C87.1799 144.026 87.2595 141.308 87.3391 138.59C87.3535 138.093 87.3735 137.597 87.3929 137.1L81.1225 138.624C78.9162 146.66 76.2171 156.698 76.3864 157.121C76.6697 157.831 78.5497 161.179 82.1554 160.042Z" fill="#AFB7C7"/>
<path d="M99.5359 252.929L129.837 245.563L106.676 149.753L76.3747 157.118L99.5359 252.929Z" fill="#485C7A"/>
<path d="M99.537 252.928L110.536 250.254L87.375 154.444L76.3758 157.118L99.537 252.928Z" fill="#2D3B52"/>
<path d="M122.831 237.706C122.831 237.706 126.091 239.298 125.001 233.839C123.911 228.38 110.006 166.091 107.872 169.631C105.738 173.171 120.076 232.016 122.831 237.706Z" fill="#485C7A"/>
<path d="M105.18 163.666C105.38 164.259 105.725 164.9 106.24 165.243C106.78 165.604 107.396 165.422 107.785 164.944C108.223 164.406 108.265 163.657 108.172 162.963C108.088 162.336 107.924 161.718 107.691 161.13C107.635 160.911 107.571 160.693 107.497 160.483C107.331 160.014 107.035 159.498 106.603 159.266C106.075 158.984 105.516 159.22 105.181 159.683C104.77 160.251 104.777 160.978 104.828 161.676C104.878 162.345 104.964 163.027 105.18 163.666Z" fill="#485C7A"/>
<path d="M87.5924 189.91C90.1903 189.278 92.8313 190.894 93.4618 193.499L106.07 245.663C106.7 248.268 105.089 250.917 102.491 251.549C99.8929 252.18 97.2511 250.565 96.6214 247.96L84.0132 195.796C83.3834 193.19 84.9944 190.541 87.5924 189.91Z" fill="#716D69"/>
<path d="M86.0481 190.18C88.646 189.548 91.2878 191.163 91.9175 193.769L104.473 245.715C105.103 248.321 103.493 250.969 100.894 251.6C98.2962 252.232 95.6545 250.617 95.0247 248.011L82.4689 196.065C81.8391 193.459 83.4494 190.811 86.0481 190.18Z" fill="#ACA49E"/>
</g>
<mask id="mask3_2_2" style="mask-type:luminance" maskUnits="userSpaceOnUse" x="5" y="81" width="203" height="131">
<path d="M207.981 180.436L202.512 85.9092C192.378 71.3959 83.6286 92.1251 38.3759 108.372C-9.33711 125.502 3.82413 184.678 18.6831 191.064L40.0787 177.332L40.0823 177.334L119.191 211.046L119.22 211.058L207.983 180.439V180.436H207.981Z" fill="white"/>
</mask>
<g mask="url(#mask3_2_2)">
<path d="M145.245 242.255L174.92 251.841L205.061 158.012L175.386 148.427L145.245 242.255Z" fill="#D51E20"/>
<path d="M145.246 242.255L161.401 247.473L191.542 153.644L175.387 148.426L145.246 242.255Z" fill="#F68921"/>
<path d="M154.143 245.13L166.334 249.068L196.475 155.239L184.284 151.301L154.143 245.13Z" fill="#008BCB"/>
<path d="M184.275 151.289L154.134 245.118L159.219 246.761L189.36 152.932L184.275 151.289Z" fill="#003F65"/>
<path d="M205.064 158.001C205.064 158.001 204.742 161.404 201.046 161.382C197.707 161.363 196.316 157.559 196.478 155.227C196.478 155.227 194.793 158.92 189.724 158.254C184.655 157.588 184.286 151.288 184.286 151.288C184.286 151.288 182.454 154.846 178.787 153.927C175.12 153.007 175.261 149.167 175.389 148.414C175.517 147.661 196.602 128.073 196.602 128.073C196.602 128.073 197.415 127.187 198.212 127.445C199.089 127.728 199.355 128.04 199.633 129.051C201.383 135.409 205.064 158.001 205.064 158.001Z" fill="#E9C290"/>
<path d="M191.83 135.259C192.716 135.956 193.681 136.558 194.693 137.053C195.705 137.548 196.779 137.94 197.887 138.152C198.886 138.344 199.941 138.383 200.93 138.114C201.139 138.057 201.342 137.983 201.538 137.896C200.832 134.202 200.15 130.924 199.635 129.052C199.356 128.041 199.091 127.729 198.214 127.445C197.416 127.188 196.603 128.073 196.603 128.073C196.603 128.073 193.868 130.614 190.362 133.901C190.807 134.398 191.309 134.848 191.83 135.259Z" fill="#3A4C5D"/>
<path d="M178.788 153.927C182.454 154.847 184.287 151.289 184.287 151.289C184.287 151.289 185.112 155.694 187.872 157.627C188.515 155.971 197.013 130.071 198.004 127.406C197.28 127.34 196.604 128.073 196.604 128.073C196.604 128.073 175.518 147.662 175.391 148.415C175.262 149.168 175.121 153.007 178.788 153.927Z" fill="#E9C290"/>
<path d="M173.031 241.46C173.031 241.46 174.981 244.525 176.895 239.298C178.809 234.072 199.388 173.67 195.725 175.571C192.062 177.473 173.644 235.164 173.031 241.46Z" fill="#EE3D4E"/>
<path d="M196.536 169.075C196.398 169.686 196.358 170.413 196.618 170.976C196.891 171.566 197.511 171.733 198.092 171.53C198.745 171.3 199.171 170.684 199.454 170.042C199.708 169.464 199.891 168.851 199.998 168.228C200.064 168.011 200.122 167.792 200.169 167.573C200.272 167.086 200.288 166.491 200.04 166.068C199.736 165.55 199.138 165.459 198.61 165.679C197.964 165.948 197.591 166.571 197.272 167.193C196.966 167.79 196.685 168.416 196.536 169.075Z" fill="#EE3D4E"/>
</g>
<mask id="mask4_2_2" style="mask-type:luminance" maskUnits="userSpaceOnUse" x="5" y="81" width="203" height="131">
<path d="M207.981 180.436L202.512 85.9092C192.378 71.3959 83.6286 92.1251 38.3759 108.372C-9.33711 125.502 3.82413 184.678 18.6831 191.064L40.0787 177.332L40.0823 177.334L119.191 211.046L119.22 211.058L207.983 180.439V180.436H207.981Z" fill="white"/>
</mask>
<g mask="url(#mask4_2_2)">
<path d="M118.683 250.668L127.871 196.411L127.932 196.326C130.399 196.624 133.655 196.011 136.062 196.631C135.002 203.69 130.471 229.267 128.518 237.932C126.228 248.098 121.48 253.723 119.633 252.958C117.785 252.194 118.683 250.668 118.683 250.668Z" fill="#989E9C"/>
<path d="M122.16 243.409C122.922 239.198 123.719 234.993 124.498 230.786C125.281 226.558 126.093 222.336 126.946 218.12C127.372 216.012 127.805 213.906 128.234 211.799C128.655 209.734 128.98 207.653 129.29 205.569C129.745 202.505 130.167 199.426 130.813 196.394C129.802 196.423 128.816 196.433 127.933 196.326L127.872 196.411L118.684 250.668C118.684 250.668 117.786 252.194 119.634 252.958C119.881 253.061 120.182 253.045 120.522 252.923C121.033 249.746 121.587 246.575 122.16 243.409Z" fill="#7A7F7E"/>
<path d="M143.964 164.938C144.113 164.381 144.242 163.826 144.352 163.271C144.501 162.632 144.584 162.276 144.584 162.276L144.536 162.253C145.905 153.716 142.88 145.761 136.399 142.716C128.051 138.795 117.132 144.505 112.009 155.47C106.887 166.435 109.502 178.502 117.85 182.424C120.072 183.468 122.347 184.695 124.014 186.544C125.561 188.26 126.06 190.595 126.257 192.834C126.323 193.595 125.786 200.427 126.417 200.639C130.148 201.897 135.9 202 135.9 202C137.601 196.183 142.159 172.675 143.964 164.938ZM117.402 158.323C121.126 150.351 128.658 146.009 134.226 148.624C139.793 151.239 141.288 159.822 137.564 167.794C133.84 175.766 126.308 180.108 120.74 177.493C115.172 174.879 113.678 166.296 117.402 158.323Z" fill="#EE2A25"/>
<path opacity="0.43" d="M141.795 175.028C140.537 176.396 139.312 177.795 138.107 179.21C136.331 181.298 134.593 183.419 132.836 185.522C131.114 187.584 129.341 189.601 127.655 191.691C127.186 192.274 126.719 192.86 126.255 193.446C126.199 195.322 125.871 200.455 126.416 200.639C130.147 201.897 135.899 202 135.899 202C137.1 197.897 139.721 184.992 141.795 175.028Z" fill="#AC121B"/>
<path opacity="0.88" d="M127.507 145.236C127.622 144.965 127.699 144.648 127.591 144.363C127.5 144.124 127.29 143.962 127.065 143.856C126.632 143.652 126.131 143.597 125.641 143.605C125.345 143.722 125.052 143.842 124.762 143.971C123.781 144.408 122.832 144.911 121.943 145.515C120.941 146.195 120.014 146.981 119.149 147.829C117.317 149.624 115.691 151.65 114.413 153.878C113.374 155.689 112.522 157.618 111.918 159.619C111.659 160.475 111.443 161.354 111.356 162.246C111.288 162.947 111.288 163.727 111.589 164.381C111.728 164.258 111.859 164.127 111.977 163.984C112.686 163.124 113.086 162.028 113.458 160.992C113.845 159.913 114.175 158.8 114.689 157.773C115.284 156.586 116.044 155.459 116.851 154.407C117.696 153.306 118.634 152.278 119.639 151.321C120.126 150.857 120.627 150.408 121.143 149.976C121.542 149.643 121.981 149.361 122.425 149.093C123.422 148.492 124.465 147.967 125.441 147.329C126.255 146.798 127.112 146.16 127.507 145.236Z" fill="#E96920"/>
<path opacity="0.88" d="M129.937 144.017C129.853 144.093 129.79 144.185 129.756 144.293C129.634 144.673 129.802 145.105 130.096 145.374C130.748 145.974 131.796 145.958 132.465 145.398C132.651 145.242 132.812 145.044 132.89 144.814C132.952 144.63 132.942 144.429 132.825 144.265C132.43 143.714 130.57 143.444 129.937 144.017Z" fill="#E96920"/>
<path d="M100.158 241.967L135.847 200.157L135.873 200.057C134.065 198.346 132.45 195.445 130.435 193.988C125.706 199.323 109.009 219.186 103.62 226.236C97.2984 234.508 96.0266 241.766 97.7954 242.7C99.5642 243.635 100.158 241.967 100.158 241.967Z" fill="#989E9C"/>
<path d="M103.496 234.641C106.233 231.358 108.945 228.053 111.67 224.76C114.409 221.45 117.124 218.121 119.808 214.766C121.15 213.089 122.486 211.407 123.826 209.727C125.139 208.082 126.525 206.499 127.923 204.927C129.979 202.614 132.068 200.318 133.977 197.88C134.602 198.677 135.225 199.444 135.873 200.057L135.847 200.157L100.158 241.967C100.158 241.967 99.5643 243.635 97.7955 242.701C97.5588 242.576 97.378 242.333 97.2546 241.994C99.362 239.566 101.436 237.109 103.496 234.641Z" fill="#7A7F7E"/>
<path d="M126.426 197.551C126.426 197.551 130.187 201.916 133.539 203.985C134.104 204.335 138.995 199.548 139.62 199.112C141.461 197.83 143.57 196.72 145.876 196.813C148.359 196.914 150.755 197.881 152.978 198.925C161.326 202.846 172.245 197.136 177.367 186.171C182.489 175.206 179.874 163.138 171.527 159.217C165.045 156.172 157.014 158.935 151.349 165.453L151.302 165.431C151.302 165.431 151.082 165.722 150.687 166.247C150.333 166.687 149.991 167.142 149.659 167.613C144.886 173.956 129.794 192.516 126.426 197.551ZM154.905 193.542C149.338 190.927 147.843 182.344 151.567 174.372C155.291 166.4 162.823 162.058 168.391 164.673C173.958 167.288 175.452 175.871 171.729 183.843C168.005 191.815 160.473 196.157 154.905 193.542Z" fill="#EE2A25"/>
<path opacity="0.54" d="M151.568 174.372C154.708 167.651 160.555 163.51 165.649 163.944C164.541 163.711 163.397 163.637 162.275 163.697C160.242 163.806 158.297 164.493 156.594 165.602C154.876 166.72 153.423 168.214 152.217 169.865C151.15 171.325 150.227 172.926 149.573 174.615C148.991 176.121 148.607 177.704 148.407 179.306C148.204 180.928 148.192 182.583 148.432 184.202C148.656 185.715 149.108 187.216 149.889 188.537C150.315 189.255 150.841 189.907 151.451 190.467C148.917 186.568 148.798 180.303 151.568 174.372Z" fill="#E96920"/>
<path opacity="0.43" d="M171.992 193.101C169.037 195.775 165.358 197.893 161.285 197.944C157.188 197.995 153.384 196.206 149.592 194.892C148.649 194.564 147.7 194.228 146.708 194.085C145.826 193.957 144.928 193.974 144.052 194.138C142.362 194.457 140.832 195.319 139.47 196.346C138.721 196.911 138.013 197.531 137.328 198.172C136.482 198.965 135.634 199.753 134.779 200.536C133.895 201.344 133.008 202.168 132.179 203.044C132.633 203.387 133.09 203.707 133.539 203.984C134.104 204.334 138.995 199.547 139.62 199.111C141.462 197.829 143.57 196.719 145.876 196.813C148.359 196.913 150.755 197.881 152.978 198.924C160.849 202.621 171.006 197.755 176.434 187.995C175.158 189.869 173.657 191.593 171.992 193.101Z" fill="#AC121B"/>
<path opacity="0.88" d="M175.288 167.68C175.422 167.418 175.615 167.156 175.903 167.057C176.145 166.974 176.403 167.033 176.628 167.138C177.061 167.341 177.424 167.692 177.732 168.075C177.832 168.377 177.927 168.681 178.014 168.986C178.307 170.021 178.529 171.075 178.635 172.146C178.755 173.354 178.747 174.572 178.651 175.781C178.448 178.341 177.936 180.89 177.048 183.301C176.325 185.261 175.392 187.152 174.246 188.899C173.755 189.647 173.22 190.375 172.593 191.013C172.099 191.515 171.502 192.014 170.808 192.2C170.813 192.014 170.83 191.83 170.864 191.647C171.068 190.551 171.652 189.541 172.208 188.591C172.787 187.602 173.428 186.636 173.886 185.581C174.415 184.363 174.791 183.057 175.081 181.761C175.384 180.406 175.572 179.025 175.661 177.639C175.705 176.967 175.729 176.292 175.729 175.618C175.729 175.098 175.664 174.579 175.584 174.065C175.407 172.912 175.142 171.773 175.006 170.613C174.893 169.645 174.833 168.576 175.288 167.68Z" fill="#E96920"/>
<path opacity="0.88" d="M174.666 165.028C174.662 165.142 174.632 165.248 174.572 165.344C174.358 165.681 173.92 165.827 173.525 165.774C172.649 165.656 171.989 164.838 171.991 163.965C171.992 163.721 172.04 163.47 172.166 163.263C172.267 163.097 172.428 162.976 172.628 162.961C173.303 162.914 174.701 164.174 174.666 165.028Z" fill="#E96920"/>
<path d="M136.226 196.13C135.597 197.475 134.001 198.055 132.659 197.425C131.318 196.795 130.74 195.194 131.368 193.849C131.996 192.504 133.593 191.924 134.934 192.554C136.276 193.184 136.854 194.785 136.226 196.13Z" fill="#5E6463"/>
<path d="M135.373 195.419C134.957 196.311 133.899 196.695 133.01 196.277C132.121 195.86 131.738 194.799 132.155 193.908C132.571 193.016 133.629 192.632 134.518 193.05C135.406 193.468 135.789 194.529 135.373 195.419Z" fill="#989E9C"/>
</g>
<mask id="mask5_2_2" style="mask-type:luminance" maskUnits="userSpaceOnUse" x="5" y="81" width="203" height="131">
<path d="M207.981 180.436L202.512 85.9092C192.378 71.3959 83.6286 92.1251 38.3759 108.372C-9.33711 125.502 3.82413 184.678 18.6831 191.064L40.0787 177.332L40.0823 177.334L119.191 211.046L119.22 211.058L207.983 180.439V180.436H207.981Z" fill="white"/>
</mask>
<g mask="url(#mask5_2_2)">
<path d="M74.8218 117.995L63.875 208.662L66.6593 209L77.6061 118.333L74.8218 117.995Z" fill="#CE6F1A"/>
<path d="M65.6638 122.119L57.3507 140.233C55.2397 145.725 49.4219 145.018 49.4219 145.018L44.8816 144.467C41.5778 140.732 36.9557 138.144 31.6242 137.496C20.041 136.09 9.51431 144.366 8.11204 155.982C6.70977 167.598 14.9627 178.153 26.5467 179.56C32.0546 180.229 37.3215 178.704 41.4839 175.676L45.6598 176.183C45.6598 176.183 51.4776 176.89 52.2207 182.727L55.9828 202.308C55.9828 202.308 56.3364 207.68 61.0798 208.988L65.1539 209.377L76.2522 117.448L72.2032 116.852C67.2863 116.986 65.6638 122.119 65.6638 122.119ZM18.1409 157.449C18.8632 151.466 24.2858 147.203 30.2521 147.927C36.2184 148.651 40.4696 154.089 39.7474 160.072C39.0251 166.055 33.6025 170.318 27.6362 169.594C21.6699 168.869 17.4187 163.432 18.1409 157.449Z" fill="#FBB216"/>
<path d="M73.9757 121.606L63.9102 204.982C63.8054 205.848 63.0207 206.465 62.1571 206.36C61.2935 206.255 60.6781 205.468 60.7828 204.602L70.8491 121.226C70.9538 120.36 71.7385 119.743 72.6021 119.848C73.465 119.953 74.0804 120.74 73.9757 121.606Z" fill="#CE6F1A"/>
<path d="M52.4689 178.389C52.4689 178.389 62.7639 162.17 55.7117 145.342C55.7117 145.342 62.5573 148.419 61.9648 161.574C61.3724 174.728 52.4689 178.389 52.4689 178.389Z" fill="#CE6F1A"/>
<path d="M13.4916 156.635C12.4465 165.292 18.5978 173.16 27.2309 174.208C35.864 175.256 43.7102 169.087 44.7553 160.43C45.8004 151.773 39.6491 143.905 31.016 142.857C22.3821 141.809 14.5366 147.977 13.4916 156.635ZM42.9621 160.213C42.0318 167.918 35.0492 173.408 27.3658 172.475C19.6823 171.542 14.2074 164.54 15.1377 156.835C16.068 149.13 23.0506 143.64 30.7341 144.573C38.4175 145.505 43.8924 152.507 42.9621 160.213Z" fill="#CE6F1A"/>
<path d="M8.75182 156.06C7.39474 167.3 15.3816 177.515 26.5904 178.876C37.7992 180.236 47.9859 172.227 49.343 160.988C50.7001 149.748 42.7132 139.532 31.5044 138.172C20.2956 136.81 10.1089 144.819 8.75182 156.06ZM48.1789 160.846C46.8906 171.518 37.2189 179.121 26.5775 177.829C15.936 176.537 8.35301 166.839 9.64124 156.168C10.9295 145.496 20.6012 137.893 31.2426 139.184C41.8841 140.476 49.4671 150.174 48.1789 160.846Z" fill="#CE6F1A"/>
<path d="M59.4745 206.939C59.4745 206.939 56.8063 206.366 56.3745 201.696C55.9427 197.027 52.9674 180.445 52.9674 180.445C52.9674 180.445 58.073 177.321 59.8339 173.043C59.8339 173.043 59.0176 179.807 56.7101 181.398C54.4027 182.99 58.0471 202.273 59.9945 202.634L59.4745 206.939Z" fill="#FBB216"/>
<path d="M70.1633 118.398C70.1633 118.398 67.4355 118.316 65.9056 122.747C64.3749 127.178 57.54 142.569 57.54 142.569C57.54 142.569 61.7547 146.824 62.4469 151.4C62.4469 151.4 63.2632 144.636 61.4011 142.539C59.5391 140.441 67.6672 122.587 69.644 122.702L70.1633 118.398Z" fill="#FBB216"/>
<path d="M10.6268 154.187C10.6268 154.187 8.03381 167.161 18.6789 174.068C29.3239 180.975 38.6987 174.44 38.6987 174.44C38.6987 174.44 28.4094 179.273 20.2174 173.693C12.0254 168.113 11.7923 158.446 12.6695 153.499C13.5468 148.552 11.6575 150.288 10.6268 154.187Z" fill="#FBB216"/>
<path d="M43.5145 174.743C43.5145 174.743 50.0855 168.242 50.3831 161.914C50.3831 161.914 50.9799 164.7 50.1335 168.622C49.2864 172.543 53.0162 174.118 53.0162 174.118L51.3278 177.282C51.3278 177.282 47.5951 174.959 43.5145 174.743Z" fill="#FBB216"/>
</g>
<path d="M233.9 272.14V305.32C233.9 311.153 232.337 315.377 229.21 317.99C226.13 320.603 222.047 321.91 216.96 321.91C213.927 321.91 211.313 321.467 209.12 320.58V311.62C211.593 312.88 213.927 313.51 216.12 313.51C218.453 313.51 220.273 312.903 221.58 311.69C222.933 310.43 223.61 308.19 223.61 304.97V272.14H233.9ZM258.29 314C262.723 314 264.94 310.383 264.94 303.15C264.94 295.917 262.723 292.3 258.29 292.3C253.857 292.3 251.64 295.917 251.64 303.15C251.64 310.383 253.857 314 258.29 314ZM270.61 289.43C273.503 292.79 274.95 297.363 274.95 303.15C274.95 308.937 273.503 313.51 270.61 316.87C267.717 320.23 263.61 321.91 258.29 321.91C252.97 321.91 248.863 320.23 245.97 316.87C243.077 313.51 241.63 308.937 241.63 303.15C241.63 297.363 243.077 292.79 245.97 289.43C248.863 286.07 252.97 284.39 258.29 284.39C263.61 284.39 267.717 286.07 270.61 289.43ZM294.387 321.98C288.88 321.98 285.287 319.88 283.607 315.68C282.767 313.627 282.347 310.383 282.347 305.95V285.3H292.217V303.85C292.217 307.07 292.473 309.38 292.987 310.78C293.687 312.787 295.157 313.79 297.397 313.79C299.73 313.79 301.457 312.997 302.577 311.41C303.743 309.777 304.327 307.093 304.327 303.36V285.3H314.197V321H305.937C305.47 319.88 305.237 318.27 305.237 316.17C304.35 317.85 302.95 319.25 301.037 320.37C299.17 321.443 296.953 321.98 294.387 321.98ZM363.251 321H354.431C353.077 317.64 351.724 313.79 350.371 309.45C349.017 305.11 348.107 301.773 347.641 299.44C347.174 301.82 346.264 305.18 344.911 309.52C343.604 313.813 342.274 317.64 340.921 321H332.101C330.094 316.94 328.041 311.62 325.941 305.04C323.841 298.413 322.067 291.833 320.621 285.3H330.911C332.777 296.827 334.691 305.25 336.651 310.57C339.031 304.037 341.247 295.613 343.301 285.3H351.981C354.034 295.613 356.251 304.037 358.631 310.57C360.591 305.25 362.504 296.827 364.371 285.3H374.661C371.207 300.653 367.404 312.553 363.251 321ZM413.85 327.93H406.36C399.967 319.763 396.77 310.173 396.77 299.16C396.77 288.1 399.967 278.487 406.36 270.32H413.85C408.904 280.493 406.43 290.107 406.43 299.16C406.43 308.167 408.904 317.757 413.85 327.93ZM437.732 321H428.982C426.696 316.333 424.339 310.687 421.912 304.06C419.486 297.387 417.642 291.133 416.382 285.3H426.672C427.979 293.56 430.219 302.077 433.392 310.85C436.472 302.31 438.689 293.793 440.042 285.3H450.332C449.026 291.18 447.159 297.457 444.732 304.13C442.306 310.803 439.972 316.427 437.732 321ZM473.497 306.02L467.197 307.49C465.471 307.91 464.607 308.82 464.607 310.22C464.607 311.107 465.074 311.993 466.007 312.88C466.941 313.72 468.294 314.14 470.067 314.14C474.781 314.14 479.751 313.02 484.977 310.78V318.69C481.151 320.837 476.181 321.91 470.067 321.91C464.654 321.91 460.524 320.23 457.677 316.87C454.831 313.51 453.407 308.937 453.407 303.15C453.407 297.503 455.017 292.977 458.237 289.57C461.504 286.117 465.751 284.39 470.977 284.39C475.644 284.39 479.167 285.417 481.547 287.47C483.974 289.477 485.187 292.067 485.187 295.24C485.187 298.32 484.277 300.653 482.457 302.24C480.637 303.827 477.651 305.087 473.497 306.02ZM470.907 292.16C468.527 292.16 466.661 293.047 465.307 294.82C463.954 296.547 463.277 298.903 463.277 301.89V302.59C463.791 302.077 464.771 301.633 466.217 301.26L470.557 300.14C473.731 299.347 475.317 297.923 475.317 295.87C475.317 294.703 474.921 293.793 474.127 293.14C473.381 292.487 472.307 292.16 470.907 292.16ZM493.313 321V285.3H501.573C502.04 286.42 502.273 287.937 502.273 289.85C503.067 288.403 504.233 287.167 505.773 286.14C507.36 285.067 509.203 284.53 511.303 284.53C512.143 284.53 513.03 284.647 513.963 284.88V293.84C512.843 293.513 511.443 293.35 509.763 293.35C505.377 293.35 503.183 295.73 503.183 300.49V321H493.313ZM523.964 327.93H516.474C521.42 317.757 523.894 308.167 523.894 299.16C523.894 290.107 521.42 280.493 516.474 270.32H523.964C530.357 278.487 533.554 288.1 533.554 299.16C533.554 310.173 530.357 319.763 523.964 327.93ZM542.806 321V270.32H552.676V289.71C553.562 288.17 554.869 286.91 556.596 285.93C558.322 284.903 560.329 284.39 562.616 284.39C566.489 284.39 569.406 285.347 571.366 287.26C573.372 289.127 574.376 291.53 574.376 294.47C574.376 299.417 571.809 302.963 566.676 305.11C567.982 306.277 569.779 308.54 572.066 311.9C574.352 315.26 576.196 318.293 577.596 321H566.116C565.182 319.087 563.759 316.707 561.846 313.86C559.979 310.967 558.392 308.82 557.086 307.42L555.686 307.77C554.472 308.05 553.656 308.82 553.236 310.08C552.862 311.293 552.676 312.973 552.676 315.12V321H542.806ZM564.506 295.59C564.506 293.35 563.269 292.23 560.796 292.23C558.322 292.23 556.339 293.117 554.846 294.89C553.399 296.663 552.676 299.043 552.676 302.03V302.66C553.282 302.053 554.286 301.563 555.686 301.19L559.606 300.14C562.872 299.253 564.506 297.737 564.506 295.59ZM597.831 314C602.264 314 604.481 310.383 604.481 303.15C604.481 295.917 602.264 292.3 597.831 292.3C593.398 292.3 591.181 295.917 591.181 303.15C591.181 310.383 593.398 314 597.831 314ZM610.151 289.43C613.044 292.79 614.491 297.363 614.491 303.15C614.491 308.937 613.044 313.51 610.151 316.87C607.258 320.23 603.151 321.91 597.831 321.91C592.511 321.91 588.404 320.23 585.511 316.87C582.618 313.51 581.171 308.937 581.171 303.15C581.171 297.363 582.618 292.79 585.511 289.43C588.404 286.07 592.511 284.39 597.831 284.39C603.151 284.39 607.258 286.07 610.151 289.43ZM636.728 314C641.161 314 643.378 310.383 643.378 303.15C643.378 295.917 641.161 292.3 636.728 292.3C632.294 292.3 630.078 295.917 630.078 303.15C630.078 310.383 632.294 314 636.728 314ZM649.048 289.43C651.941 292.79 653.388 297.363 653.388 303.15C653.388 308.937 651.941 313.51 649.048 316.87C646.154 320.23 642.048 321.91 636.728 321.91C631.408 321.91 627.301 320.23 624.408 316.87C621.514 313.51 620.068 308.937 620.068 303.15C620.068 297.363 621.514 292.79 624.408 289.43C627.301 286.07 631.408 284.39 636.728 284.39C642.048 284.39 646.154 286.07 649.048 289.43ZM679.894 284.39C689.601 284.39 694.454 290.643 694.454 303.15C694.454 309.077 693.287 313.697 690.954 317.01C688.667 320.277 685.097 321.91 680.244 321.91C678.097 321.91 676.207 321.49 674.574 320.65C672.987 319.763 671.821 318.713 671.074 317.5V334.86H661.204V285.3H669.464C669.931 286.467 670.164 287.89 670.164 289.57C672.357 286.117 675.601 284.39 679.894 284.39ZM677.794 292.3C673.314 292.3 671.074 295.917 671.074 303.15C671.074 310.337 673.314 313.93 677.794 313.93C682.227 313.93 684.444 310.337 684.444 303.15C684.444 295.917 682.227 292.3 677.794 292.3ZM721.115 284.39C730.821 284.39 735.675 290.643 735.675 303.15C735.675 309.077 734.508 313.697 732.175 317.01C729.888 320.277 726.318 321.91 721.465 321.91C719.318 321.91 717.428 321.49 715.795 320.65C714.208 319.763 713.041 318.713 712.295 317.5V334.86H702.425V285.3H710.685C711.151 286.467 711.385 287.89 711.385 289.57C713.578 286.117 716.821 284.39 721.115 284.39ZM719.015 292.3C714.535 292.3 712.295 295.917 712.295 303.15C712.295 310.337 714.535 313.93 719.015 313.93C723.448 313.93 725.665 310.337 725.665 303.15C725.665 295.917 723.448 292.3 719.015 292.3ZM755.265 321.98C749.759 321.98 746.165 319.88 744.485 315.68C743.645 313.627 743.225 310.383 743.225 305.95V285.3H753.095V303.85C753.095 307.07 753.352 309.38 753.865 310.78C754.565 312.787 756.035 313.79 758.275 313.79C760.609 313.79 762.335 312.997 763.455 311.41C764.622 309.777 765.205 307.093 765.205 303.36V285.3H775.075V321H766.815C766.349 319.88 766.115 318.27 766.115 316.17C765.229 317.85 763.829 319.25 761.915 320.37C760.049 321.443 757.832 321.98 755.265 321.98ZM805.09 284.39C810.55 284.39 814.12 286.49 815.8 290.69C816.686 292.837 817.13 296.057 817.13 300.35V321H807.26V302.52C807.26 299.207 807.026 296.873 806.56 295.52C805.86 293.56 804.366 292.58 802.08 292.58C799.746 292.58 797.973 293.373 796.76 294.96C795.593 296.547 795.01 299.207 795.01 302.94V321H785.14V285.3H793.4C793.866 286.467 794.1 288.1 794.1 290.2C794.94 288.52 796.34 287.143 798.3 286.07C800.26 284.95 802.523 284.39 805.09 284.39ZM828.097 309.38V292.79H823.547V285.3H828.097V277.25C830.431 275.99 833.721 275.173 837.967 274.8V285.3H846.227V292.79H837.967V308.61C837.967 310.71 838.271 312.11 838.877 312.81C839.484 313.51 840.557 313.86 842.097 313.86C843.824 313.86 845.574 313.58 847.347 313.02V320.86C845.527 321.467 843.054 321.77 839.927 321.77C835.727 321.77 832.694 320.743 830.827 318.69C829.007 316.637 828.097 313.533 828.097 309.38Z" fill="#F5BA36"/>
<path d="M291.79 252.53C278.87 252.53 267.027 251.907 256.26 250.66V133.36C258.3 132.907 263.57 132.397 272.07 131.83C280.57 131.15 287.37 130.81 292.47 130.81C308.45 130.81 320.123 133.473 327.49 138.8C334.97 144.127 338.71 152.343 338.71 163.45C338.71 168.89 337.067 173.763 333.78 178.07C330.493 182.377 326.3 185.38 321.2 187.08C327.773 188.553 333.27 192.01 337.69 197.45C342.223 202.89 344.49 209.407 344.49 217C344.49 228.673 340.523 237.513 332.59 243.52C324.657 249.527 311.057 252.53 291.79 252.53ZM296.04 199.66H281.25V231.62C284.99 231.96 290.487 232.13 297.74 232.13C311.68 232.13 318.65 226.633 318.65 215.64C318.65 204.987 311.113 199.66 296.04 199.66ZM292.64 151.21C289.013 151.21 285.217 151.493 281.25 152.06V180.62H291.28C305.787 180.62 313.04 175.52 313.04 165.32C313.04 160.56 311.51 157.047 308.45 154.78C305.503 152.4 300.233 151.21 292.64 151.21ZM389.484 132.34V207.48C389.484 215.527 391.241 221.76 394.754 226.18C398.381 230.6 403.481 232.81 410.054 232.81C416.628 232.81 421.671 230.6 425.184 226.18C428.811 221.76 430.624 215.527 430.624 207.48V132.34H455.614V208.5C455.614 222.78 451.534 233.83 443.374 241.65C435.214 249.357 424.108 253.21 410.054 253.21C396.001 253.21 384.894 249.357 376.734 241.65C368.574 233.83 364.494 222.78 364.494 208.5V132.34H389.484ZM506.355 251V235.02C506.355 226.973 505.845 220.457 504.825 215.47C503.805 210.37 501.992 205.327 499.385 200.34C494.965 191.953 489.639 180.96 483.405 167.36C477.285 153.76 472.752 142.087 469.805 132.34H496.665C501.425 149.453 506.865 164.47 512.985 177.39C516.385 184.643 518.369 189.233 518.935 191.16C519.729 188.553 521.655 183.963 524.715 177.39C530.835 164.47 536.275 149.453 541.035 132.34H567.895C564.949 142.087 560.359 153.76 554.125 167.36C548.005 180.96 542.735 191.953 538.315 200.34C533.669 209.52 531.345 221.08 531.345 235.02V251H506.355ZM663.405 251H575.855V232.64C587.075 220.173 598.068 206.63 608.835 192.01C619.715 177.39 628.101 164.47 633.995 153.25H578.065V132.34H663.235V139.14C663.235 144.353 661.761 150.36 658.815 157.16C654.848 166.113 648.218 177.163 638.925 190.31C629.745 203.457 619.488 216.717 608.155 230.09H663.405V251Z" fill="white"/>
<path d="M686.723 69.3646C701.235 65.1487 715.677 66.7436 726.235 72.6438L735.37 70.1415L740.78 89.0156C740.997 89.61 741.197 90.2154 741.375 90.8299C741.569 91.4978 741.734 92.1677 741.876 92.8405L741.891 92.8914L741.887 92.8923C745.764 111.36 730.49 131.334 706.715 138.24C682.346 145.319 658.17 136.019 652.271 117.448L652.259 117.446L645.659 94.7077L655.904 91.9025C661.873 81.8728 672.852 73.3944 686.723 69.3646Z" fill="white"/>
<path d="M652.95 99.587C655.583 101.907 658.283 104.136 661.182 106.116C662.636 107.109 664.124 108.051 665.64 108.948C667.125 109.828 668.649 110.633 670.155 111.477C672.185 112.615 674.212 113.87 676.395 114.698C676.432 115.043 676.473 115.388 676.52 115.732C676.695 117.026 678.173 118.651 678.444 119.928C679.02 122.635 678.487 124.971 679.295 127.616C680.133 130.367 681.064 133.088 681.999 135.808C682.498 137.263 682.997 138.717 683.485 140.177C668.479 138.239 656.239 129.943 652.272 117.449L652.26 117.447L645.66 94.7087L647.403 94.2307C649.171 96.0976 651.02 97.8873 652.95 99.587Z" fill="#EBEBEC"/>
<path d="M686.723 69.3646C701.235 65.1487 715.677 66.7436 726.235 72.6438L735.37 70.1415L740.78 89.0156C740.997 89.61 741.197 90.2154 741.375 90.8299C741.569 91.4978 741.734 92.1677 741.876 92.8405L741.891 92.8915L741.887 92.8924C742.865 97.5492 742.623 102.302 741.336 106.915C741.236 105.988 741.115 105.061 740.966 104.136C740.097 98.7398 738.359 93.5791 736.355 88.5098C735.225 85.652 733.208 80.9242 729.341 81.7617C727.029 82.2626 725.334 84.3198 723.993 86.1275C722.447 88.2134 721.193 90.5175 719.564 92.5404C718.583 93.7587 717.389 94.8382 716.243 95.8991C714.973 97.0766 713.655 98.2009 712.295 99.2728C709.653 101.355 706.856 103.236 703.947 104.923C697.733 108.527 691.015 111.209 684.136 113.239C680.908 114.191 677.626 115.061 674.318 115.689C672.187 116.093 670.023 116.33 667.936 116.946C666.053 117.502 663.998 118.415 663.051 120.253C661.994 122.303 662.607 124.81 663.379 126.846C664.282 129.23 665.589 131.474 667.055 133.552C667.653 134.399 668.326 135.19 669.054 135.93C660.961 131.952 654.857 125.591 652.271 117.446L652.258 117.444L645.659 94.7052L655.904 91.9001C661.873 81.8728 672.852 73.3944 686.723 69.3646Z" fill="white"/>
<path d="M729.91 91.5841C730.23 95.0884 728.46 98.2924 726.703 101.178C724.925 104.098 722.831 107.045 722.171 110.469C721.814 112.328 722.004 114.281 722.212 116.149C722.46 118.389 722.874 120.653 723.685 122.764C724.277 124.306 725.124 126.067 726.716 126.774C727.061 126.928 727.418 127.027 727.781 127.084C722.051 131.952 714.885 135.869 706.714 138.242C706.667 138.256 706.621 138.267 706.574 138.281C706.829 138.115 707.081 137.942 707.324 137.761C708.758 136.694 710.014 135.388 711.008 133.901C711.971 132.461 712.69 130.834 713.005 129.124C713.317 127.438 713.223 125.684 712.662 124.058C712.36 123.183 711.934 122.355 711.408 121.596C710.921 120.892 710.359 120.274 709.612 119.843C708.173 119.012 706.428 118.944 704.813 119.035C703.119 119.128 701.445 119.403 699.749 119.466C697.697 119.543 695.638 119.518 693.593 119.329C693.413 119.312 693.233 119.292 693.053 119.273C691.239 118.872 689.456 118.337 687.728 117.629C688.018 117.513 688.309 117.396 688.6 117.284C691.81 116.044 695.091 115.002 698.349 113.893C701.542 112.807 704.716 111.644 707.752 110.165C710.921 108.621 713.848 106.694 716.615 104.513C719.287 102.407 721.832 100.077 723.99 97.4344C725.875 95.1274 727.341 92.3457 729.741 90.5119C729.816 90.8655 729.877 91.2227 729.91 91.5841Z" fill="white"/>
<path d="M716.784 129.769C717.291 128.371 717.188 126.762 716.938 125.321C716.682 123.847 716.195 122.417 715.647 121.028C715.193 119.877 714.57 118.773 713.67 117.911C712.856 117.13 711.853 116.609 710.773 116.321C711.301 116.103 711.811 115.845 712.305 115.56C714.495 114.297 716.451 112.513 718.909 111.781C718.615 112.556 718.092 113.226 717.683 113.939C717.216 114.753 716.954 115.628 716.954 116.571C716.956 117.441 717.137 118.305 717.347 119.146C717.551 119.958 717.767 120.768 717.98 121.576C718.319 122.867 718.661 124.167 719.196 125.393C719.683 126.508 720.345 127.58 721.336 128.312C721.723 128.598 722.142 128.811 722.581 128.97C722.507 129.024 722.432 129.078 722.359 129.134C720.013 130.885 717.558 132.828 714.619 133.393C715.305 132.163 716.298 131.11 716.784 129.769Z" fill="white"/>
<path d="M646.075 96.089C640.555 77.0698 656.072 55.8441 680.734 48.6802C705.396 41.5162 729.863 51.1267 735.383 70.1459C740.903 89.1651 725.386 110.391 700.724 117.555C676.062 124.719 651.595 115.108 646.075 96.089Z" fill="#C7C8CA"/>
<path d="M700.257 115.991C724.582 108.926 740.009 88.1813 735.131 69.3663C735.214 69.6232 735.294 69.8818 735.37 70.1429C740.89 89.163 725.372 110.389 700.71 117.553C676.047 124.717 651.578 115.106 646.059 96.0862C645.983 95.8252 645.913 95.5638 645.845 95.3021C651.798 113.805 675.932 123.057 700.257 115.991Z" fill="#A4A7A9"/>
<path opacity="0.42" d="M650.357 94.8434C645.358 77.62 659.41 58.3986 681.743 51.9111C704.077 45.4235 726.234 54.1266 731.232 71.35C736.231 88.5733 722.179 107.795 699.846 114.282C677.513 120.77 655.356 112.067 650.357 94.8434Z" fill="#A4A7A9"/>
<path d="M661.544 89.2661C658.099 77.3968 667.783 64.1505 683.173 59.6797C698.564 55.2089 713.833 61.2066 717.278 73.0759C720.723 84.9452 711.039 98.1915 695.649 102.662C680.258 107.133 664.989 101.135 661.544 89.2661Z" fill="#A4A7A9"/>
<path d="M666.341 87.7998C663.415 77.7183 671.7 66.4499 684.846 62.6311C697.992 58.8123 711.021 63.8892 713.947 73.9707C716.873 84.0522 708.588 95.3207 695.442 99.1395C682.296 102.958 669.267 97.8813 666.341 87.7998Z" fill="#4B4C45"/>
<path d="M669.56 86.8614C667.095 78.368 674.074 68.8748 685.149 65.6577C696.224 62.4407 707.2 66.718 709.665 75.2114C712.13 83.7048 705.151 93.198 694.076 96.4151C683.001 99.6321 672.025 95.3548 669.56 86.8614Z" fill="#8B8A7E"/>
<path d="M709.652 75.2103C710.433 77.9002 710.264 80.6897 709.321 83.3494C704.529 79.5952 697.008 78.2916 689.441 80.4904C681.873 82.6895 676.22 87.8186 674.183 93.5561C671.962 91.8161 670.326 89.5513 669.545 86.8614C667.081 78.3677 674.06 68.8741 685.135 65.6567C696.211 62.4393 707.188 66.7167 709.652 75.2103Z" fill="#8B8A7E"/>
<path opacity="0.44" d="M689.44 80.4907C697.009 78.2929 704.529 79.5953 709.319 83.3497C707.283 89.0872 701.63 94.2175 694.061 96.4154C686.494 98.6141 678.973 97.3108 674.182 93.5564C676.219 87.8174 681.873 82.6883 689.44 80.4907Z" fill="#A4A7A9"/>
<path d="M648.955 168.408L645.824 165.866L647.1 162.041L643.965 159.504L645.236 155.675L642.097 153.141L643.364 149.31L640.225 146.778L641.49 142.947L641.396 142.871C650.369 125.571 678.393 119.9 678.393 119.9L683.857 140.182C683.857 140.182 672.871 142.611 663.626 148.034C654.417 153.435 650.947 166.371 649.68 173.873L647.668 172.23L648.955 168.408Z" fill="white"/>
<path d="M641.492 142.948L640.227 146.779L643.366 149.311L642.099 153.142L645.238 155.676L643.967 159.505L647.102 162.042L645.826 165.867L648.957 168.408L647.673 172.232L649.685 173.875C649.666 173.985 649.648 174.093 649.63 174.202L647.338 172.33L648.622 168.508L645.491 165.966L646.766 162.141L643.631 159.606L644.902 155.777L641.763 153.243L643.03 149.412L639.891 146.88L640.815 144.085C641 143.676 641.193 143.272 641.399 142.876L641.492 142.948Z" fill="white"/>
<path d="M654.068 156.136C653.863 153.129 652.348 150.458 651.418 147.648C650.801 145.781 650.264 143.883 649.478 142.079C648.802 140.527 647.9 138.852 646.38 137.986C645.925 137.726 645.451 137.578 644.97 137.513C648.289 133.633 652.559 130.508 656.927 128.032C656.148 128.896 655.458 129.862 655.003 130.935C654.473 132.187 654.343 133.554 654.487 134.901C654.662 136.534 655.14 138.112 655.519 139.704C655.667 140.327 655.849 140.942 656.024 141.557C656.22 142.244 656.427 142.928 656.671 143.599C657.126 144.851 657.701 146.147 658.666 147.091C659.103 147.517 659.617 147.839 660.202 148.016C660.803 148.199 661.441 148.244 662.065 148.214C662.582 148.188 663.089 148.118 663.588 148.017C663.577 148.024 663.566 148.031 663.553 148.038C658.588 150.95 655.292 156.054 653.108 161.315C653.645 159.622 654.19 157.93 654.068 156.136Z" fill="white"/>
</g>
<defs>
<clipPath id="clip0_2_2">
<rect width="861" height="400" fill="white"/>
</clipPath>
</defs>
</svg>
