<svg width="752" height="400" viewBox="0 0 752 400" fill="none" xmlns="http://www.w3.org/2000/svg">
<g clip-path="url(#clip0_2_2)">
<rect width="752" height="400" fill="#00A9A3"/>
<path d="M206.69 175.276H206.687L206.69 175.277V175.276Z" fill="#BA865A"/>
<path d="M117.925 205.899L117.896 205.887V295.529L117.925 295.541L206.692 264.92L206.689 175.28L117.925 205.899Z" fill="#A26C45"/>
<path d="M117.925 205.899L117.896 205.887L135.811 257.671L206.692 224.754L206.689 175.28L117.925 205.899Z" fill="#DEAC7A"/>
<path d="M38.7873 172.173H38.7851L38.7837 261.814L117.896 295.529V205.887L38.7873 172.173Z" fill="#D09565"/>
<path d="M38.7873 172.173H38.7851L38.7837 234.076L90.2021 260.293L117.896 205.887L38.7873 172.173Z" fill="#DEAC7A"/>
<path d="M206.693 175.279L206.689 175.277V175.28L206.693 175.279Z" fill="#DEAC7A"/>
<path d="M206.686 175.276L129.689 143.771L38.7837 172.172L38.7873 172.173L117.896 205.887L117.925 205.899L206.689 175.28V175.277L206.686 175.276Z" fill="#DEAC7A"/>
<path d="M129.689 143.771L38.7837 172.172L38.7873 172.173L117.896 205.887L117.925 205.899L127.676 202.712L129.689 143.771Z" fill="#BA865A"/>
<path d="M129.689 143.771L38.7837 172.172L38.7873 172.173L117.896 205.887L117.925 205.899L127.676 202.712L129.689 143.771Z" fill="#BA865A"/>
<path d="M38.7872 172.173L11.7676 124.253L105.889 100.366L129.689 143.771L38.7872 172.173Z" fill="#D09565"/>
<path d="M38.7872 172.173L117.925 205.899L82.6492 249.661L5.08618 213.393L38.7872 172.173Z" fill="#DEAC7A"/>
<path d="M129.689 143.771L206.689 175.277L243.295 141.732L145.106 105.901L129.689 143.771Z" fill="#D09565"/>
<path d="M206.689 175.277L117.925 205.899L149.754 240.775L236.323 203.779L206.689 175.277Z" fill="#D09565"/>
<path opacity="0.52" d="M173.659 178.824C163.908 175.174 153.868 172.253 143.591 170.544C132.898 168.765 122.06 168.437 111.28 169.574C100.656 170.695 90.2085 173.132 80.011 176.283C74.1437 178.095 68.3561 180.146 62.6165 182.329L117.897 205.887L117.925 205.899L184.153 183.054C180.687 181.566 177.192 180.146 173.659 178.824Z" fill="#DEAC7A"/>
<path opacity="0.51" d="M85.4789 122.951C88.7912 121.922 92.0641 120.582 95.0444 118.741C98.1997 116.794 101.052 114.265 103.041 111.25C104.76 108.731 105.236 105.318 101.05 105.36C95.3306 105.792 89.6269 107.363 84.0106 108.575C72.1412 111.414 60.2696 114.242 48.5271 117.447C47.2583 117.833 45.9657 118.262 44.8647 118.853C42.487 120.014 41.4125 122.357 43.7121 123.949C44.9773 124.865 46.602 125.31 48.1262 125.653C51.0605 126.281 54.0774 126.663 57.1057 126.832C66.634 127.286 76.272 125.597 85.3971 122.975L85.4789 122.951Z" fill="#D09565"/>
<path opacity="0.51" d="M39.7685 124.877C40.6271 122.429 37.6246 120.973 35.6298 120.898C33.2923 120.81 30.1793 121.91 28.5898 123.655C28.0217 124.279 27.6014 125.152 27.8517 125.961C28.7397 128.82 33.7685 128.083 35.9454 127.601C37.4826 127.259 39.204 126.482 39.7685 124.877Z" fill="#D09565"/>
<path opacity="0.51" d="M162.954 131.611C171.793 135.081 181.23 137.67 190.759 138.117C193.789 138.234 196.829 138.139 199.809 137.789C201.359 137.591 203.018 137.301 204.364 136.508C206.803 135.14 205.952 132.707 203.694 131.326C202.653 130.634 201.407 130.085 200.18 129.581C188.79 125.284 177.235 121.35 165.685 117.405C160.207 115.669 154.676 113.567 149.022 112.599C144.859 112.162 145.013 115.605 146.489 118.275C148.186 121.463 150.789 124.25 153.747 126.486C156.543 128.6 159.676 130.242 162.877 131.578L162.954 131.611Z" fill="#D09565"/>
<path opacity="0.51" d="M211.755 140.874C213.878 141.559 218.815 142.767 219.967 140.004C220.292 139.223 219.955 138.315 219.448 137.639C218.029 135.752 215.033 134.364 212.697 134.232C210.704 134.119 207.578 135.285 208.204 137.802C208.615 139.454 210.256 140.39 211.755 140.874Z" fill="#D09565"/>
<mask id="mask0_2_2" style="mask-type:luminance" maskUnits="userSpaceOnUse" x="5" y="81" width="203" height="131">
<path d="M207.981 180.436L202.512 85.9092C192.378 71.3959 83.6286 92.1251 38.3759 108.372C-9.33711 125.502 3.82413 184.678 18.6831 191.064L40.0787 177.332L40.0823 177.334L119.191 211.046L119.22 211.058L207.983 180.439V180.436H207.981Z" fill="white"/>
</mask>
<g mask="url(#mask0_2_2)">
<path d="M165.257 203.738L86.0558 230.771C82.3009 232.053 78.221 230.04 76.9429 226.274L45.2982 133.043C44.02 129.277 46.0284 125.186 49.7826 123.904L128.984 96.8715C132.739 95.5898 136.819 97.603 138.097 101.368L169.742 194.599C171.02 198.366 169.012 202.457 165.257 203.738Z" fill="#C2CAD3"/>
<path d="M133.868 105.929L51.4264 134.065L82.2905 225.003L164.732 196.867L133.868 105.929Z" fill="#72787E"/>
<path d="M133.159 107.344L52.8475 134.753L82.9141 223.341L163.225 195.932L133.159 107.344Z" fill="#FFFDED"/>
<path d="M108.816 125.224L83.0102 134.032C79.8607 135.107 76.5383 133.742 75.6044 130.989L72.5137 121.883C71.5791 119.131 73.3808 116.016 76.5304 114.941L102.336 106.133C105.486 105.058 108.808 106.423 109.742 109.176L112.833 118.282C113.768 121.035 111.966 124.15 108.816 125.224ZM77.2376 117.025C75.2343 117.709 74.0472 119.57 74.5916 121.174L77.6823 130.28C78.2267 131.884 80.2997 132.633 82.3037 131.949L108.11 123.141C110.113 122.457 111.3 120.595 110.756 118.991L107.665 109.885C107.121 108.281 105.048 107.532 103.044 108.217L77.2376 117.025Z" fill="#4D7DBF"/>
<path d="M101.406 102.654L75.1544 111.613L78.8669 122.552L105.118 113.593L101.406 102.654Z" fill="#355162"/>
<path d="M135.132 134.617L78.2827 154.021C77.9549 154.133 77.5984 153.957 77.4872 153.628C77.3753 153.299 77.5511 152.942 77.8788 152.83L134.728 133.427C135.056 133.315 135.412 133.491 135.523 133.819C135.635 134.147 135.459 134.505 135.132 134.617Z" fill="#8DA1A3"/>
<path d="M140.706 151.039L83.8581 170.443C83.5303 170.555 83.1738 170.379 83.0627 170.05C82.9508 169.722 83.1265 169.364 83.4543 169.253L140.302 149.849C140.63 149.737 140.987 149.913 141.098 150.242C141.209 150.57 141.034 150.928 140.706 151.039Z" fill="#8DA1A3"/>
<path d="M146.28 167.462L89.4312 186.866C89.1034 186.977 88.7469 186.802 88.6358 186.473C88.5239 186.145 88.6996 185.787 89.0274 185.676L145.876 166.272C146.204 166.16 146.561 166.336 146.672 166.665C146.784 166.993 146.608 167.35 146.28 167.462Z" fill="#8DA1A3"/>
<path d="M151.855 183.885L95.0059 203.288C94.6781 203.4 94.3217 203.224 94.2105 202.895C94.0986 202.567 94.2743 202.209 94.6021 202.098L151.451 182.694C151.779 182.582 152.135 182.758 152.246 183.087C152.358 183.416 152.183 183.772 151.855 183.885Z" fill="#8DA1A3"/>
<path d="M70.6389 149.522L63.0961 152.096L65.6632 159.66L73.206 157.086L70.6389 149.522Z" fill="#C9E6D5"/>
<path d="M76.1657 165.805L68.6229 168.379L71.19 175.943L78.7328 173.369L76.1657 165.805Z" fill="#C9E6D5"/>
<path d="M81.6922 182.088L74.1494 184.663L76.7165 192.226L84.2593 189.652L81.6922 182.088Z" fill="#C9E6D5"/>
<path d="M87.2188 198.372L79.676 200.946L82.2431 208.51L89.7859 205.935L87.2188 198.372Z" fill="#C9E6D5"/>
</g>
<mask id="mask1_2_2" style="mask-type:luminance" maskUnits="userSpaceOnUse" x="5" y="81" width="203" height="131">
<path d="M207.981 180.436L202.512 85.9092C192.378 71.3959 83.6286 92.1251 38.3759 108.372C-9.33711 125.502 3.82413 184.678 18.6831 191.064L40.0787 177.332L40.0823 177.334L119.191 211.046L119.22 211.058L207.983 180.439V180.436H207.981Z" fill="white"/>
</mask>
<g mask="url(#mask1_2_2)">
<path d="M161.126 126.715L160.624 116.979L151.634 111.891L152.431 127.334L161.126 126.715Z" fill="#396925"/>
<path d="M155.598 137.998L155.6 138.026L157.257 137.926L158.915 137.854L158.914 137.826L176.08 136.796L175.728 131.626C175.728 131.626 164.619 131.114 162.312 126.046L161.464 122.826L158.148 122.998L154.832 123.17L151.516 123.342L151.004 126.632C149.23 131.912 138.234 133.571 138.234 133.571L138.416 138.749L155.598 137.998Z" fill="#B9D542"/>
<path d="M142.853 235.078L181.833 233.055L176.736 134.319L137.756 136.343L142.853 235.078Z" fill="#7CC24F"/>
<path d="M142.853 235.078L157.003 234.343L151.906 135.607L137.756 136.342L142.853 235.078Z" fill="#7CC24F"/>
<path opacity="0.53" d="M175.148 224.068C175.148 224.068 178.76 226.208 178.752 220.622C178.744 215.036 176.843 151.044 173.363 154.173C169.882 157.303 173.151 217.963 175.148 224.068Z" fill="#B9D542"/>
<path opacity="0.53" d="M171.513 147.809C171.614 148.431 171.881 149.124 172.43 149.553C173.004 150.002 173.806 149.93 174.399 149.525C175.067 149.069 175.301 148.336 175.356 147.633C175.406 146.999 175.355 146.359 175.211 145.738C175.196 145.511 175.171 145.285 175.13 145.064C175.041 144.571 174.804 144.01 174.33 143.706C173.75 143.335 173.007 143.472 172.483 143.872C171.841 144.362 171.672 145.082 171.566 145.781C171.462 146.45 171.403 147.139 171.513 147.809Z" fill="#B9D542"/>
<path d="M157.782 143.214C163.398 142.922 168.23 147.292 168.521 152.923L171.595 212.513C171.885 218.145 167.528 222.99 161.912 223.282C156.296 223.573 151.464 219.203 151.173 213.572L148.099 153.983C147.808 148.351 152.165 143.505 157.782 143.214Z" fill="#B9D542"/>
</g>
<mask id="mask2_2_2" style="mask-type:luminance" maskUnits="userSpaceOnUse" x="5" y="81" width="203" height="131">
<path d="M207.981 180.436L202.512 85.9092C192.378 71.3959 83.6286 92.1251 38.3759 108.372C-9.33711 125.502 3.82413 184.678 18.6831 191.064L40.0787 177.332L40.0823 177.334L119.191 211.046L119.22 211.058L207.983 180.439V180.436H207.981Z" fill="white"/>
</mask>
<g mask="url(#mask2_2_2)">
<path d="M94.4243 137.172C91.6026 134.05 88.9939 131.252 87.4395 129.794C86.6728 129.074 86.2826 128.946 85.3838 129.165C84.5662 129.364 84.3338 130.548 84.3338 130.548C84.3338 130.548 83.1022 134.941 81.6354 140.28L94.4243 137.172Z" fill="#1F2F3D"/>
<path d="M81.1232 138.625C78.9169 146.66 76.2178 156.699 76.3871 157.121C76.6704 157.831 78.5497 161.179 82.1561 160.043C85.7619 158.907 89.067 160.093 93.7365 158.007C98.4066 155.921 102.163 156.478 105.021 154.745C108.185 152.827 106.687 149.757 106.687 149.757C106.687 149.757 99.9854 141.961 94.1217 135.466L81.1232 138.625Z" fill="#AFB7C7"/>
<path d="M82.1554 160.042C83.7965 159.525 85.3752 159.489 87.0486 159.407C87.1103 157.879 87.144 156.35 87.1576 154.822C87.1828 152.13 87.1584 149.438 87.1691 146.745C87.1799 144.026 87.2595 141.308 87.3391 138.59C87.3535 138.093 87.3735 137.597 87.3929 137.1L81.1225 138.624C78.9162 146.66 76.2171 156.698 76.3864 157.121C76.6697 157.831 78.5497 161.179 82.1554 160.042Z" fill="#AFB7C7"/>
<path d="M99.5359 252.929L129.837 245.563L106.676 149.753L76.3747 157.118L99.5359 252.929Z" fill="#485C7A"/>
<path d="M99.537 252.928L110.536 250.254L87.375 154.444L76.3758 157.118L99.537 252.928Z" fill="#2D3B52"/>
<path d="M122.831 237.706C122.831 237.706 126.091 239.298 125.001 233.839C123.911 228.38 110.006 166.091 107.872 169.631C105.738 173.171 120.076 232.016 122.831 237.706Z" fill="#485C7A"/>
<path d="M105.18 163.666C105.38 164.259 105.725 164.9 106.24 165.243C106.78 165.604 107.396 165.422 107.785 164.944C108.223 164.406 108.265 163.657 108.172 162.963C108.088 162.336 107.924 161.718 107.691 161.13C107.635 160.911 107.571 160.693 107.497 160.483C107.331 160.014 107.035 159.498 106.603 159.266C106.075 158.984 105.516 159.22 105.181 159.683C104.77 160.251 104.777 160.978 104.828 161.676C104.878 162.345 104.964 163.027 105.18 163.666Z" fill="#485C7A"/>
<path d="M87.5924 189.91C90.1903 189.278 92.8313 190.894 93.4618 193.499L106.07 245.663C106.7 248.268 105.089 250.917 102.491 251.549C99.8929 252.18 97.2511 250.565 96.6214 247.96L84.0132 195.796C83.3834 193.19 84.9944 190.541 87.5924 189.91Z" fill="#716D69"/>
<path d="M86.0481 190.18C88.646 189.548 91.2878 191.163 91.9175 193.769L104.473 245.715C105.103 248.321 103.493 250.969 100.894 251.6C98.2962 252.232 95.6545 250.617 95.0247 248.011L82.4689 196.065C81.8391 193.459 83.4494 190.811 86.0481 190.18Z" fill="#ACA49E"/>
</g>
<mask id="mask3_2_2" style="mask-type:luminance" maskUnits="userSpaceOnUse" x="5" y="81" width="203" height="131">
<path d="M207.981 180.436L202.512 85.9092C192.378 71.3959 83.6286 92.1251 38.3759 108.372C-9.33711 125.502 3.82413 184.678 18.6831 191.064L40.0787 177.332L40.0823 177.334L119.191 211.046L119.22 211.058L207.983 180.439V180.436H207.981Z" fill="white"/>
</mask>
<g mask="url(#mask3_2_2)">
<path d="M145.245 242.255L174.92 251.841L205.061 158.012L175.386 148.427L145.245 242.255Z" fill="#D51E20"/>
<path d="M145.246 242.255L161.401 247.473L191.542 153.644L175.387 148.426L145.246 242.255Z" fill="#F68921"/>
<path d="M154.143 245.13L166.334 249.068L196.475 155.239L184.284 151.301L154.143 245.13Z" fill="#008BCB"/>
<path d="M184.275 151.289L154.134 245.118L159.219 246.761L189.36 152.932L184.275 151.289Z" fill="#003F65"/>
<path d="M205.064 158.001C205.064 158.001 204.742 161.404 201.046 161.382C197.707 161.363 196.316 157.559 196.478 155.227C196.478 155.227 194.793 158.92 189.724 158.254C184.655 157.588 184.286 151.288 184.286 151.288C184.286 151.288 182.454 154.846 178.787 153.927C175.12 153.007 175.261 149.167 175.389 148.414C175.517 147.661 196.602 128.073 196.602 128.073C196.602 128.073 197.415 127.187 198.212 127.445C199.089 127.728 199.355 128.04 199.633 129.051C201.383 135.409 205.064 158.001 205.064 158.001Z" fill="#E9C290"/>
<path d="M191.83 135.259C192.716 135.956 193.681 136.558 194.693 137.053C195.705 137.548 196.779 137.94 197.887 138.152C198.886 138.344 199.941 138.383 200.93 138.114C201.139 138.057 201.342 137.983 201.538 137.896C200.832 134.202 200.15 130.924 199.635 129.052C199.356 128.041 199.091 127.729 198.214 127.445C197.416 127.188 196.603 128.073 196.603 128.073C196.603 128.073 193.868 130.614 190.362 133.901C190.807 134.398 191.309 134.848 191.83 135.259Z" fill="#3A4C5D"/>
<path d="M178.788 153.927C182.454 154.847 184.287 151.289 184.287 151.289C184.287 151.289 185.112 155.694 187.872 157.627C188.515 155.971 197.013 130.071 198.004 127.406C197.28 127.34 196.604 128.073 196.604 128.073C196.604 128.073 175.518 147.662 175.391 148.415C175.262 149.168 175.121 153.007 178.788 153.927Z" fill="#E9C290"/>
<path d="M173.031 241.46C173.031 241.46 174.981 244.525 176.895 239.298C178.809 234.072 199.388 173.67 195.725 175.571C192.062 177.473 173.644 235.164 173.031 241.46Z" fill="#EE3D4E"/>
<path d="M196.536 169.075C196.398 169.686 196.358 170.413 196.618 170.976C196.891 171.566 197.511 171.733 198.092 171.53C198.745 171.3 199.171 170.684 199.454 170.042C199.708 169.464 199.891 168.851 199.998 168.228C200.064 168.011 200.122 167.792 200.169 167.573C200.272 167.086 200.288 166.491 200.04 166.068C199.736 165.55 199.138 165.459 198.61 165.679C197.964 165.948 197.591 166.571 197.272 167.193C196.966 167.79 196.685 168.416 196.536 169.075Z" fill="#EE3D4E"/>
</g>
<mask id="mask4_2_2" style="mask-type:luminance" maskUnits="userSpaceOnUse" x="5" y="81" width="203" height="131">
<path d="M207.981 180.436L202.512 85.9092C192.378 71.3959 83.6286 92.1251 38.3759 108.372C-9.33711 125.502 3.82413 184.678 18.6831 191.064L40.0787 177.332L40.0823 177.334L119.191 211.046L119.22 211.058L207.983 180.439V180.436H207.981Z" fill="white"/>
</mask>
<g mask="url(#mask4_2_2)">
<path d="M118.683 250.668L127.871 196.411L127.932 196.326C130.399 196.624 133.655 196.011 136.062 196.631C135.002 203.69 130.471 229.267 128.518 237.932C126.228 248.098 121.48 253.723 119.633 252.958C117.785 252.194 118.683 250.668 118.683 250.668Z" fill="#989E9C"/>
<path d="M122.16 243.409C122.922 239.198 123.719 234.993 124.498 230.786C125.281 226.558 126.093 222.336 126.946 218.12C127.372 216.012 127.805 213.906 128.234 211.799C128.655 209.734 128.98 207.653 129.29 205.569C129.745 202.505 130.167 199.426 130.813 196.394C129.802 196.423 128.816 196.433 127.933 196.326L127.872 196.411L118.684 250.668C118.684 250.668 117.786 252.194 119.634 252.958C119.881 253.061 120.182 253.045 120.522 252.923C121.033 249.746 121.587 246.575 122.16 243.409Z" fill="#7A7F7E"/>
<path d="M143.964 164.938C144.113 164.381 144.242 163.826 144.352 163.271C144.501 162.632 144.584 162.276 144.584 162.276L144.536 162.253C145.905 153.716 142.88 145.761 136.399 142.716C128.051 138.795 117.132 144.505 112.009 155.47C106.887 166.435 109.502 178.502 117.85 182.424C120.072 183.468 122.347 184.695 124.014 186.544C125.561 188.26 126.06 190.595 126.257 192.834C126.323 193.595 125.786 200.427 126.417 200.639C130.148 201.897 135.9 202 135.9 202C137.601 196.183 142.159 172.675 143.964 164.938ZM117.402 158.323C121.126 150.351 128.658 146.009 134.226 148.624C139.793 151.239 141.288 159.822 137.564 167.794C133.84 175.766 126.308 180.108 120.74 177.493C115.172 174.879 113.678 166.296 117.402 158.323Z" fill="#EE2A25"/>
<path opacity="0.43" d="M141.795 175.028C140.537 176.396 139.312 177.795 138.107 179.21C136.331 181.298 134.593 183.419 132.836 185.522C131.114 187.584 129.341 189.601 127.655 191.691C127.186 192.274 126.719 192.86 126.255 193.446C126.199 195.322 125.871 200.455 126.416 200.639C130.147 201.897 135.899 202 135.899 202C137.1 197.897 139.721 184.992 141.795 175.028Z" fill="#AC121B"/>
<path opacity="0.88" d="M127.507 145.236C127.622 144.965 127.699 144.648 127.591 144.363C127.5 144.124 127.29 143.962 127.065 143.856C126.632 143.652 126.131 143.597 125.641 143.605C125.345 143.722 125.052 143.842 124.762 143.971C123.781 144.408 122.832 144.911 121.943 145.515C120.941 146.195 120.014 146.981 119.149 147.829C117.317 149.624 115.691 151.65 114.413 153.878C113.374 155.689 112.522 157.618 111.918 159.619C111.659 160.475 111.443 161.354 111.356 162.246C111.288 162.947 111.288 163.727 111.589 164.381C111.728 164.258 111.859 164.127 111.977 163.984C112.686 163.124 113.086 162.028 113.458 160.992C113.845 159.913 114.175 158.8 114.689 157.773C115.284 156.586 116.044 155.459 116.851 154.407C117.696 153.306 118.634 152.278 119.639 151.321C120.126 150.857 120.627 150.408 121.143 149.976C121.542 149.643 121.981 149.361 122.425 149.093C123.422 148.492 124.465 147.967 125.441 147.329C126.255 146.798 127.112 146.16 127.507 145.236Z" fill="#E96920"/>
<path opacity="0.88" d="M129.937 144.017C129.853 144.093 129.79 144.185 129.756 144.293C129.634 144.673 129.802 145.105 130.096 145.374C130.748 145.974 131.796 145.958 132.465 145.398C132.651 145.242 132.812 145.044 132.89 144.814C132.952 144.63 132.942 144.429 132.825 144.265C132.43 143.714 130.57 143.444 129.937 144.017Z" fill="#E96920"/>
<path d="M100.158 241.967L135.847 200.157L135.873 200.057C134.065 198.346 132.45 195.445 130.435 193.988C125.706 199.323 109.009 219.186 103.62 226.236C97.2984 234.508 96.0266 241.766 97.7954 242.7C99.5642 243.635 100.158 241.967 100.158 241.967Z" fill="#989E9C"/>
<path d="M103.496 234.641C106.233 231.358 108.945 228.053 111.67 224.76C114.409 221.45 117.124 218.121 119.808 214.766C121.15 213.089 122.486 211.407 123.826 209.727C125.139 208.082 126.525 206.499 127.923 204.927C129.979 202.614 132.068 200.318 133.977 197.88C134.602 198.677 135.225 199.444 135.873 200.057L135.847 200.157L100.158 241.967C100.158 241.967 99.5643 243.635 97.7955 242.701C97.5588 242.576 97.378 242.333 97.2546 241.994C99.362 239.566 101.436 237.109 103.496 234.641Z" fill="#7A7F7E"/>
<path d="M126.426 197.551C126.426 197.551 130.187 201.916 133.539 203.985C134.104 204.335 138.995 199.548 139.62 199.112C141.461 197.83 143.57 196.72 145.876 196.813C148.359 196.914 150.755 197.881 152.978 198.925C161.326 202.846 172.245 197.136 177.367 186.171C182.489 175.206 179.874 163.138 171.527 159.217C165.045 156.172 157.014 158.935 151.349 165.453L151.302 165.431C151.302 165.431 151.082 165.722 150.687 166.247C150.333 166.687 149.991 167.142 149.659 167.613C144.886 173.956 129.794 192.516 126.426 197.551ZM154.905 193.542C149.338 190.927 147.843 182.344 151.567 174.372C155.291 166.4 162.823 162.058 168.391 164.673C173.958 167.288 175.452 175.871 171.729 183.843C168.005 191.815 160.473 196.157 154.905 193.542Z" fill="#EE2A25"/>
<path opacity="0.54" d="M151.568 174.372C154.708 167.651 160.555 163.51 165.649 163.944C164.541 163.711 163.397 163.637 162.275 163.697C160.242 163.806 158.297 164.493 156.594 165.602C154.876 166.72 153.423 168.214 152.217 169.865C151.15 171.325 150.227 172.926 149.573 174.615C148.991 176.121 148.607 177.704 148.407 179.306C148.204 180.928 148.192 182.583 148.432 184.202C148.656 185.715 149.108 187.216 149.889 188.537C150.315 189.255 150.841 189.907 151.451 190.467C148.917 186.568 148.798 180.303 151.568 174.372Z" fill="#E96920"/>
<path opacity="0.43" d="M171.992 193.101C169.037 195.775 165.358 197.893 161.285 197.944C157.188 197.995 153.384 196.206 149.592 194.892C148.649 194.564 147.7 194.228 146.708 194.085C145.826 193.957 144.928 193.974 144.052 194.138C142.362 194.457 140.832 195.319 139.47 196.346C138.721 196.911 138.013 197.531 137.328 198.172C136.482 198.965 135.634 199.753 134.779 200.536C133.895 201.344 133.008 202.168 132.179 203.044C132.633 203.387 133.09 203.707 133.539 203.984C134.104 204.334 138.995 199.547 139.62 199.111C141.462 197.829 143.57 196.719 145.876 196.813C148.359 196.913 150.755 197.881 152.978 198.924C160.849 202.621 171.006 197.755 176.434 187.995C175.158 189.869 173.657 191.593 171.992 193.101Z" fill="#AC121B"/>
<path opacity="0.88" d="M175.288 167.68C175.422 167.418 175.615 167.156 175.903 167.057C176.145 166.974 176.403 167.033 176.628 167.138C177.061 167.341 177.424 167.692 177.732 168.075C177.832 168.377 177.927 168.681 178.014 168.986C178.307 170.021 178.529 171.075 178.635 172.146C178.755 173.354 178.747 174.572 178.651 175.781C178.448 178.341 177.936 180.89 177.048 183.301C176.325 185.261 175.392 187.152 174.246 188.899C173.755 189.647 173.22 190.375 172.593 191.013C172.099 191.515 171.502 192.014 170.808 192.2C170.813 192.014 170.83 191.83 170.864 191.647C171.068 190.551 171.652 189.541 172.208 188.591C172.787 187.602 173.428 186.636 173.886 185.581C174.415 184.363 174.791 183.057 175.081 181.761C175.384 180.406 175.572 179.025 175.661 177.639C175.705 176.967 175.729 176.292 175.729 175.618C175.729 175.098 175.664 174.579 175.584 174.065C175.407 172.912 175.142 171.773 175.006 170.613C174.893 169.645 174.833 168.576 175.288 167.68Z" fill="#E96920"/>
<path opacity="0.88" d="M174.666 165.028C174.662 165.142 174.632 165.248 174.572 165.344C174.358 165.681 173.92 165.827 173.525 165.774C172.649 165.656 171.989 164.838 171.991 163.965C171.992 163.721 172.04 163.47 172.166 163.263C172.267 163.097 172.428 162.976 172.628 162.961C173.303 162.914 174.701 164.174 174.666 165.028Z" fill="#E96920"/>
<path d="M136.226 196.13C135.597 197.475 134.001 198.055 132.659 197.425C131.318 196.795 130.74 195.194 131.368 193.849C131.996 192.504 133.593 191.924 134.934 192.554C136.276 193.184 136.854 194.785 136.226 196.13Z" fill="#5E6463"/>
<path d="M135.373 195.419C134.957 196.311 133.899 196.695 133.01 196.277C132.121 195.86 131.738 194.799 132.155 193.908C132.571 193.016 133.629 192.632 134.518 193.05C135.406 193.468 135.789 194.529 135.373 195.419Z" fill="#989E9C"/>
</g>
<mask id="mask5_2_2" style="mask-type:luminance" maskUnits="userSpaceOnUse" x="5" y="81" width="203" height="131">
<path d="M207.981 180.436L202.512 85.9092C192.378 71.3959 83.6286 92.1251 38.3759 108.372C-9.33711 125.502 3.82413 184.678 18.6831 191.064L40.0787 177.332L40.0823 177.334L119.191 211.046L119.22 211.058L207.983 180.439V180.436H207.981Z" fill="white"/>
</mask>
<g mask="url(#mask5_2_2)">
<path d="M74.8218 117.995L63.875 208.662L66.6593 209L77.6061 118.333L74.8218 117.995Z" fill="#CE6F1A"/>
<path d="M65.6638 122.119L57.3507 140.233C55.2397 145.725 49.4219 145.018 49.4219 145.018L44.8816 144.467C41.5778 140.732 36.9557 138.144 31.6242 137.496C20.041 136.09 9.51431 144.366 8.11204 155.982C6.70977 167.598 14.9627 178.153 26.5467 179.56C32.0546 180.229 37.3215 178.704 41.4839 175.676L45.6598 176.183C45.6598 176.183 51.4776 176.89 52.2207 182.727L55.9828 202.308C55.9828 202.308 56.3364 207.68 61.0798 208.988L65.1539 209.377L76.2522 117.448L72.2032 116.852C67.2863 116.986 65.6638 122.119 65.6638 122.119ZM18.1409 157.449C18.8632 151.466 24.2858 147.203 30.2521 147.927C36.2184 148.651 40.4696 154.089 39.7474 160.072C39.0251 166.055 33.6025 170.318 27.6362 169.594C21.6699 168.869 17.4187 163.432 18.1409 157.449Z" fill="#FBB216"/>
<path d="M73.9757 121.606L63.9102 204.982C63.8054 205.848 63.0207 206.465 62.1571 206.36C61.2935 206.255 60.6781 205.468 60.7828 204.602L70.8491 121.226C70.9538 120.36 71.7385 119.743 72.6021 119.848C73.465 119.953 74.0804 120.74 73.9757 121.606Z" fill="#CE6F1A"/>
<path d="M52.4689 178.389C52.4689 178.389 62.7639 162.17 55.7117 145.342C55.7117 145.342 62.5573 148.419 61.9648 161.574C61.3724 174.728 52.4689 178.389 52.4689 178.389Z" fill="#CE6F1A"/>
<path d="M13.4916 156.635C12.4465 165.292 18.5978 173.16 27.2309 174.208C35.864 175.256 43.7102 169.087 44.7553 160.43C45.8004 151.773 39.6491 143.905 31.016 142.857C22.3821 141.809 14.5366 147.977 13.4916 156.635ZM42.9621 160.213C42.0318 167.918 35.0492 173.408 27.3658 172.475C19.6823 171.542 14.2074 164.54 15.1377 156.835C16.068 149.13 23.0506 143.64 30.7341 144.573C38.4175 145.505 43.8924 152.507 42.9621 160.213Z" fill="#CE6F1A"/>
<path d="M8.75182 156.06C7.39474 167.3 15.3816 177.515 26.5904 178.876C37.7992 180.236 47.9859 172.227 49.343 160.988C50.7001 149.748 42.7132 139.532 31.5044 138.172C20.2956 136.81 10.1089 144.819 8.75182 156.06ZM48.1789 160.846C46.8906 171.518 37.2189 179.121 26.5775 177.829C15.936 176.537 8.35301 166.839 9.64124 156.168C10.9295 145.496 20.6012 137.893 31.2426 139.184C41.8841 140.476 49.4671 150.174 48.1789 160.846Z" fill="#CE6F1A"/>
<path d="M59.4745 206.939C59.4745 206.939 56.8063 206.366 56.3745 201.696C55.9427 197.027 52.9674 180.445 52.9674 180.445C52.9674 180.445 58.073 177.321 59.8339 173.043C59.8339 173.043 59.0176 179.807 56.7101 181.398C54.4027 182.99 58.0471 202.273 59.9945 202.634L59.4745 206.939Z" fill="#FBB216"/>
<path d="M70.1633 118.398C70.1633 118.398 67.4355 118.316 65.9056 122.747C64.3749 127.178 57.54 142.569 57.54 142.569C57.54 142.569 61.7547 146.824 62.4469 151.4C62.4469 151.4 63.2632 144.636 61.4011 142.539C59.5391 140.441 67.6672 122.587 69.644 122.702L70.1633 118.398Z" fill="#FBB216"/>
<path d="M10.6268 154.187C10.6268 154.187 8.03381 167.161 18.6789 174.068C29.3239 180.975 38.6987 174.44 38.6987 174.44C38.6987 174.44 28.4094 179.273 20.2174 173.693C12.0254 168.113 11.7923 158.446 12.6695 153.499C13.5468 148.552 11.6575 150.288 10.6268 154.187Z" fill="#FBB216"/>
<path d="M43.5145 174.743C43.5145 174.743 50.0855 168.242 50.3831 161.914C50.3831 161.914 50.9799 164.7 50.1335 168.622C49.2864 172.543 53.0162 174.118 53.0162 174.118L51.3278 177.282C51.3278 177.282 47.5951 174.959 43.5145 174.743Z" fill="#FBB216"/>
</g>
<path d="M269.5 263.1V286.8C269.5 290.967 268.383 293.983 266.15 295.85C263.95 297.717 261.033 298.65 257.4 298.65C255.233 298.65 253.367 298.333 251.8 297.7V291.3C253.567 292.2 255.233 292.65 256.8 292.65C258.467 292.65 259.767 292.217 260.7 291.35C261.667 290.45 262.15 288.85 262.15 286.55V263.1H269.5ZM286.921 293C290.088 293 291.671 290.417 291.671 285.25C291.671 280.083 290.088 277.5 286.921 277.5C283.755 277.5 282.171 280.083 282.171 285.25C282.171 290.417 283.755 293 286.921 293ZM295.721 275.45C297.788 277.85 298.821 281.117 298.821 285.25C298.821 289.383 297.788 292.65 295.721 295.05C293.655 297.45 290.721 298.65 286.921 298.65C283.121 298.65 280.188 297.45 278.121 295.05C276.055 292.65 275.021 289.383 275.021 285.25C275.021 281.117 276.055 277.85 278.121 275.45C280.188 273.05 283.121 271.85 286.921 271.85C290.721 271.85 293.655 273.05 295.721 275.45ZM312.705 298.7C308.771 298.7 306.205 297.2 305.005 294.2C304.405 292.733 304.105 290.417 304.105 287.25V272.5H311.155V285.75C311.155 288.05 311.338 289.7 311.705 290.7C312.205 292.133 313.255 292.85 314.855 292.85C316.521 292.85 317.755 292.283 318.555 291.15C319.388 289.983 319.805 288.067 319.805 285.4V272.5H326.855V298H320.955C320.621 297.2 320.455 296.05 320.455 294.55C319.821 295.75 318.821 296.75 317.455 297.55C316.121 298.317 314.538 298.7 312.705 298.7ZM361.893 298H355.593C354.627 295.6 353.66 292.85 352.693 289.75C351.727 286.65 351.077 284.267 350.743 282.6C350.41 284.3 349.76 286.7 348.793 289.8C347.86 292.867 346.91 295.6 345.943 298H339.643C338.21 295.1 336.743 291.3 335.243 286.6C333.743 281.867 332.477 277.167 331.443 272.5H338.793C340.127 280.733 341.493 286.75 342.893 290.55C344.593 285.883 346.177 279.867 347.643 272.5H353.843C355.31 279.867 356.893 285.883 358.593 290.55C359.993 286.75 361.36 280.733 362.693 272.5H370.043C367.577 283.467 364.86 291.967 361.893 298ZM398.036 302.95H392.686C388.119 297.117 385.836 290.267 385.836 282.4C385.836 274.5 388.119 267.633 392.686 261.8H398.036C394.503 269.067 392.736 275.933 392.736 282.4C392.736 288.833 394.503 295.683 398.036 302.95ZM415.095 298H408.845C407.211 294.667 405.528 290.633 403.795 285.9C402.061 281.133 400.745 276.667 399.845 272.5H407.195C408.128 278.4 409.728 284.483 411.995 290.75C414.195 284.65 415.778 278.567 416.745 272.5H424.095C423.161 276.7 421.828 281.183 420.095 285.95C418.361 290.717 416.695 294.733 415.095 298ZM440.641 287.3L436.141 288.35C434.908 288.65 434.291 289.3 434.291 290.3C434.291 290.933 434.624 291.567 435.291 292.2C435.958 292.8 436.924 293.1 438.191 293.1C441.558 293.1 445.108 292.3 448.841 290.7V296.35C446.108 297.883 442.558 298.65 438.191 298.65C434.324 298.65 431.374 297.45 429.341 295.05C427.308 292.65 426.291 289.383 426.291 285.25C426.291 281.217 427.441 277.983 429.741 275.55C432.074 273.083 435.108 271.85 438.841 271.85C442.174 271.85 444.691 272.583 446.391 274.05C448.124 275.483 448.991 277.333 448.991 279.6C448.991 281.8 448.341 283.467 447.041 284.6C445.741 285.733 443.608 286.633 440.641 287.3ZM438.791 277.4C437.091 277.4 435.758 278.033 434.791 279.3C433.824 280.533 433.341 282.217 433.341 284.35V284.85C433.708 284.483 434.408 284.167 435.441 283.9L438.541 283.1C440.808 282.533 441.941 281.517 441.941 280.05C441.941 279.217 441.658 278.567 441.091 278.1C440.558 277.633 439.791 277.4 438.791 277.4ZM454.795 298V272.5H460.695C461.029 273.3 461.195 274.383 461.195 275.75C461.762 274.717 462.595 273.833 463.695 273.1C464.829 272.333 466.145 271.95 467.645 271.95C468.245 271.95 468.879 272.033 469.545 272.2V278.6C468.745 278.367 467.745 278.25 466.545 278.25C463.412 278.25 461.845 279.95 461.845 283.35V298H454.795ZM476.688 302.95H471.338C474.872 295.683 476.638 288.833 476.638 282.4C476.638 275.933 474.872 269.067 471.338 261.8H476.688C481.255 267.633 483.538 274.5 483.538 282.4C483.538 290.267 481.255 297.117 476.688 302.95ZM490.147 298V261.8H497.197V275.65C497.83 274.55 498.764 273.65 499.997 272.95C501.23 272.217 502.664 271.85 504.297 271.85C507.064 271.85 509.147 272.533 510.547 273.9C511.98 275.233 512.697 276.95 512.697 279.05C512.697 282.583 510.864 285.117 507.197 286.65C508.13 287.483 509.414 289.1 511.047 291.5C512.68 293.9 513.997 296.067 514.997 298H506.797C506.13 296.633 505.114 294.933 503.747 292.9C502.414 290.833 501.28 289.3 500.347 288.3L499.347 288.55C498.48 288.75 497.897 289.3 497.597 290.2C497.33 291.067 497.197 292.267 497.197 293.8V298H490.147ZM505.647 279.85C505.647 278.25 504.764 277.45 502.997 277.45C501.23 277.45 499.814 278.083 498.747 279.35C497.714 280.617 497.197 282.317 497.197 284.45V284.9C497.63 284.467 498.347 284.117 499.347 283.85L502.147 283.1C504.48 282.467 505.647 281.383 505.647 279.85ZM529.451 293C532.617 293 534.201 290.417 534.201 285.25C534.201 280.083 532.617 277.5 529.451 277.5C526.284 277.5 524.701 280.083 524.701 285.25C524.701 290.417 526.284 293 529.451 293ZM538.251 275.45C540.317 277.85 541.351 281.117 541.351 285.25C541.351 289.383 540.317 292.65 538.251 295.05C536.184 297.45 533.251 298.65 529.451 298.65C525.651 298.65 522.717 297.45 520.651 295.05C518.584 292.65 517.551 289.383 517.551 285.25C517.551 281.117 518.584 277.85 520.651 275.45C522.717 273.05 525.651 271.85 529.451 271.85C533.251 271.85 536.184 273.05 538.251 275.45ZM557.234 293C560.401 293 561.984 290.417 561.984 285.25C561.984 280.083 560.401 277.5 557.234 277.5C554.067 277.5 552.484 280.083 552.484 285.25C552.484 290.417 554.067 293 557.234 293ZM566.034 275.45C568.101 277.85 569.134 281.117 569.134 285.25C569.134 289.383 568.101 292.65 566.034 295.05C563.967 297.45 561.034 298.65 557.234 298.65C553.434 298.65 550.501 297.45 548.434 295.05C546.367 292.65 545.334 289.383 545.334 285.25C545.334 281.117 546.367 277.85 548.434 275.45C550.501 273.05 553.434 271.85 557.234 271.85C561.034 271.85 563.967 273.05 566.034 275.45ZM588.067 271.85C595.001 271.85 598.467 276.317 598.467 285.25C598.467 289.483 597.634 292.783 595.967 295.15C594.334 297.483 591.784 298.65 588.317 298.65C586.784 298.65 585.434 298.35 584.267 297.75C583.134 297.117 582.301 296.367 581.767 295.5V307.9H574.717V272.5H580.617C580.951 273.333 581.117 274.35 581.117 275.55C582.684 273.083 585.001 271.85 588.067 271.85ZM586.567 277.5C583.367 277.5 581.767 280.083 581.767 285.25C581.767 290.383 583.367 292.95 586.567 292.95C589.734 292.95 591.317 290.383 591.317 285.25C591.317 280.083 589.734 277.5 586.567 277.5ZM617.511 271.85C624.444 271.85 627.911 276.317 627.911 285.25C627.911 289.483 627.077 292.783 625.411 295.15C623.777 297.483 621.227 298.65 617.761 298.65C616.227 298.65 614.877 298.35 613.711 297.75C612.577 297.117 611.744 296.367 611.211 295.5V307.9H604.161V272.5H610.061C610.394 273.333 610.561 274.35 610.561 275.55C612.127 273.083 614.444 271.85 617.511 271.85ZM616.011 277.5C612.811 277.5 611.211 280.083 611.211 285.25C611.211 290.383 612.811 292.95 616.011 292.95C619.177 292.95 620.761 290.383 620.761 285.25C620.761 280.083 619.177 277.5 616.011 277.5ZM641.904 298.7C637.971 298.7 635.404 297.2 634.204 294.2C633.604 292.733 633.304 290.417 633.304 287.25V272.5H640.354V285.75C640.354 288.05 640.537 289.7 640.904 290.7C641.404 292.133 642.454 292.85 644.054 292.85C645.721 292.85 646.954 292.283 647.754 291.15C648.587 289.983 649.004 288.067 649.004 285.4V272.5H656.054V298H650.154C649.821 297.2 649.654 296.05 649.654 294.55C649.021 295.75 648.021 296.75 646.654 297.55C645.321 298.317 643.737 298.7 641.904 298.7ZM677.493 271.85C681.393 271.85 683.943 273.35 685.143 276.35C685.776 277.883 686.093 280.183 686.093 283.25V298H679.043V284.8C679.043 282.433 678.876 280.767 678.543 279.8C678.043 278.4 676.976 277.7 675.343 277.7C673.676 277.7 672.409 278.267 671.543 279.4C670.709 280.533 670.293 282.433 670.293 285.1V298H663.243V272.5H669.143C669.476 273.333 669.643 274.5 669.643 276C670.243 274.8 671.243 273.817 672.643 273.05C674.043 272.25 675.659 271.85 677.493 271.85ZM693.927 289.7V277.85H690.677V272.5H693.927V266.75C695.593 265.85 697.943 265.267 700.977 265V272.5H706.877V277.85H700.977V289.15C700.977 290.65 701.193 291.65 701.627 292.15C702.06 292.65 702.827 292.9 703.927 292.9C705.16 292.9 706.41 292.7 707.677 292.3V297.9C706.377 298.333 704.61 298.55 702.377 298.55C699.377 298.55 697.21 297.817 695.877 296.35C694.577 294.883 693.927 292.667 693.927 289.7Z" fill="#F5BA36"/>
<path d="M287.79 249.53C274.87 249.53 263.027 248.907 252.26 247.66V130.36C254.3 129.907 259.57 129.397 268.07 128.83C276.57 128.15 283.37 127.81 288.47 127.81C304.45 127.81 316.123 130.473 323.49 135.8C330.97 141.127 334.71 149.343 334.71 160.45C334.71 165.89 333.067 170.763 329.78 175.07C326.493 179.377 322.3 182.38 317.2 184.08C323.773 185.553 329.27 189.01 333.69 194.45C338.223 199.89 340.49 206.407 340.49 214C340.49 225.673 336.523 234.513 328.59 240.52C320.657 246.527 307.057 249.53 287.79 249.53ZM292.04 196.66H277.25V228.62C280.99 228.96 286.487 229.13 293.74 229.13C307.68 229.13 314.65 223.633 314.65 212.64C314.65 201.987 307.113 196.66 292.04 196.66ZM288.64 148.21C285.013 148.21 281.217 148.493 277.25 149.06V177.62H287.28C301.787 177.62 309.04 172.52 309.04 162.32C309.04 157.56 307.51 154.047 304.45 151.78C301.503 149.4 296.233 148.21 288.64 148.21ZM385.484 129.34V204.48C385.484 212.527 387.241 218.76 390.754 223.18C394.381 227.6 399.481 229.81 406.054 229.81C412.628 229.81 417.671 227.6 421.184 223.18C424.811 218.76 426.624 212.527 426.624 204.48V129.34H451.614V205.5C451.614 219.78 447.534 230.83 439.374 238.65C431.214 246.357 420.108 250.21 406.054 250.21C392.001 250.21 380.894 246.357 372.734 238.65C364.574 230.83 360.494 219.78 360.494 205.5V129.34H385.484ZM502.355 248V232.02C502.355 223.973 501.845 217.457 500.825 212.47C499.805 207.37 497.992 202.327 495.385 197.34C490.965 188.953 485.639 177.96 479.405 164.36C473.285 150.76 468.752 139.087 465.805 129.34H492.665C497.425 146.453 502.865 161.47 508.985 174.39C512.385 181.643 514.369 186.233 514.935 188.16C515.729 185.553 517.655 180.963 520.715 174.39C526.835 161.47 532.275 146.453 537.035 129.34H563.895C560.949 139.087 556.359 150.76 550.125 164.36C544.005 177.96 538.735 188.953 534.315 197.34C529.669 206.52 527.345 218.08 527.345 232.02V248H502.355ZM659.405 248H571.855V229.64C583.075 217.173 594.068 203.63 604.835 189.01C615.715 174.39 624.101 161.47 629.995 150.25H574.065V129.34H659.235V136.14C659.235 141.353 657.761 147.36 654.815 154.16C650.848 163.113 644.218 174.163 634.925 187.31C625.745 200.457 615.488 213.717 604.155 227.09H659.405V248Z" fill="white"/>
<path d="M682.723 66.3646C697.235 62.1487 711.677 63.7436 722.235 69.6438L731.37 67.1415L736.78 86.0156C736.997 86.61 737.197 87.2154 737.375 87.8299C737.569 88.4978 737.734 89.1677 737.876 89.8405L737.891 89.8914L737.887 89.8923C741.764 108.36 726.49 128.334 702.715 135.24C678.346 142.319 654.17 133.019 648.271 114.448L648.259 114.446L641.659 91.7077L651.904 88.9025C657.873 78.8728 668.852 70.3944 682.723 66.3646Z" fill="white"/>
<path d="M648.95 96.587C651.583 98.9073 654.283 101.136 657.182 103.116C658.636 104.109 660.124 105.051 661.64 105.948C663.125 106.828 664.649 107.633 666.155 108.477C668.185 109.615 670.212 110.87 672.395 111.698C672.432 112.043 672.473 112.388 672.52 112.732C672.695 114.026 674.173 115.651 674.444 116.928C675.02 119.635 674.487 121.971 675.295 124.616C676.133 127.367 677.064 130.088 677.999 132.808C678.498 134.263 678.997 135.717 679.485 137.177C664.479 135.239 652.239 126.943 648.272 114.449L648.26 114.447L641.66 91.7087L643.403 91.2307C645.171 93.0976 647.02 94.8873 648.95 96.587Z" fill="#EBEBEC"/>
<path d="M682.723 66.3646C697.235 62.1487 711.677 63.7436 722.235 69.6438L731.37 67.1415L736.78 86.0156C736.997 86.61 737.197 87.2154 737.375 87.8299C737.569 88.4978 737.734 89.1677 737.876 89.8405L737.891 89.8915L737.887 89.8924C738.865 94.5492 738.623 99.3016 737.336 103.915C737.236 102.988 737.115 102.061 736.966 101.136C736.097 95.7398 734.359 90.5791 732.355 85.5098C731.225 82.652 729.208 77.9242 725.341 78.7617C723.029 79.2626 721.334 81.3198 719.993 83.1275C718.447 85.2134 717.193 87.5175 715.564 89.5404C714.583 90.7587 713.389 91.8382 712.243 92.8991C710.973 94.0766 709.655 95.2009 708.295 96.2728C705.653 98.3549 702.856 100.236 699.947 101.923C693.733 105.527 687.015 108.209 680.136 110.239C676.908 111.191 673.626 112.061 670.318 112.689C668.187 113.093 666.023 113.33 663.936 113.946C662.053 114.502 659.998 115.415 659.051 117.253C657.994 119.303 658.607 121.81 659.379 123.846C660.282 126.23 661.589 128.474 663.055 130.552C663.653 131.399 664.326 132.19 665.054 132.93C656.961 128.952 650.857 122.591 648.271 114.446L648.258 114.444L641.659 91.7052L651.904 88.9001C657.873 78.8728 668.852 70.3944 682.723 66.3646Z" fill="white"/>
<path d="M725.91 88.5841C726.23 92.0884 724.46 95.2924 722.703 98.1781C720.925 101.098 718.831 104.045 718.171 107.469C717.814 109.328 718.004 111.281 718.212 113.149C718.46 115.389 718.874 117.653 719.685 119.764C720.277 121.306 721.124 123.067 722.716 123.774C723.061 123.928 723.418 124.027 723.781 124.084C718.051 128.952 710.885 132.869 702.714 135.242C702.667 135.256 702.621 135.267 702.574 135.281C702.829 135.115 703.081 134.942 703.324 134.761C704.758 133.694 706.014 132.388 707.008 130.901C707.971 129.461 708.69 127.834 709.005 126.124C709.317 124.438 709.223 122.684 708.662 121.058C708.36 120.183 707.934 119.355 707.408 118.596C706.921 117.892 706.359 117.274 705.612 116.843C704.173 116.012 702.428 115.944 700.813 116.035C699.119 116.128 697.445 116.403 695.749 116.466C693.697 116.543 691.638 116.518 689.593 116.329C689.413 116.312 689.233 116.292 689.053 116.273C687.239 115.872 685.456 115.337 683.728 114.629C684.018 114.513 684.309 114.396 684.6 114.284C687.81 113.044 691.091 112.002 694.349 110.893C697.542 109.807 700.716 108.644 703.752 107.165C706.921 105.621 709.848 103.694 712.615 101.513C715.287 99.4067 717.832 97.0766 719.99 94.4344C721.875 92.1274 723.341 89.3457 725.741 87.5119C725.816 87.8655 725.877 88.2227 725.91 88.5841Z" fill="white"/>
<path d="M712.784 126.769C713.291 125.371 713.188 123.762 712.938 122.321C712.682 120.847 712.195 119.417 711.647 118.028C711.193 116.877 710.57 115.773 709.67 114.911C708.856 114.13 707.853 113.609 706.773 113.321C707.301 113.103 707.811 112.845 708.305 112.56C710.495 111.297 712.451 109.513 714.909 108.781C714.615 109.556 714.092 110.226 713.683 110.939C713.216 111.753 712.954 112.628 712.954 113.571C712.956 114.441 713.137 115.305 713.347 116.146C713.551 116.958 713.767 117.768 713.98 118.576C714.319 119.867 714.661 121.167 715.196 122.393C715.683 123.508 716.345 124.58 717.336 125.312C717.723 125.598 718.142 125.811 718.581 125.97C718.507 126.024 718.432 126.078 718.359 126.134C716.013 127.885 713.558 129.828 710.619 130.393C711.305 129.163 712.298 128.11 712.784 126.769Z" fill="white"/>
<path d="M642.075 93.089C636.555 74.0698 652.072 52.8441 676.734 45.6802C701.396 38.5162 725.863 48.1267 731.383 67.1459C736.903 86.1651 721.386 107.391 696.724 114.555C672.062 121.719 647.595 112.108 642.075 93.089Z" fill="#C7C8CA"/>
<path d="M696.257 112.991C720.582 105.926 736.009 85.1813 731.131 66.3663C731.214 66.6232 731.294 66.8818 731.37 67.1429C736.89 86.163 721.372 107.389 696.71 114.553C672.047 121.717 647.578 112.106 642.059 93.0862C641.983 92.8252 641.913 92.5638 641.845 92.3021C647.798 110.805 671.932 120.057 696.257 112.991Z" fill="#A4A7A9"/>
<path opacity="0.42" d="M646.357 91.8434C641.358 74.62 655.41 55.3986 677.743 48.9111C700.077 42.4235 722.234 51.1266 727.232 68.35C732.231 85.5733 718.179 104.795 695.846 111.282C673.513 117.77 651.356 109.067 646.357 91.8434Z" fill="#A4A7A9"/>
<path d="M657.544 86.2661C654.099 74.3968 663.783 61.1505 679.173 56.6797C694.564 52.2089 709.833 58.2066 713.278 70.0759C716.723 81.9452 707.039 95.1915 691.649 99.6623C676.258 104.133 660.989 98.1354 657.544 86.2661Z" fill="#A4A7A9"/>
<path d="M662.341 84.7998C659.415 74.7183 667.7 63.4499 680.846 59.6311C693.992 55.8123 707.021 60.8892 709.947 70.9707C712.873 81.0522 704.588 92.3207 691.442 96.1395C678.296 99.9583 665.267 94.8813 662.341 84.7998Z" fill="#4B4C45"/>
<path d="M665.56 83.8614C663.095 75.368 670.074 65.8748 681.149 62.6577C692.224 59.4407 703.2 63.718 705.665 72.2114C708.13 80.7048 701.151 90.198 690.076 93.4151C679.001 96.6321 668.025 92.3548 665.56 83.8614Z" fill="#8B8A7E"/>
<path d="M705.652 72.2103C706.433 74.9002 706.264 77.6897 705.321 80.3494C700.529 76.5952 693.008 75.2916 685.441 77.4904C677.873 79.6895 672.22 84.8186 670.183 90.5561C667.962 88.8161 666.326 86.5513 665.545 83.8614C663.081 75.3677 670.06 65.8741 681.135 62.6567C692.211 59.4393 703.188 63.7167 705.652 72.2103Z" fill="#8B8A7E"/>
<path opacity="0.44" d="M685.44 77.4907C693.009 75.2929 700.529 76.5953 705.319 80.3497C703.283 86.0872 697.63 91.2175 690.061 93.4154C682.494 95.6141 674.973 94.3108 670.182 90.5564C672.219 84.8174 677.873 79.6883 685.44 77.4907Z" fill="#A4A7A9"/>
<path d="M644.955 165.408L641.824 162.866L643.1 159.041L639.965 156.504L641.236 152.675L638.097 150.141L639.364 146.31L636.225 143.778L637.49 139.947L637.396 139.871C646.369 122.571 674.393 116.9 674.393 116.9L679.857 137.182C679.857 137.182 668.871 139.611 659.626 145.034C650.417 150.435 646.947 163.371 645.68 170.873L643.668 169.23L644.955 165.408Z" fill="white"/>
<path d="M637.492 139.948L636.227 143.779L639.366 146.311L638.099 150.142L641.238 152.676L639.967 156.505L643.102 159.042L641.826 162.867L644.957 165.408L643.673 169.232L645.685 170.875C645.666 170.985 645.648 171.093 645.63 171.202L643.338 169.33L644.622 165.508L641.491 162.966L642.766 159.141L639.631 156.606L640.902 152.777L637.763 150.243L639.03 146.412L635.891 143.88L636.815 141.085C637 140.676 637.193 140.272 637.399 139.876L637.492 139.948Z" fill="white"/>
<path d="M650.068 153.136C649.863 150.129 648.348 147.458 647.418 144.648C646.801 142.781 646.264 140.883 645.478 139.079C644.802 137.527 643.9 135.852 642.38 134.986C641.925 134.726 641.451 134.578 640.97 134.513C644.289 130.633 648.559 127.508 652.927 125.032C652.148 125.896 651.458 126.862 651.003 127.935C650.473 129.187 650.343 130.554 650.487 131.901C650.662 133.534 651.14 135.112 651.519 136.704C651.667 137.327 651.849 137.942 652.024 138.557C652.22 139.244 652.427 139.928 652.671 140.599C653.126 141.851 653.701 143.147 654.666 144.091C655.103 144.517 655.617 144.839 656.202 145.016C656.803 145.199 657.441 145.244 658.065 145.214C658.582 145.188 659.089 145.118 659.588 145.017C659.577 145.024 659.566 145.031 659.553 145.038C654.588 147.95 651.292 153.054 649.108 158.315C649.645 156.622 650.19 154.93 650.068 153.136Z" fill="white"/>
</g>
<defs>
<clipPath id="clip0_2_2">
<rect width="752" height="400" fill="white"/>
</clipPath>
</defs>
</svg>
