<svg width="1023" height="400" viewBox="0 0 1023 400" fill="none" xmlns="http://www.w3.org/2000/svg">
<path d="M206.69 188.276H206.687L206.69 188.277V188.276Z" fill="#BA865A"/>
<path d="M117.925 218.899L117.896 218.887V308.529L117.925 308.541L206.692 277.92L206.689 188.28L117.925 218.899Z" fill="#A26C45"/>
<path d="M117.925 218.899L117.896 218.887L135.811 270.671L206.692 237.754L206.689 188.28L117.925 218.899Z" fill="#DEAC7A"/>
<path d="M38.7873 185.173H38.7851L38.7837 274.814L117.896 308.529V218.887L38.7873 185.173Z" fill="#D09565"/>
<path d="M38.7873 185.173H38.7851L38.7837 247.076L90.2021 273.293L117.896 218.887L38.7873 185.173Z" fill="#DEAC7A"/>
<path d="M206.693 188.279L206.689 188.277V188.28L206.693 188.279Z" fill="#DEAC7A"/>
<path d="M206.686 188.276L129.689 156.771L38.7837 185.172L38.7873 185.173L117.896 218.887L117.925 218.899L206.689 188.28V188.277L206.686 188.276Z" fill="#DEAC7A"/>
<path d="M129.689 156.771L38.7837 185.172L38.7873 185.173L117.896 218.887L117.925 218.899L127.676 215.712L129.689 156.771Z" fill="#BA865A"/>
<path d="M129.689 156.771L38.7837 185.172L38.7873 185.173L117.896 218.887L117.925 218.899L127.676 215.712L129.689 156.771Z" fill="#BA865A"/>
<path d="M38.7872 185.173L11.7676 137.253L105.889 113.366L129.689 156.771L38.7872 185.173Z" fill="#D09565"/>
<path d="M38.7872 185.173L117.925 218.899L82.6492 262.661L5.08618 226.393L38.7872 185.173Z" fill="#DEAC7A"/>
<path d="M129.689 156.771L206.689 188.277L243.295 154.732L145.106 118.901L129.689 156.771Z" fill="#D09565"/>
<path d="M206.689 188.277L117.925 218.899L149.754 253.775L236.323 216.779L206.689 188.277Z" fill="#D09565"/>
<path opacity="0.52" d="M173.659 191.824C163.908 188.174 153.868 185.253 143.591 183.544C132.898 181.765 122.06 181.437 111.28 182.574C100.656 183.695 90.2085 186.132 80.011 189.283C74.1437 191.095 68.3561 193.146 62.6165 195.329L117.897 218.887L117.925 218.899L184.153 196.054C180.687 194.566 177.192 193.146 173.659 191.824Z" fill="#DEAC7A"/>
<path opacity="0.51" d="M85.4789 135.951C88.7912 134.922 92.0641 133.582 95.0444 131.741C98.1997 129.794 101.052 127.265 103.041 124.25C104.76 121.731 105.236 118.318 101.05 118.36C95.3306 118.792 89.6269 120.363 84.0106 121.575C72.1412 124.414 60.2696 127.242 48.5271 130.447C47.2583 130.833 45.9657 131.262 44.8647 131.853C42.487 133.014 41.4125 135.357 43.7121 136.949C44.9773 137.865 46.602 138.31 48.1262 138.653C51.0605 139.281 54.0774 139.663 57.1057 139.832C66.634 140.286 76.272 138.597 85.3971 135.975L85.4789 135.951Z" fill="#D09565"/>
<path opacity="0.51" d="M39.7685 137.877C40.6271 135.429 37.6246 133.973 35.6298 133.898C33.2923 133.81 30.1793 134.91 28.5898 136.655C28.0217 137.279 27.6014 138.152 27.8517 138.961C28.7397 141.82 33.7685 141.083 35.9454 140.601C37.4826 140.259 39.204 139.482 39.7685 137.877Z" fill="#D09565"/>
<path opacity="0.51" d="M162.954 144.611C171.793 148.081 181.23 150.67 190.759 151.117C193.789 151.234 196.829 151.139 199.809 150.789C201.359 150.591 203.018 150.301 204.364 149.508C206.803 148.14 205.952 145.707 203.694 144.326C202.653 143.634 201.407 143.085 200.18 142.581C188.79 138.284 177.235 134.35 165.685 130.405C160.207 128.669 154.676 126.567 149.022 125.599C144.859 125.162 145.013 128.605 146.489 131.275C148.186 134.463 150.789 137.25 153.747 139.486C156.543 141.6 159.676 143.242 162.877 144.578L162.954 144.611Z" fill="#D09565"/>
<path opacity="0.51" d="M211.755 153.874C213.878 154.559 218.815 155.767 219.967 153.004C220.292 152.223 219.955 151.315 219.448 150.639C218.029 148.752 215.033 147.364 212.697 147.232C210.704 147.119 207.578 148.285 208.204 150.802C208.615 152.454 210.256 153.39 211.755 153.874Z" fill="#D09565"/>
<mask id="mask0_2_2" style="mask-type:luminance" maskUnits="userSpaceOnUse" x="5" y="94" width="203" height="131">
<path d="M207.981 193.436L202.512 98.9092C192.378 84.3959 83.6286 105.125 38.3759 121.372C-9.33711 138.502 3.82413 197.678 18.6831 204.064L40.0787 190.332L40.0823 190.334L119.191 224.046L119.22 224.058L207.983 193.439V193.436H207.981Z" fill="white"/>
</mask>
<g mask="url(#mask0_2_2)">
<path d="M165.257 216.738L86.0558 243.771C82.3009 245.053 78.221 243.04 76.9429 239.274L45.2982 146.043C44.02 142.277 46.0284 138.186 49.7826 136.904L128.984 109.872C132.739 108.59 136.819 110.603 138.097 114.368L169.742 207.599C171.02 211.366 169.012 215.457 165.257 216.738Z" fill="#C2CAD3"/>
<path d="M133.868 118.929L51.4264 147.065L82.2905 238.003L164.732 209.867L133.868 118.929Z" fill="#72787E"/>
<path d="M133.159 120.344L52.8475 147.753L82.9141 236.341L163.225 208.932L133.159 120.344Z" fill="#FFFDED"/>
<path d="M108.816 138.224L83.0102 147.032C79.8607 148.107 76.5383 146.742 75.6044 143.989L72.5137 134.883C71.5791 132.131 73.3808 129.016 76.5304 127.941L102.336 119.133C105.486 118.058 108.808 119.423 109.742 122.176L112.833 131.282C113.768 134.035 111.966 137.15 108.816 138.224ZM77.2376 130.025C75.2343 130.709 74.0472 132.57 74.5916 134.174L77.6823 143.28C78.2267 144.884 80.2997 145.633 82.3037 144.949L108.11 136.141C110.113 135.457 111.3 133.595 110.756 131.991L107.665 122.885C107.121 121.281 105.048 120.532 103.044 121.217L77.2376 130.025Z" fill="#4D7DBF"/>
<path d="M101.406 115.654L75.1544 124.613L78.8669 135.552L105.118 126.593L101.406 115.654Z" fill="#355162"/>
<path d="M135.132 147.617L78.2827 167.021C77.9549 167.133 77.5984 166.957 77.4872 166.628C77.3753 166.299 77.5511 165.942 77.8788 165.83L134.728 146.427C135.056 146.315 135.412 146.491 135.523 146.819C135.635 147.147 135.459 147.505 135.132 147.617Z" fill="#8DA1A3"/>
<path d="M140.706 164.039L83.8581 183.443C83.5303 183.555 83.1738 183.379 83.0627 183.05C82.9508 182.722 83.1265 182.364 83.4543 182.253L140.302 162.849C140.63 162.737 140.987 162.913 141.098 163.242C141.209 163.57 141.034 163.928 140.706 164.039Z" fill="#8DA1A3"/>
<path d="M146.28 180.462L89.4312 199.866C89.1034 199.977 88.7469 199.802 88.6358 199.473C88.5239 199.145 88.6996 198.787 89.0274 198.676L145.876 179.272C146.204 179.16 146.561 179.336 146.672 179.665C146.784 179.993 146.608 180.35 146.28 180.462Z" fill="#8DA1A3"/>
<path d="M151.855 196.885L95.0059 216.288C94.6781 216.4 94.3217 216.224 94.2105 215.895C94.0986 215.567 94.2743 215.209 94.6021 215.098L151.451 195.694C151.779 195.582 152.135 195.758 152.246 196.087C152.358 196.416 152.183 196.772 151.855 196.885Z" fill="#8DA1A3"/>
<path d="M70.6389 162.522L63.0961 165.096L65.6632 172.66L73.206 170.086L70.6389 162.522Z" fill="#C9E6D5"/>
<path d="M76.1657 178.805L68.6229 181.379L71.19 188.943L78.7328 186.369L76.1657 178.805Z" fill="#C9E6D5"/>
<path d="M81.6922 195.088L74.1494 197.663L76.7165 205.226L84.2593 202.652L81.6922 195.088Z" fill="#C9E6D5"/>
<path d="M87.2188 211.372L79.676 213.946L82.2431 221.51L89.7859 218.935L87.2188 211.372Z" fill="#C9E6D5"/>
</g>
<mask id="mask1_2_2" style="mask-type:luminance" maskUnits="userSpaceOnUse" x="5" y="94" width="203" height="131">
<path d="M207.981 193.436L202.512 98.9092C192.378 84.3959 83.6286 105.125 38.3759 121.372C-9.33711 138.502 3.82413 197.678 18.6831 204.064L40.0787 190.332L40.0823 190.334L119.191 224.046L119.22 224.058L207.983 193.439V193.436H207.981Z" fill="white"/>
</mask>
<g mask="url(#mask1_2_2)">
<path d="M161.126 139.715L160.624 129.979L151.634 124.891L152.431 140.334L161.126 139.715Z" fill="#396925"/>
<path d="M155.598 150.998L155.6 151.026L157.257 150.926L158.915 150.854L158.914 150.826L176.08 149.796L175.728 144.626C175.728 144.626 164.619 144.114 162.312 139.046L161.464 135.826L158.148 135.998L154.832 136.17L151.516 136.342L151.004 139.632C149.23 144.912 138.234 146.571 138.234 146.571L138.416 151.749L155.598 150.998Z" fill="#B9D542"/>
<path d="M142.853 248.078L181.833 246.055L176.736 147.319L137.756 149.343L142.853 248.078Z" fill="#7CC24F"/>
<path d="M142.853 248.078L157.003 247.343L151.906 148.607L137.756 149.342L142.853 248.078Z" fill="#7CC24F"/>
<path opacity="0.53" d="M175.148 237.068C175.148 237.068 178.76 239.208 178.752 233.622C178.744 228.036 176.843 164.044 173.363 167.173C169.882 170.303 173.151 230.963 175.148 237.068Z" fill="#B9D542"/>
<path opacity="0.53" d="M171.513 160.809C171.614 161.431 171.881 162.124 172.43 162.553C173.004 163.002 173.806 162.93 174.399 162.525C175.067 162.069 175.301 161.336 175.356 160.633C175.406 159.999 175.355 159.359 175.211 158.738C175.196 158.511 175.171 158.285 175.13 158.064C175.041 157.571 174.804 157.01 174.33 156.706C173.75 156.335 173.007 156.472 172.483 156.872C171.841 157.362 171.672 158.082 171.566 158.781C171.462 159.45 171.403 160.139 171.513 160.809Z" fill="#B9D542"/>
<path d="M157.782 156.214C163.398 155.922 168.23 160.292 168.521 165.923L171.595 225.513C171.885 231.145 167.528 235.99 161.912 236.282C156.296 236.573 151.464 232.203 151.173 226.572L148.099 166.983C147.808 161.351 152.165 156.505 157.782 156.214Z" fill="#B9D542"/>
</g>
<mask id="mask2_2_2" style="mask-type:luminance" maskUnits="userSpaceOnUse" x="5" y="94" width="203" height="131">
<path d="M207.981 193.436L202.512 98.9092C192.378 84.3959 83.6286 105.125 38.3759 121.372C-9.33711 138.502 3.82413 197.678 18.6831 204.064L40.0787 190.332L40.0823 190.334L119.191 224.046L119.22 224.058L207.983 193.439V193.436H207.981Z" fill="white"/>
</mask>
<g mask="url(#mask2_2_2)">
<path d="M94.4243 150.172C91.6026 147.05 88.9939 144.252 87.4395 142.794C86.6728 142.074 86.2826 141.946 85.3838 142.165C84.5662 142.364 84.3338 143.548 84.3338 143.548C84.3338 143.548 83.1022 147.941 81.6354 153.28L94.4243 150.172Z" fill="#1F2F3D"/>
<path d="M81.1232 151.625C78.9169 159.66 76.2178 169.699 76.3871 170.121C76.6704 170.831 78.5497 174.179 82.1561 173.043C85.7619 171.907 89.067 173.093 93.7365 171.007C98.4066 168.921 102.163 169.478 105.021 167.745C108.185 165.827 106.687 162.757 106.687 162.757C106.687 162.757 99.9854 154.961 94.1217 148.466L81.1232 151.625Z" fill="#AFB7C7"/>
<path d="M82.1554 173.042C83.7965 172.525 85.3752 172.489 87.0486 172.407C87.1103 170.879 87.144 169.35 87.1576 167.822C87.1828 165.13 87.1584 162.438 87.1691 159.745C87.1799 157.026 87.2595 154.308 87.3391 151.59C87.3535 151.093 87.3735 150.597 87.3929 150.1L81.1225 151.624C78.9162 159.66 76.2171 169.698 76.3864 170.121C76.6697 170.831 78.5497 174.179 82.1554 173.042Z" fill="#AFB7C7"/>
<path d="M99.5359 265.929L129.837 258.563L106.676 162.753L76.3747 170.118L99.5359 265.929Z" fill="#485C7A"/>
<path d="M99.537 265.928L110.536 263.254L87.375 167.444L76.3758 170.118L99.537 265.928Z" fill="#2D3B52"/>
<path d="M122.831 250.706C122.831 250.706 126.091 252.298 125.001 246.839C123.911 241.38 110.006 179.091 107.872 182.631C105.738 186.171 120.076 245.016 122.831 250.706Z" fill="#485C7A"/>
<path d="M105.18 176.666C105.38 177.259 105.725 177.9 106.24 178.243C106.78 178.604 107.396 178.422 107.785 177.944C108.223 177.406 108.265 176.657 108.172 175.963C108.088 175.336 107.924 174.718 107.691 174.13C107.635 173.911 107.571 173.693 107.497 173.483C107.331 173.014 107.035 172.498 106.603 172.266C106.075 171.984 105.516 172.22 105.181 172.683C104.77 173.251 104.777 173.978 104.828 174.676C104.878 175.345 104.964 176.027 105.18 176.666Z" fill="#485C7A"/>
<path d="M87.5924 202.91C90.1903 202.278 92.8313 203.894 93.4618 206.499L106.07 258.663C106.7 261.268 105.089 263.917 102.491 264.549C99.8929 265.18 97.2511 263.565 96.6214 260.96L84.0132 208.796C83.3834 206.19 84.9944 203.541 87.5924 202.91Z" fill="#716D69"/>
<path d="M86.0481 203.18C88.646 202.548 91.2878 204.163 91.9175 206.769L104.473 258.715C105.103 261.321 103.493 263.969 100.894 264.6C98.2962 265.232 95.6545 263.617 95.0247 261.011L82.4689 209.065C81.8391 206.459 83.4494 203.811 86.0481 203.18Z" fill="#ACA49E"/>
</g>
<mask id="mask3_2_2" style="mask-type:luminance" maskUnits="userSpaceOnUse" x="5" y="94" width="203" height="131">
<path d="M207.981 193.436L202.512 98.9092C192.378 84.3959 83.6286 105.125 38.3759 121.372C-9.33711 138.502 3.82413 197.678 18.6831 204.064L40.0787 190.332L40.0823 190.334L119.191 224.046L119.22 224.058L207.983 193.439V193.436H207.981Z" fill="white"/>
</mask>
<g mask="url(#mask3_2_2)">
<path d="M145.245 255.255L174.92 264.841L205.061 171.012L175.386 161.427L145.245 255.255Z" fill="#D51E20"/>
<path d="M145.246 255.255L161.401 260.473L191.542 166.644L175.387 161.426L145.246 255.255Z" fill="#F68921"/>
<path d="M154.143 258.13L166.334 262.068L196.475 168.239L184.284 164.301L154.143 258.13Z" fill="#008BCB"/>
<path d="M184.275 164.289L154.134 258.118L159.219 259.761L189.36 165.932L184.275 164.289Z" fill="#003F65"/>
<path d="M205.064 171.001C205.064 171.001 204.742 174.404 201.046 174.382C197.707 174.363 196.316 170.559 196.478 168.227C196.478 168.227 194.793 171.92 189.724 171.254C184.655 170.588 184.286 164.288 184.286 164.288C184.286 164.288 182.454 167.846 178.787 166.927C175.12 166.007 175.261 162.167 175.389 161.414C175.517 160.661 196.602 141.073 196.602 141.073C196.602 141.073 197.415 140.187 198.212 140.445C199.089 140.728 199.355 141.04 199.633 142.051C201.383 148.409 205.064 171.001 205.064 171.001Z" fill="#E9C290"/>
<path d="M191.83 148.259C192.716 148.956 193.681 149.558 194.693 150.053C195.705 150.548 196.779 150.94 197.887 151.152C198.886 151.344 199.941 151.383 200.93 151.114C201.139 151.057 201.342 150.983 201.538 150.896C200.832 147.202 200.15 143.924 199.635 142.052C199.356 141.041 199.091 140.729 198.214 140.445C197.416 140.188 196.603 141.073 196.603 141.073C196.603 141.073 193.868 143.614 190.362 146.901C190.807 147.398 191.309 147.848 191.83 148.259Z" fill="#3A4C5D"/>
<path d="M178.788 166.927C182.454 167.847 184.287 164.289 184.287 164.289C184.287 164.289 185.112 168.694 187.872 170.627C188.515 168.971 197.013 143.071 198.004 140.406C197.28 140.34 196.604 141.073 196.604 141.073C196.604 141.073 175.518 160.662 175.391 161.415C175.262 162.168 175.121 166.007 178.788 166.927Z" fill="#E9C290"/>
<path d="M173.031 254.46C173.031 254.46 174.981 257.525 176.895 252.298C178.809 247.072 199.388 186.67 195.725 188.571C192.062 190.473 173.644 248.164 173.031 254.46Z" fill="#EE3D4E"/>
<path d="M196.536 182.075C196.398 182.686 196.358 183.413 196.618 183.976C196.891 184.566 197.511 184.733 198.092 184.53C198.745 184.3 199.171 183.684 199.454 183.042C199.708 182.464 199.891 181.851 199.998 181.228C200.064 181.011 200.122 180.792 200.169 180.573C200.272 180.086 200.288 179.491 200.04 179.068C199.736 178.55 199.138 178.459 198.61 178.679C197.964 178.948 197.591 179.571 197.272 180.193C196.966 180.79 196.685 181.416 196.536 182.075Z" fill="#EE3D4E"/>
</g>
<mask id="mask4_2_2" style="mask-type:luminance" maskUnits="userSpaceOnUse" x="5" y="94" width="203" height="131">
<path d="M207.981 193.436L202.512 98.9092C192.378 84.3959 83.6286 105.125 38.3759 121.372C-9.33711 138.502 3.82413 197.678 18.6831 204.064L40.0787 190.332L40.0823 190.334L119.191 224.046L119.22 224.058L207.983 193.439V193.436H207.981Z" fill="white"/>
</mask>
<g mask="url(#mask4_2_2)">
<path d="M118.683 263.668L127.871 209.411L127.932 209.326C130.399 209.624 133.655 209.011 136.062 209.631C135.002 216.69 130.471 242.267 128.518 250.932C126.228 261.098 121.48 266.723 119.633 265.958C117.785 265.194 118.683 263.668 118.683 263.668Z" fill="#989E9C"/>
<path d="M122.16 256.409C122.922 252.198 123.719 247.993 124.498 243.786C125.281 239.558 126.093 235.336 126.946 231.12C127.372 229.012 127.805 226.906 128.234 224.799C128.655 222.734 128.98 220.653 129.29 218.569C129.745 215.505 130.167 212.426 130.813 209.394C129.802 209.423 128.816 209.433 127.933 209.326L127.872 209.411L118.684 263.668C118.684 263.668 117.786 265.194 119.634 265.958C119.881 266.061 120.182 266.045 120.522 265.923C121.033 262.746 121.587 259.575 122.16 256.409Z" fill="#7A7F7E"/>
<path d="M143.964 177.938C144.113 177.381 144.242 176.826 144.352 176.271C144.501 175.632 144.584 175.276 144.584 175.276L144.536 175.253C145.905 166.716 142.88 158.761 136.399 155.716C128.051 151.795 117.132 157.505 112.009 168.47C106.887 179.435 109.502 191.502 117.85 195.424C120.072 196.468 122.347 197.695 124.014 199.544C125.561 201.26 126.06 203.595 126.257 205.834C126.323 206.595 125.786 213.427 126.417 213.639C130.148 214.897 135.9 215 135.9 215C137.601 209.183 142.159 185.675 143.964 177.938ZM117.402 171.323C121.126 163.351 128.658 159.009 134.226 161.624C139.793 164.239 141.288 172.822 137.564 180.794C133.84 188.766 126.308 193.108 120.74 190.493C115.172 187.879 113.678 179.296 117.402 171.323Z" fill="#EE2A25"/>
<path opacity="0.43" d="M141.795 188.028C140.537 189.396 139.312 190.795 138.107 192.21C136.331 194.298 134.593 196.419 132.836 198.522C131.114 200.584 129.341 202.601 127.655 204.691C127.186 205.274 126.719 205.86 126.255 206.446C126.199 208.322 125.871 213.455 126.416 213.639C130.147 214.897 135.899 215 135.899 215C137.1 210.897 139.721 197.992 141.795 188.028Z" fill="#AC121B"/>
<path opacity="0.88" d="M127.507 158.236C127.622 157.965 127.699 157.648 127.591 157.363C127.5 157.124 127.29 156.962 127.065 156.856C126.632 156.652 126.131 156.597 125.641 156.605C125.345 156.722 125.052 156.842 124.762 156.971C123.781 157.408 122.832 157.911 121.943 158.515C120.941 159.195 120.014 159.981 119.149 160.829C117.317 162.624 115.691 164.65 114.413 166.878C113.374 168.689 112.522 170.618 111.918 172.619C111.659 173.475 111.443 174.354 111.356 175.246C111.288 175.947 111.288 176.727 111.589 177.381C111.728 177.258 111.859 177.127 111.977 176.984C112.686 176.124 113.086 175.028 113.458 173.992C113.845 172.913 114.175 171.8 114.689 170.773C115.284 169.586 116.044 168.459 116.851 167.407C117.696 166.306 118.634 165.278 119.639 164.321C120.126 163.857 120.627 163.408 121.143 162.976C121.542 162.643 121.981 162.361 122.425 162.093C123.422 161.492 124.465 160.967 125.441 160.329C126.255 159.798 127.112 159.16 127.507 158.236Z" fill="#E96920"/>
<path opacity="0.88" d="M129.937 157.017C129.853 157.093 129.79 157.185 129.756 157.293C129.634 157.673 129.802 158.105 130.096 158.374C130.748 158.974 131.796 158.958 132.465 158.398C132.651 158.242 132.812 158.044 132.89 157.814C132.952 157.63 132.942 157.429 132.825 157.265C132.43 156.714 130.57 156.444 129.937 157.017Z" fill="#E96920"/>
<path d="M100.158 254.967L135.847 213.157L135.873 213.057C134.065 211.346 132.45 208.445 130.435 206.988C125.706 212.323 109.009 232.186 103.62 239.236C97.2984 247.508 96.0266 254.766 97.7954 255.7C99.5642 256.635 100.158 254.967 100.158 254.967Z" fill="#989E9C"/>
<path d="M103.496 247.641C106.233 244.358 108.945 241.053 111.67 237.76C114.409 234.45 117.124 231.121 119.808 227.766C121.15 226.089 122.486 224.407 123.826 222.727C125.139 221.082 126.525 219.499 127.923 217.927C129.979 215.614 132.068 213.318 133.977 210.88C134.602 211.677 135.225 212.444 135.873 213.057L135.847 213.157L100.158 254.967C100.158 254.967 99.5643 256.635 97.7955 255.701C97.5588 255.576 97.378 255.333 97.2546 254.994C99.362 252.566 101.436 250.109 103.496 247.641Z" fill="#7A7F7E"/>
<path d="M126.426 210.551C126.426 210.551 130.187 214.916 133.539 216.985C134.104 217.335 138.995 212.548 139.62 212.112C141.461 210.83 143.57 209.72 145.876 209.813C148.359 209.914 150.755 210.881 152.978 211.925C161.326 215.846 172.245 210.136 177.367 199.171C182.489 188.206 179.874 176.138 171.527 172.217C165.045 169.172 157.014 171.935 151.349 178.453L151.302 178.431C151.302 178.431 151.082 178.722 150.687 179.247C150.333 179.687 149.991 180.142 149.659 180.613C144.886 186.956 129.794 205.516 126.426 210.551ZM154.905 206.542C149.338 203.927 147.843 195.344 151.567 187.372C155.291 179.4 162.823 175.058 168.391 177.673C173.958 180.288 175.452 188.871 171.729 196.843C168.005 204.815 160.473 209.157 154.905 206.542Z" fill="#EE2A25"/>
<path opacity="0.54" d="M151.568 187.372C154.708 180.651 160.555 176.51 165.649 176.944C164.541 176.711 163.397 176.637 162.275 176.697C160.242 176.806 158.297 177.493 156.594 178.602C154.876 179.72 153.423 181.214 152.217 182.865C151.15 184.325 150.227 185.926 149.573 187.615C148.991 189.121 148.607 190.704 148.407 192.306C148.204 193.928 148.192 195.583 148.432 197.202C148.656 198.715 149.108 200.216 149.889 201.537C150.315 202.255 150.841 202.907 151.451 203.467C148.917 199.568 148.798 193.303 151.568 187.372Z" fill="#E96920"/>
<path opacity="0.43" d="M171.992 206.101C169.037 208.775 165.358 210.893 161.285 210.944C157.188 210.995 153.384 209.206 149.592 207.892C148.649 207.564 147.7 207.228 146.708 207.085C145.826 206.957 144.928 206.974 144.052 207.138C142.362 207.457 140.832 208.319 139.47 209.346C138.721 209.911 138.013 210.531 137.328 211.172C136.482 211.965 135.634 212.753 134.779 213.536C133.895 214.344 133.008 215.168 132.179 216.044C132.633 216.387 133.09 216.707 133.539 216.984C134.104 217.334 138.995 212.547 139.62 212.111C141.462 210.829 143.57 209.719 145.876 209.813C148.359 209.913 150.755 210.881 152.978 211.924C160.849 215.621 171.006 210.755 176.434 200.995C175.158 202.869 173.657 204.593 171.992 206.101Z" fill="#AC121B"/>
<path opacity="0.88" d="M175.288 180.68C175.422 180.418 175.615 180.156 175.903 180.057C176.145 179.974 176.403 180.033 176.628 180.138C177.061 180.341 177.424 180.692 177.732 181.075C177.832 181.377 177.927 181.681 178.014 181.986C178.307 183.021 178.529 184.075 178.635 185.146C178.755 186.354 178.747 187.572 178.651 188.781C178.448 191.341 177.936 193.89 177.048 196.301C176.325 198.261 175.392 200.152 174.246 201.899C173.755 202.647 173.22 203.375 172.593 204.013C172.099 204.515 171.502 205.014 170.808 205.2C170.813 205.014 170.83 204.83 170.864 204.647C171.068 203.551 171.652 202.541 172.208 201.591C172.787 200.602 173.428 199.636 173.886 198.581C174.415 197.363 174.791 196.057 175.081 194.761C175.384 193.406 175.572 192.025 175.661 190.639C175.705 189.967 175.729 189.292 175.729 188.618C175.729 188.098 175.664 187.579 175.584 187.065C175.407 185.912 175.142 184.773 175.006 183.613C174.893 182.645 174.833 181.576 175.288 180.68Z" fill="#E96920"/>
<path opacity="0.88" d="M174.666 178.028C174.662 178.142 174.632 178.248 174.572 178.344C174.358 178.681 173.92 178.827 173.525 178.774C172.649 178.656 171.989 177.838 171.991 176.965C171.992 176.721 172.04 176.47 172.166 176.263C172.267 176.097 172.428 175.976 172.628 175.961C173.303 175.914 174.701 177.174 174.666 178.028Z" fill="#E96920"/>
<path d="M136.226 209.13C135.597 210.475 134.001 211.055 132.659 210.425C131.318 209.795 130.74 208.194 131.368 206.849C131.996 205.504 133.593 204.924 134.934 205.554C136.276 206.184 136.854 207.785 136.226 209.13Z" fill="#5E6463"/>
<path d="M135.373 208.419C134.957 209.311 133.899 209.695 133.01 209.277C132.121 208.86 131.738 207.799 132.155 206.908C132.571 206.016 133.629 205.632 134.518 206.05C135.406 206.468 135.789 207.529 135.373 208.419Z" fill="#989E9C"/>
</g>
<mask id="mask5_2_2" style="mask-type:luminance" maskUnits="userSpaceOnUse" x="5" y="94" width="203" height="131">
<path d="M207.981 193.436L202.512 98.9092C192.378 84.3959 83.6286 105.125 38.3759 121.372C-9.33711 138.502 3.82413 197.678 18.6831 204.064L40.0787 190.332L40.0823 190.334L119.191 224.046L119.22 224.058L207.983 193.439V193.436H207.981Z" fill="white"/>
</mask>
<g mask="url(#mask5_2_2)">
<path d="M74.8218 130.995L63.875 221.662L66.6593 222L77.6061 131.333L74.8218 130.995Z" fill="#CE6F1A"/>
<path d="M65.6638 135.119L57.3507 153.233C55.2397 158.725 49.4219 158.018 49.4219 158.018L44.8816 157.467C41.5778 153.732 36.9557 151.144 31.6242 150.496C20.041 149.09 9.51431 157.366 8.11204 168.982C6.70977 180.598 14.9627 191.153 26.5467 192.56C32.0546 193.229 37.3215 191.704 41.4839 188.676L45.6598 189.183C45.6598 189.183 51.4776 189.89 52.2207 195.727L55.9828 215.308C55.9828 215.308 56.3364 220.68 61.0798 221.988L65.1539 222.377L76.2522 130.448L72.2032 129.852C67.2863 129.986 65.6638 135.119 65.6638 135.119ZM18.1409 170.449C18.8632 164.466 24.2858 160.203 30.2521 160.927C36.2184 161.651 40.4696 167.089 39.7474 173.072C39.0251 179.055 33.6025 183.318 27.6362 182.594C21.6699 181.869 17.4187 176.432 18.1409 170.449Z" fill="#FBB216"/>
<path d="M73.9757 134.606L63.9102 217.982C63.8054 218.848 63.0207 219.465 62.1571 219.36C61.2935 219.255 60.6781 218.468 60.7828 217.602L70.8491 134.226C70.9538 133.36 71.7385 132.743 72.6021 132.848C73.465 132.953 74.0804 133.74 73.9757 134.606Z" fill="#CE6F1A"/>
<path d="M52.4689 191.389C52.4689 191.389 62.7639 175.17 55.7117 158.342C55.7117 158.342 62.5573 161.419 61.9648 174.574C61.3724 187.728 52.4689 191.389 52.4689 191.389Z" fill="#CE6F1A"/>
<path d="M13.4916 169.635C12.4465 178.292 18.5978 186.16 27.2309 187.208C35.864 188.256 43.7102 182.087 44.7553 173.43C45.8004 164.773 39.6491 156.905 31.016 155.857C22.3821 154.809 14.5366 160.977 13.4916 169.635ZM42.9621 173.213C42.0318 180.918 35.0492 186.408 27.3658 185.475C19.6823 184.542 14.2074 177.54 15.1377 169.835C16.068 162.13 23.0506 156.64 30.7341 157.573C38.4175 158.505 43.8924 165.507 42.9621 173.213Z" fill="#CE6F1A"/>
<path d="M8.75182 169.06C7.39474 180.3 15.3816 190.515 26.5904 191.876C37.7992 193.236 47.9859 185.227 49.343 173.988C50.7001 162.748 42.7132 152.532 31.5044 151.172C20.2956 149.81 10.1089 157.819 8.75182 169.06ZM48.1789 173.846C46.8906 184.518 37.2189 192.121 26.5775 190.829C15.936 189.537 8.35301 179.839 9.64124 169.168C10.9295 158.496 20.6012 150.893 31.2426 152.184C41.8841 153.476 49.4671 163.174 48.1789 173.846Z" fill="#CE6F1A"/>
<path d="M59.4745 219.939C59.4745 219.939 56.8063 219.366 56.3745 214.696C55.9427 210.027 52.9674 193.445 52.9674 193.445C52.9674 193.445 58.073 190.321 59.8339 186.043C59.8339 186.043 59.0176 192.807 56.7101 194.398C54.4027 195.99 58.0471 215.273 59.9945 215.634L59.4745 219.939Z" fill="#FBB216"/>
<path d="M70.1633 131.398C70.1633 131.398 67.4355 131.316 65.9056 135.747C64.3749 140.178 57.54 155.569 57.54 155.569C57.54 155.569 61.7547 159.824 62.4469 164.4C62.4469 164.4 63.2632 157.636 61.4011 155.539C59.5391 153.441 67.6672 135.587 69.644 135.702L70.1633 131.398Z" fill="#FBB216"/>
<path d="M10.6268 167.187C10.6268 167.187 8.03381 180.161 18.6789 187.068C29.3239 193.975 38.6987 187.44 38.6987 187.44C38.6987 187.44 28.4094 192.273 20.2174 186.693C12.0254 181.113 11.7923 171.446 12.6695 166.499C13.5468 161.552 11.6575 163.288 10.6268 167.187Z" fill="#FBB216"/>
<path d="M43.5145 187.743C43.5145 187.743 50.0855 181.242 50.3831 174.914C50.3831 174.914 50.9799 177.7 50.1335 181.622C49.2864 185.543 53.0162 187.118 53.0162 187.118L51.3278 190.282C51.3278 190.282 47.5951 187.959 43.5145 187.743Z" fill="#FBB216"/>
</g>
<path d="M282.9 285.14V318.32C282.9 324.153 281.337 328.377 278.21 330.99C275.13 333.603 271.047 334.91 265.96 334.91C262.927 334.91 260.313 334.467 258.12 333.58V324.62C260.593 325.88 262.927 326.51 265.12 326.51C267.453 326.51 269.273 325.903 270.58 324.69C271.933 323.43 272.61 321.19 272.61 317.97V285.14H282.9ZM307.29 327C311.723 327 313.94 323.383 313.94 316.15C313.94 308.917 311.723 305.3 307.29 305.3C302.857 305.3 300.64 308.917 300.64 316.15C300.64 323.383 302.857 327 307.29 327ZM319.61 302.43C322.503 305.79 323.95 310.363 323.95 316.15C323.95 321.937 322.503 326.51 319.61 329.87C316.717 333.23 312.61 334.91 307.29 334.91C301.97 334.91 297.863 333.23 294.97 329.87C292.077 326.51 290.63 321.937 290.63 316.15C290.63 310.363 292.077 305.79 294.97 302.43C297.863 299.07 301.97 297.39 307.29 297.39C312.61 297.39 316.717 299.07 319.61 302.43ZM343.387 334.98C337.88 334.98 334.287 332.88 332.607 328.68C331.767 326.627 331.347 323.383 331.347 318.95V298.3H341.217V316.85C341.217 320.07 341.473 322.38 341.987 323.78C342.687 325.787 344.157 326.79 346.397 326.79C348.73 326.79 350.457 325.997 351.577 324.41C352.743 322.777 353.327 320.093 353.327 316.36V298.3H363.197V334H354.937C354.47 332.88 354.237 331.27 354.237 329.17C353.35 330.85 351.95 332.25 350.037 333.37C348.17 334.443 345.953 334.98 343.387 334.98ZM412.251 334H403.431C402.077 330.64 400.724 326.79 399.371 322.45C398.017 318.11 397.107 314.773 396.641 312.44C396.174 314.82 395.264 318.18 393.911 322.52C392.604 326.813 391.274 330.64 389.921 334H381.101C379.094 329.94 377.041 324.62 374.941 318.04C372.841 311.413 371.067 304.833 369.621 298.3H379.911C381.777 309.827 383.691 318.25 385.651 323.57C388.031 317.037 390.247 308.613 392.301 298.3H400.981C403.034 308.613 405.251 317.037 407.631 323.57C409.591 318.25 411.504 309.827 413.371 298.3H423.661C420.207 313.653 416.404 325.553 412.251 334ZM462.85 340.93H455.36C448.967 332.763 445.77 323.173 445.77 312.16C445.77 301.1 448.967 291.487 455.36 283.32H462.85C457.904 293.493 455.43 303.107 455.43 312.16C455.43 321.167 457.904 330.757 462.85 340.93ZM486.732 334H477.982C475.696 329.333 473.339 323.687 470.912 317.06C468.486 310.387 466.642 304.133 465.382 298.3H475.672C476.979 306.56 479.219 315.077 482.392 323.85C485.472 315.31 487.689 306.793 489.042 298.3H499.332C498.026 304.18 496.159 310.457 493.732 317.13C491.306 323.803 488.972 329.427 486.732 334ZM522.497 319.02L516.197 320.49C514.471 320.91 513.607 321.82 513.607 323.22C513.607 324.107 514.074 324.993 515.007 325.88C515.941 326.72 517.294 327.14 519.067 327.14C523.781 327.14 528.751 326.02 533.977 323.78V331.69C530.151 333.837 525.181 334.91 519.067 334.91C513.654 334.91 509.524 333.23 506.677 329.87C503.831 326.51 502.407 321.937 502.407 316.15C502.407 310.503 504.017 305.977 507.237 302.57C510.504 299.117 514.751 297.39 519.977 297.39C524.644 297.39 528.167 298.417 530.547 300.47C532.974 302.477 534.187 305.067 534.187 308.24C534.187 311.32 533.277 313.653 531.457 315.24C529.637 316.827 526.651 318.087 522.497 319.02ZM519.907 305.16C517.527 305.16 515.661 306.047 514.307 307.82C512.954 309.547 512.277 311.903 512.277 314.89V315.59C512.791 315.077 513.771 314.633 515.217 314.26L519.557 313.14C522.731 312.347 524.317 310.923 524.317 308.87C524.317 307.703 523.921 306.793 523.127 306.14C522.381 305.487 521.307 305.16 519.907 305.16ZM542.313 334V298.3H550.573C551.04 299.42 551.273 300.937 551.273 302.85C552.067 301.403 553.233 300.167 554.773 299.14C556.36 298.067 558.203 297.53 560.303 297.53C561.143 297.53 562.03 297.647 562.963 297.88V306.84C561.843 306.513 560.443 306.35 558.763 306.35C554.377 306.35 552.183 308.73 552.183 313.49V334H542.313ZM572.964 340.93H565.474C570.42 330.757 572.894 321.167 572.894 312.16C572.894 303.107 570.42 293.493 565.474 283.32H572.964C579.357 291.487 582.554 301.1 582.554 312.16C582.554 323.173 579.357 332.763 572.964 340.93ZM591.806 334V283.32H601.676V302.71C602.562 301.17 603.869 299.91 605.596 298.93C607.322 297.903 609.329 297.39 611.616 297.39C615.489 297.39 618.406 298.347 620.366 300.26C622.372 302.127 623.376 304.53 623.376 307.47C623.376 312.417 620.809 315.963 615.676 318.11C616.982 319.277 618.779 321.54 621.066 324.9C623.352 328.26 625.196 331.293 626.596 334H615.116C614.182 332.087 612.759 329.707 610.846 326.86C608.979 323.967 607.392 321.82 606.086 320.42L604.686 320.77C603.472 321.05 602.656 321.82 602.236 323.08C601.862 324.293 601.676 325.973 601.676 328.12V334H591.806ZM613.506 308.59C613.506 306.35 612.269 305.23 609.796 305.23C607.322 305.23 605.339 306.117 603.846 307.89C602.399 309.663 601.676 312.043 601.676 315.03V315.66C602.282 315.053 603.286 314.563 604.686 314.19L608.606 313.14C611.872 312.253 613.506 310.737 613.506 308.59ZM646.831 327C651.264 327 653.481 323.383 653.481 316.15C653.481 308.917 651.264 305.3 646.831 305.3C642.398 305.3 640.181 308.917 640.181 316.15C640.181 323.383 642.398 327 646.831 327ZM659.151 302.43C662.044 305.79 663.491 310.363 663.491 316.15C663.491 321.937 662.044 326.51 659.151 329.87C656.258 333.23 652.151 334.91 646.831 334.91C641.511 334.91 637.404 333.23 634.511 329.87C631.618 326.51 630.171 321.937 630.171 316.15C630.171 310.363 631.618 305.79 634.511 302.43C637.404 299.07 641.511 297.39 646.831 297.39C652.151 297.39 656.258 299.07 659.151 302.43ZM685.728 327C690.161 327 692.378 323.383 692.378 316.15C692.378 308.917 690.161 305.3 685.728 305.3C681.294 305.3 679.078 308.917 679.078 316.15C679.078 323.383 681.294 327 685.728 327ZM698.048 302.43C700.941 305.79 702.388 310.363 702.388 316.15C702.388 321.937 700.941 326.51 698.048 329.87C695.154 333.23 691.048 334.91 685.728 334.91C680.408 334.91 676.301 333.23 673.408 329.87C670.514 326.51 669.068 321.937 669.068 316.15C669.068 310.363 670.514 305.79 673.408 302.43C676.301 299.07 680.408 297.39 685.728 297.39C691.048 297.39 695.154 299.07 698.048 302.43ZM728.894 297.39C738.601 297.39 743.454 303.643 743.454 316.15C743.454 322.077 742.287 326.697 739.954 330.01C737.667 333.277 734.097 334.91 729.244 334.91C727.097 334.91 725.207 334.49 723.574 333.65C721.987 332.763 720.821 331.713 720.074 330.5V347.86H710.204V298.3H718.464C718.931 299.467 719.164 300.89 719.164 302.57C721.357 299.117 724.601 297.39 728.894 297.39ZM726.794 305.3C722.314 305.3 720.074 308.917 720.074 316.15C720.074 323.337 722.314 326.93 726.794 326.93C731.227 326.93 733.444 323.337 733.444 316.15C733.444 308.917 731.227 305.3 726.794 305.3ZM770.115 297.39C779.821 297.39 784.675 303.643 784.675 316.15C784.675 322.077 783.508 326.697 781.175 330.01C778.888 333.277 775.318 334.91 770.465 334.91C768.318 334.91 766.428 334.49 764.795 333.65C763.208 332.763 762.041 331.713 761.295 330.5V347.86H751.425V298.3H759.685C760.151 299.467 760.385 300.89 760.385 302.57C762.578 299.117 765.821 297.39 770.115 297.39ZM768.015 305.3C763.535 305.3 761.295 308.917 761.295 316.15C761.295 323.337 763.535 326.93 768.015 326.93C772.448 326.93 774.665 323.337 774.665 316.15C774.665 308.917 772.448 305.3 768.015 305.3ZM804.265 334.98C798.759 334.98 795.165 332.88 793.485 328.68C792.645 326.627 792.225 323.383 792.225 318.95V298.3H802.095V316.85C802.095 320.07 802.352 322.38 802.865 323.78C803.565 325.787 805.035 326.79 807.275 326.79C809.609 326.79 811.335 325.997 812.455 324.41C813.622 322.777 814.205 320.093 814.205 316.36V298.3H824.075V334H815.815C815.349 332.88 815.115 331.27 815.115 329.17C814.229 330.85 812.829 332.25 810.915 333.37C809.049 334.443 806.832 334.98 804.265 334.98ZM854.09 297.39C859.55 297.39 863.12 299.49 864.8 303.69C865.686 305.837 866.13 309.057 866.13 313.35V334H856.26V315.52C856.26 312.207 856.026 309.873 855.56 308.52C854.86 306.56 853.366 305.58 851.08 305.58C848.746 305.58 846.973 306.373 845.76 307.96C844.593 309.547 844.01 312.207 844.01 315.94V334H834.14V298.3H842.4C842.866 299.467 843.1 301.1 843.1 303.2C843.94 301.52 845.34 300.143 847.3 299.07C849.26 297.95 851.523 297.39 854.09 297.39ZM877.097 322.38V305.79H872.547V298.3H877.097V290.25C879.431 288.99 882.721 288.173 886.967 287.8V298.3H895.227V305.79H886.967V321.61C886.967 323.71 887.271 325.11 887.877 325.81C888.484 326.51 889.557 326.86 891.097 326.86C892.824 326.86 894.574 326.58 896.347 326.02V333.86C894.527 334.467 892.054 334.77 888.927 334.77C884.727 334.77 881.694 333.743 879.827 331.69C878.007 329.637 877.097 326.533 877.097 322.38Z" fill="#F5BA36"/>
<path d="M291.79 265.53C278.87 265.53 267.027 264.907 256.26 263.66V146.36C258.3 145.907 263.57 145.397 272.07 144.83C280.57 144.15 287.37 143.81 292.47 143.81C308.45 143.81 320.123 146.473 327.49 151.8C334.97 157.127 338.71 165.343 338.71 176.45C338.71 181.89 337.067 186.763 333.78 191.07C330.493 195.377 326.3 198.38 321.2 200.08C327.773 201.553 333.27 205.01 337.69 210.45C342.223 215.89 344.49 222.407 344.49 230C344.49 241.673 340.523 250.513 332.59 256.52C324.657 262.527 311.057 265.53 291.79 265.53ZM296.04 212.66H281.25V244.62C284.99 244.96 290.487 245.13 297.74 245.13C311.68 245.13 318.65 239.633 318.65 228.64C318.65 217.987 311.113 212.66 296.04 212.66ZM292.64 164.21C289.013 164.21 285.217 164.493 281.25 165.06V193.62H291.28C305.787 193.62 313.04 188.52 313.04 178.32C313.04 173.56 311.51 170.047 308.45 167.78C305.503 165.4 300.233 164.21 292.64 164.21ZM389.484 145.34V220.48C389.484 228.527 391.241 234.76 394.754 239.18C398.381 243.6 403.481 245.81 410.054 245.81C416.628 245.81 421.671 243.6 425.184 239.18C428.811 234.76 430.624 228.527 430.624 220.48V145.34H455.614V221.5C455.614 235.78 451.534 246.83 443.374 254.65C435.214 262.357 424.108 266.21 410.054 266.21C396.001 266.21 384.894 262.357 376.734 254.65C368.574 246.83 364.494 235.78 364.494 221.5V145.34H389.484ZM506.355 264V248.02C506.355 239.973 505.845 233.457 504.825 228.47C503.805 223.37 501.992 218.327 499.385 213.34C494.965 204.953 489.639 193.96 483.405 180.36C477.285 166.76 472.752 155.087 469.805 145.34H496.665C501.425 162.453 506.865 177.47 512.985 190.39C516.385 197.643 518.369 202.233 518.935 204.16C519.729 201.553 521.655 196.963 524.715 190.39C530.835 177.47 536.275 162.453 541.035 145.34H567.895C564.949 155.087 560.359 166.76 554.125 180.36C548.005 193.96 542.735 204.953 538.315 213.34C533.669 222.52 531.345 234.08 531.345 248.02V264H506.355ZM663.405 264H575.855V245.64C587.075 233.173 598.068 219.63 608.835 205.01C619.715 190.39 628.101 177.47 633.995 166.25H578.065V145.34H663.235V152.14C663.235 157.353 661.761 163.36 658.815 170.16C654.848 179.113 648.218 190.163 638.925 203.31C629.745 216.457 619.488 229.717 608.155 243.09H663.405V264Z" fill="white"/>
<path d="M686.723 82.3646C701.235 78.1487 715.677 79.7436 726.235 85.6438L735.37 83.1415L740.78 102.016C740.997 102.61 741.197 103.215 741.375 103.83C741.569 104.498 741.734 105.168 741.876 105.841L741.891 105.891L741.887 105.892C745.764 124.36 730.49 144.334 706.715 151.24C682.346 158.319 658.17 149.019 652.271 130.448L652.259 130.446L645.659 107.708L655.904 104.903C661.873 94.8728 672.852 86.3944 686.723 82.3646Z" fill="white"/>
<path d="M652.95 112.587C655.583 114.907 658.283 117.136 661.182 119.116C662.636 120.109 664.124 121.051 665.64 121.948C667.125 122.828 668.649 123.633 670.155 124.477C672.185 125.615 674.212 126.87 676.395 127.698C676.432 128.043 676.473 128.388 676.52 128.732C676.695 130.026 678.173 131.651 678.444 132.928C679.02 135.635 678.487 137.971 679.295 140.616C680.133 143.367 681.064 146.088 681.999 148.808C682.498 150.263 682.997 151.717 683.485 153.177C668.479 151.239 656.239 142.943 652.272 130.449L652.26 130.447L645.66 107.709L647.403 107.231C649.171 109.098 651.02 110.887 652.95 112.587Z" fill="#EBEBEC"/>
<path d="M686.723 82.3646C701.235 78.1487 715.677 79.7436 726.235 85.6438L735.37 83.1415L740.78 102.016C740.997 102.61 741.197 103.215 741.375 103.83C741.569 104.498 741.734 105.168 741.876 105.841L741.891 105.891L741.887 105.892C742.865 110.549 742.623 115.302 741.336 119.915C741.236 118.988 741.115 118.061 740.966 117.136C740.097 111.74 738.359 106.579 736.355 101.51C735.225 98.652 733.208 93.9242 729.341 94.7617C727.029 95.2625 725.334 97.3198 723.993 99.1275C722.447 101.213 721.193 103.517 719.564 105.54C718.583 106.759 717.389 107.838 716.243 108.899C714.973 110.077 713.655 111.201 712.295 112.273C709.653 114.355 706.856 116.236 703.947 117.923C697.733 121.527 691.015 124.209 684.136 126.239C680.908 127.191 677.626 128.061 674.318 128.689C672.187 129.093 670.023 129.33 667.936 129.946C666.053 130.502 663.998 131.415 663.051 133.253C661.994 135.303 662.607 137.81 663.379 139.846C664.282 142.23 665.589 144.474 667.055 146.552C667.653 147.399 668.326 148.19 669.054 148.93C660.961 144.952 654.857 138.591 652.271 130.446L652.258 130.444L645.659 107.705L655.904 104.9C661.873 94.8728 672.852 86.3944 686.723 82.3646Z" fill="white"/>
<path d="M729.91 104.584C730.23 108.088 728.46 111.292 726.703 114.178C724.925 117.098 722.831 120.045 722.171 123.469C721.814 125.328 722.004 127.281 722.212 129.149C722.46 131.389 722.874 133.653 723.685 135.764C724.277 137.306 725.124 139.067 726.716 139.774C727.061 139.928 727.418 140.027 727.781 140.084C722.051 144.952 714.885 148.869 706.714 151.242C706.667 151.256 706.621 151.267 706.574 151.281C706.829 151.115 707.081 150.942 707.324 150.761C708.758 149.694 710.014 148.388 711.008 146.901C711.971 145.461 712.69 143.834 713.005 142.124C713.317 140.438 713.223 138.684 712.662 137.058C712.36 136.183 711.934 135.355 711.408 134.596C710.921 133.892 710.359 133.274 709.612 132.843C708.173 132.012 706.428 131.944 704.813 132.035C703.119 132.128 701.445 132.403 699.749 132.466C697.697 132.543 695.638 132.518 693.593 132.329C693.413 132.312 693.233 132.292 693.053 132.273C691.239 131.872 689.456 131.337 687.728 130.629C688.018 130.513 688.309 130.396 688.6 130.284C691.81 129.044 695.091 128.002 698.349 126.893C701.542 125.807 704.716 124.644 707.752 123.165C710.921 121.621 713.848 119.694 716.615 117.513C719.287 115.407 721.832 113.077 723.99 110.434C725.875 108.127 727.341 105.346 729.741 103.512C729.816 103.865 729.877 104.223 729.91 104.584Z" fill="white"/>
<path d="M716.784 142.769C717.291 141.371 717.188 139.762 716.938 138.321C716.682 136.847 716.195 135.417 715.647 134.028C715.193 132.877 714.57 131.773 713.67 130.911C712.856 130.13 711.853 129.609 710.773 129.321C711.301 129.103 711.811 128.845 712.305 128.56C714.495 127.297 716.451 125.513 718.909 124.781C718.615 125.556 718.092 126.226 717.683 126.939C717.216 127.753 716.954 128.628 716.954 129.571C716.956 130.441 717.137 131.305 717.347 132.146C717.551 132.958 717.767 133.768 717.98 134.576C718.319 135.867 718.661 137.167 719.196 138.393C719.683 139.508 720.345 140.58 721.336 141.312C721.723 141.598 722.142 141.811 722.581 141.97C722.507 142.024 722.432 142.078 722.359 142.134C720.013 143.885 717.558 145.828 714.619 146.393C715.305 145.163 716.298 144.11 716.784 142.769Z" fill="white"/>
<path d="M646.075 109.089C640.555 90.0698 656.072 68.8441 680.734 61.6802C705.396 54.5162 729.863 64.1267 735.383 83.1459C740.903 102.165 725.386 123.391 700.724 130.555C676.062 137.719 651.595 128.108 646.075 109.089Z" fill="#C7C8CA"/>
<path d="M700.257 128.991C724.582 121.926 740.009 101.181 735.131 82.3663C735.214 82.6232 735.294 82.8818 735.37 83.1429C740.89 102.163 725.372 123.389 700.71 130.553C676.047 137.717 651.578 128.106 646.059 109.086C645.983 108.825 645.913 108.564 645.845 108.302C651.798 126.805 675.932 136.057 700.257 128.991Z" fill="#A4A7A9"/>
<path opacity="0.42" d="M650.357 107.843C645.358 90.62 659.41 71.3986 681.743 64.9111C704.077 58.4235 726.234 67.1266 731.232 84.35C736.231 101.573 722.179 120.795 699.846 127.282C677.513 133.77 655.356 125.067 650.357 107.843Z" fill="#A4A7A9"/>
<path d="M661.544 102.266C658.099 90.3968 667.783 77.1505 683.173 72.6797C698.564 68.2089 713.833 74.2066 717.278 86.0759C720.723 97.9452 711.039 111.191 695.649 115.662C680.258 120.133 664.989 114.135 661.544 102.266Z" fill="#A4A7A9"/>
<path d="M666.341 100.8C663.415 90.7183 671.7 79.4499 684.846 75.6311C697.992 71.8123 711.021 76.8892 713.947 86.9707C716.873 97.0522 708.588 108.321 695.442 112.139C682.296 115.958 669.267 110.881 666.341 100.8Z" fill="#4B4C45"/>
<path d="M669.56 99.8614C667.095 91.368 674.074 81.8748 685.149 78.6577C696.224 75.4407 707.2 79.718 709.665 88.2114C712.13 96.7048 705.151 106.198 694.076 109.415C683.001 112.632 672.025 108.355 669.56 99.8614Z" fill="#8B8A7E"/>
<path d="M709.652 88.2103C710.433 90.9002 710.264 93.6897 709.321 96.3494C704.529 92.5952 697.008 91.2916 689.441 93.4904C681.873 95.6895 676.22 100.819 674.183 106.556C671.962 104.816 670.326 102.551 669.545 99.8614C667.081 91.3677 674.06 81.8741 685.135 78.6567C696.211 75.4393 707.188 79.7167 709.652 88.2103Z" fill="#8B8A7E"/>
<path opacity="0.44" d="M689.44 93.4907C697.009 91.2929 704.529 92.5953 709.319 96.3497C707.283 102.087 701.63 107.218 694.061 109.415C686.494 111.614 678.973 110.311 674.182 106.556C676.219 100.817 681.873 95.6883 689.44 93.4907Z" fill="#A4A7A9"/>
<path d="M648.955 181.408L645.824 178.866L647.1 175.041L643.965 172.504L645.236 168.675L642.097 166.141L643.364 162.31L640.225 159.778L641.49 155.947L641.396 155.871C650.369 138.571 678.393 132.9 678.393 132.9L683.857 153.182C683.857 153.182 672.871 155.611 663.626 161.034C654.417 166.435 650.947 179.371 649.68 186.873L647.668 185.23L648.955 181.408Z" fill="white"/>
<path d="M641.492 155.948L640.227 159.779L643.366 162.311L642.099 166.142L645.238 168.676L643.967 172.505L647.102 175.042L645.826 178.867L648.957 181.408L647.673 185.232L649.685 186.875C649.666 186.985 649.648 187.093 649.63 187.202L647.338 185.33L648.622 181.508L645.491 178.966L646.766 175.141L643.631 172.606L644.902 168.777L641.763 166.243L643.03 162.412L639.891 159.88L640.815 157.085C641 156.676 641.193 156.272 641.399 155.876L641.492 155.948Z" fill="white"/>
<path d="M654.068 169.136C653.863 166.129 652.348 163.458 651.418 160.648C650.801 158.781 650.264 156.883 649.478 155.079C648.802 153.527 647.9 151.852 646.38 150.986C645.925 150.726 645.451 150.578 644.97 150.513C648.289 146.633 652.559 143.508 656.927 141.032C656.148 141.896 655.458 142.862 655.003 143.935C654.473 145.187 654.343 146.554 654.487 147.901C654.662 149.534 655.14 151.112 655.519 152.704C655.667 153.327 655.849 153.942 656.024 154.557C656.22 155.244 656.427 155.928 656.671 156.599C657.126 157.851 657.701 159.147 658.666 160.091C659.103 160.517 659.617 160.839 660.202 161.016C660.803 161.199 661.441 161.244 662.065 161.214C662.582 161.188 663.089 161.118 663.588 161.017C663.577 161.024 663.566 161.031 663.553 161.038C658.588 163.95 655.292 169.054 653.108 174.315C653.645 172.622 654.19 170.93 654.068 169.136Z" fill="white"/>
</svg>
