<svg width="861" height="304" viewBox="0 0 861 304" fill="none" xmlns="http://www.w3.org/2000/svg">
<path d="M206.69 140.276H206.687L206.69 140.277V140.276Z" fill="#BA865A"/>
<path d="M117.925 170.899L117.896 170.887V260.529L117.925 260.541L206.692 229.92L206.689 140.28L117.925 170.899Z" fill="#A26C45"/>
<path d="M117.925 170.899L117.896 170.887L135.811 222.671L206.692 189.754L206.689 140.28L117.925 170.899Z" fill="#DEAC7A"/>
<path d="M38.7873 137.173H38.7851L38.7837 226.814L117.896 260.529V170.887L38.7873 137.173Z" fill="#D09565"/>
<path d="M38.7873 137.173H38.7851L38.7837 199.076L90.2021 225.293L117.896 170.887L38.7873 137.173Z" fill="#DEAC7A"/>
<path d="M206.693 140.279L206.689 140.277V140.28L206.693 140.279Z" fill="#DEAC7A"/>
<path d="M206.686 140.276L129.689 108.771L38.7837 137.172L38.7873 137.173L117.896 170.887L117.925 170.899L206.689 140.28V140.277L206.686 140.276Z" fill="#DEAC7A"/>
<path d="M129.689 108.771L38.7837 137.172L38.7873 137.173L117.896 170.887L117.925 170.899L127.676 167.712L129.689 108.771Z" fill="#BA865A"/>
<path d="M129.689 108.771L38.7837 137.172L38.7873 137.173L117.896 170.887L117.925 170.899L127.676 167.712L129.689 108.771Z" fill="#BA865A"/>
<path d="M38.7872 137.173L11.7676 89.2531L105.889 65.3664L129.689 108.771L38.7872 137.173Z" fill="#D09565"/>
<path d="M38.7872 137.173L117.925 170.899L82.6492 214.661L5.08618 178.393L38.7872 137.173Z" fill="#DEAC7A"/>
<path d="M129.689 108.771L206.689 140.277L243.295 106.732L145.106 70.9011L129.689 108.771Z" fill="#D09565"/>
<path d="M206.689 140.277L117.925 170.899L149.754 205.775L236.323 168.779L206.689 140.277Z" fill="#D09565"/>
<path opacity="0.52" d="M173.659 143.824C163.908 140.174 153.868 137.253 143.591 135.544C132.898 133.765 122.06 133.437 111.28 134.574C100.656 135.695 90.2085 138.132 80.011 141.283C74.1437 143.095 68.3561 145.146 62.6165 147.329L117.897 170.887L117.925 170.899L184.153 148.054C180.687 146.566 177.192 145.146 173.659 143.824Z" fill="#DEAC7A"/>
<path opacity="0.51" d="M85.4789 87.9506C88.7912 86.922 92.0641 85.582 95.0444 83.7414C98.1997 81.7936 101.052 79.2647 103.041 76.2496C104.76 73.7314 105.236 70.3178 101.05 70.3602C95.3306 70.7918 89.6269 72.3634 84.0106 73.5746C72.1412 76.4143 60.2696 79.2417 48.5271 82.4467C47.2583 82.833 45.9657 83.2617 44.8647 83.8529C42.487 85.0138 41.4125 87.3572 43.7121 88.9489C44.9773 89.8652 46.602 90.3097 48.1262 90.6528C51.0605 91.2815 54.0774 91.6634 57.1057 91.8324C66.634 92.2863 76.272 90.5967 85.3971 87.975L85.4789 87.9506Z" fill="#D09565"/>
<path opacity="0.51" d="M39.7685 89.8767C40.6271 87.4291 37.6246 85.9733 35.6298 85.8985C33.2923 85.81 30.1793 86.9098 28.5898 88.6554C28.0217 89.279 27.6014 90.1522 27.8517 90.9607C28.7397 93.8198 33.7685 93.0825 35.9454 92.6006C37.4826 92.259 39.204 91.4821 39.7685 89.8767Z" fill="#D09565"/>
<path opacity="0.51" d="M162.954 96.6105C171.793 100.081 181.23 102.67 190.759 103.117C193.789 103.234 196.829 103.139 199.809 102.789C201.359 102.591 203.018 102.301 204.364 101.508C206.803 100.14 205.952 97.7067 203.694 96.3264C202.653 95.6337 201.407 95.0849 200.18 94.5815C188.79 90.2839 177.235 86.3502 165.685 82.405C160.207 80.6694 154.676 78.567 149.022 77.5989C144.859 77.1616 145.013 80.6054 146.489 83.2746C148.186 86.4631 150.789 89.2503 153.747 91.4865C156.543 93.5997 159.676 95.2425 162.877 96.5781L162.954 96.6105Z" fill="#D09565"/>
<path opacity="0.51" d="M211.755 105.874C213.878 106.559 218.815 107.767 219.967 105.004C220.292 104.223 219.955 103.315 219.448 102.639C218.029 100.752 215.033 99.3638 212.697 99.2315C210.704 99.1186 207.578 100.285 208.204 102.802C208.615 104.454 210.256 105.39 211.755 105.874Z" fill="#D09565"/>
<mask id="mask0_2_269" style="mask-type:luminance" maskUnits="userSpaceOnUse" x="5" y="46" width="203" height="131">
<path d="M207.981 145.436L202.512 50.9092C192.378 36.3959 83.6286 57.1251 38.3759 73.3719C-9.33711 90.5019 3.82413 149.678 18.6831 156.064L40.0787 142.332L40.0823 142.334L119.191 176.046L119.22 176.058L207.983 145.439V145.436H207.981Z" fill="white"/>
</mask>
<g mask="url(#mask0_2_269)">
<path d="M165.257 168.738L86.0558 195.771C82.3009 197.053 78.221 195.04 76.9429 191.274L45.2982 98.0426C44.02 94.2773 46.0284 90.1861 49.7826 88.9044L128.984 61.8715C132.739 60.5898 136.819 62.603 138.097 66.3684L169.742 159.599C171.02 163.366 169.012 167.457 165.257 168.738Z" fill="#C2CAD3"/>
<path d="M133.868 70.9291L51.4264 99.065L82.2905 190.003L164.732 161.867L133.868 70.9291Z" fill="#72787E"/>
<path d="M133.159 72.3436L52.8475 99.7525L82.9141 188.341L163.225 160.932L133.159 72.3436Z" fill="#FFFDED"/>
<path d="M108.816 90.2242L83.0102 99.0324C79.8607 100.107 76.5383 98.7418 75.6044 95.9891L72.5137 86.8833C71.5791 84.1306 73.3808 81.0162 76.5304 79.9409L102.336 71.1328C105.486 70.0582 108.808 71.4234 109.742 74.176L112.833 83.2819C113.768 86.0352 111.966 89.1497 108.816 90.2242ZM77.2376 82.0246C75.2343 82.7086 74.0472 84.5701 74.5916 86.1741L77.6823 95.2799C78.2267 96.8839 80.2997 97.6327 82.3037 96.9486L108.11 88.1405C110.113 87.4565 111.3 85.5951 110.756 83.9911L107.665 74.8852C107.121 73.2812 105.048 72.5325 103.044 73.2165L77.2376 82.0246Z" fill="#4D7DBF"/>
<path d="M101.406 67.6544L75.1544 76.6135L78.8669 87.5519L105.118 78.5928L101.406 67.6544Z" fill="#355162"/>
<path d="M135.132 99.6171L78.2827 119.021C77.9549 119.133 77.5984 118.957 77.4872 118.628C77.3753 118.299 77.5511 117.942 77.8788 117.83L134.728 98.4267C135.056 98.3145 135.412 98.4907 135.523 98.8195C135.635 99.1474 135.459 99.5049 135.132 99.6171Z" fill="#8DA1A3"/>
<path d="M140.706 116.039L83.8581 135.443C83.5303 135.555 83.1738 135.379 83.0627 135.05C82.9508 134.722 83.1265 134.364 83.4543 134.253L140.302 114.849C140.63 114.737 140.987 114.913 141.098 115.242C141.209 115.57 141.034 115.928 140.706 116.039Z" fill="#8DA1A3"/>
<path d="M146.28 132.462L89.4312 151.866C89.1034 151.977 88.7469 151.802 88.6358 151.473C88.5239 151.145 88.6996 150.787 89.0274 150.676L145.876 131.272C146.204 131.16 146.561 131.336 146.672 131.665C146.784 131.993 146.608 132.35 146.28 132.462Z" fill="#8DA1A3"/>
<path d="M151.855 148.885L95.0059 168.288C94.6781 168.4 94.3217 168.224 94.2105 167.895C94.0986 167.567 94.2743 167.209 94.6021 167.098L151.451 147.694C151.779 147.582 152.135 147.758 152.246 148.087C152.358 148.416 152.183 148.772 151.855 148.885Z" fill="#8DA1A3"/>
<path d="M70.6389 114.522L63.0961 117.096L65.6632 124.66L73.206 122.086L70.6389 114.522Z" fill="#C9E6D5"/>
<path d="M76.1657 130.805L68.6229 133.379L71.19 140.943L78.7328 138.369L76.1657 130.805Z" fill="#C9E6D5"/>
<path d="M81.6922 147.088L74.1494 149.663L76.7165 157.226L84.2593 154.652L81.6922 147.088Z" fill="#C9E6D5"/>
<path d="M87.2188 163.372L79.676 165.946L82.2431 173.51L89.7859 170.935L87.2188 163.372Z" fill="#C9E6D5"/>
</g>
<mask id="mask1_2_269" style="mask-type:luminance" maskUnits="userSpaceOnUse" x="5" y="46" width="203" height="131">
<path d="M207.981 145.436L202.512 50.9092C192.378 36.3959 83.6286 57.1251 38.3759 73.3719C-9.33711 90.5019 3.82413 149.678 18.6831 156.064L40.0787 142.332L40.0823 142.334L119.191 176.046L119.22 176.058L207.983 145.439V145.436H207.981Z" fill="white"/>
</mask>
<g mask="url(#mask1_2_269)">
<path d="M161.126 91.7146L160.624 81.9786L151.634 76.8905L152.431 92.3338L161.126 91.7146Z" fill="#396925"/>
<path d="M155.598 102.998L155.6 103.026L157.257 102.926L158.915 102.854L158.914 102.826L176.08 101.796L175.728 96.6257C175.728 96.6257 164.619 96.1143 162.312 91.0456L161.464 87.8262L158.148 87.9981L154.832 88.17L151.516 88.3419L151.004 91.6318C149.23 96.912 138.234 98.5706 138.234 98.5706L138.416 103.749L155.598 102.998Z" fill="#B9D542"/>
<path d="M142.853 200.078L181.833 198.055L176.736 99.3191L137.756 101.343L142.853 200.078Z" fill="#7CC24F"/>
<path d="M142.853 200.078L157.003 199.343L151.906 100.607L137.756 101.342L142.853 200.078Z" fill="#7CC24F"/>
<path opacity="0.53" d="M175.148 189.068C175.148 189.068 178.76 191.208 178.752 185.622C178.744 180.036 176.843 116.044 173.363 119.173C169.882 122.303 173.151 182.963 175.148 189.068Z" fill="#B9D542"/>
<path opacity="0.53" d="M171.513 112.809C171.614 113.431 171.881 114.124 172.43 114.553C173.004 115.002 173.806 114.93 174.399 114.525C175.067 114.069 175.301 113.336 175.356 112.633C175.406 111.999 175.355 111.359 175.211 110.738C175.196 110.511 175.171 110.285 175.13 110.064C175.041 109.571 174.804 109.01 174.33 108.706C173.75 108.335 173.007 108.472 172.483 108.872C171.841 109.362 171.672 110.082 171.566 110.781C171.462 111.45 171.403 112.139 171.513 112.809Z" fill="#B9D542"/>
<path d="M157.782 108.214C163.398 107.922 168.23 112.292 168.521 117.923L171.595 177.513C171.885 183.145 167.528 187.99 161.912 188.282C156.296 188.573 151.464 184.203 151.173 178.572L148.099 118.983C147.808 113.351 152.165 108.505 157.782 108.214Z" fill="#B9D542"/>
</g>
<mask id="mask2_2_269" style="mask-type:luminance" maskUnits="userSpaceOnUse" x="5" y="46" width="203" height="131">
<path d="M207.981 145.436L202.512 50.9092C192.378 36.3959 83.6286 57.1251 38.3759 73.3719C-9.33711 90.5019 3.82413 149.678 18.6831 156.064L40.0787 142.332L40.0823 142.334L119.191 176.046L119.22 176.058L207.983 145.439V145.436H207.981Z" fill="white"/>
</mask>
<g mask="url(#mask2_2_269)">
<path d="M94.4243 102.172C91.6026 99.0503 88.9939 96.2517 87.4395 94.7937C86.6728 94.0745 86.2826 93.9464 85.3838 94.1651C84.5662 94.3636 84.3338 95.5482 84.3338 95.5482C84.3338 95.5482 83.1022 99.9408 81.6354 105.28L94.4243 102.172Z" fill="#1F2F3D"/>
<path d="M81.1232 103.625C78.9169 111.66 76.2178 121.699 76.3871 122.121C76.6704 122.831 78.5497 126.179 82.1561 125.043C85.7619 123.907 89.067 125.093 93.7365 123.007C98.4066 120.921 102.163 121.478 105.021 119.745C108.185 117.827 106.687 114.757 106.687 114.757C106.687 114.757 99.9854 106.961 94.1217 100.466L81.1232 103.625Z" fill="#AFB7C7"/>
<path d="M82.1554 125.042C83.7965 124.525 85.3752 124.489 87.0486 124.407C87.1103 122.879 87.144 121.35 87.1576 119.822C87.1828 117.13 87.1584 114.438 87.1691 111.745C87.1799 109.026 87.2595 106.308 87.3391 103.59C87.3535 103.093 87.3735 102.597 87.3929 102.1L81.1225 103.624C78.9162 111.66 76.2171 121.698 76.3864 122.121C76.6697 122.831 78.5497 126.179 82.1554 125.042Z" fill="#AFB7C7"/>
<path d="M99.5359 217.929L129.837 210.563L106.676 114.753L76.3747 122.118L99.5359 217.929Z" fill="#485C7A"/>
<path d="M99.537 217.928L110.536 215.254L87.375 119.444L76.3758 122.118L99.537 217.928Z" fill="#2D3B52"/>
<path d="M122.831 202.706C122.831 202.706 126.091 204.298 125.001 198.839C123.911 193.38 110.006 131.091 107.872 134.631C105.738 138.171 120.076 197.016 122.831 202.706Z" fill="#485C7A"/>
<path d="M105.18 128.666C105.38 129.259 105.725 129.9 106.24 130.243C106.78 130.604 107.396 130.422 107.785 129.944C108.223 129.406 108.265 128.657 108.172 127.963C108.088 127.336 107.924 126.718 107.691 126.13C107.635 125.911 107.571 125.693 107.497 125.483C107.331 125.014 107.035 124.498 106.603 124.266C106.075 123.984 105.516 124.22 105.181 124.683C104.77 125.251 104.777 125.978 104.828 126.676C104.878 127.345 104.964 128.027 105.18 128.666Z" fill="#485C7A"/>
<path d="M87.5924 154.91C90.1903 154.278 92.8313 155.894 93.4618 158.499L106.07 210.663C106.7 213.268 105.089 215.917 102.491 216.549C99.8929 217.18 97.2511 215.565 96.6214 212.96L84.0132 160.796C83.3834 158.19 84.9944 155.541 87.5924 154.91Z" fill="#716D69"/>
<path d="M86.0481 155.18C88.646 154.548 91.2878 156.163 91.9175 158.769L104.473 210.715C105.103 213.321 103.493 215.969 100.894 216.6C98.2962 217.232 95.6545 215.617 95.0247 213.011L82.4689 161.065C81.8391 158.459 83.4494 155.811 86.0481 155.18Z" fill="#ACA49E"/>
</g>
<mask id="mask3_2_269" style="mask-type:luminance" maskUnits="userSpaceOnUse" x="5" y="46" width="203" height="131">
<path d="M207.981 145.436L202.512 50.9092C192.378 36.3959 83.6286 57.1251 38.3759 73.3719C-9.33711 90.5019 3.82413 149.678 18.6831 156.064L40.0787 142.332L40.0823 142.334L119.191 176.046L119.22 176.058L207.983 145.439V145.436H207.981Z" fill="white"/>
</mask>
<g mask="url(#mask3_2_269)">
<path d="M145.245 207.255L174.92 216.841L205.061 123.012L175.386 113.427L145.245 207.255Z" fill="#D51E20"/>
<path d="M145.246 207.255L161.401 212.473L191.542 118.644L175.387 113.426L145.246 207.255Z" fill="#F68921"/>
<path d="M154.143 210.13L166.334 214.068L196.475 120.239L184.284 116.301L154.143 210.13Z" fill="#008BCB"/>
<path d="M184.275 116.289L154.134 210.118L159.219 211.761L189.36 117.932L184.275 116.289Z" fill="#003F65"/>
<path d="M205.064 123.001C205.064 123.001 204.742 126.404 201.046 126.382C197.707 126.363 196.316 122.559 196.478 120.227C196.478 120.227 194.793 123.92 189.724 123.254C184.655 122.588 184.286 116.288 184.286 116.288C184.286 116.288 182.454 119.846 178.787 118.927C175.12 118.007 175.261 114.167 175.389 113.414C175.517 112.661 196.602 93.0725 196.602 93.0725C196.602 93.0725 197.415 92.1871 198.212 92.4446C199.089 92.728 199.355 93.0402 199.633 94.0515C201.383 100.409 205.064 123.001 205.064 123.001Z" fill="#E9C290"/>
<path d="M191.83 100.259C192.716 100.956 193.681 101.558 194.693 102.053C195.705 102.548 196.779 102.94 197.887 103.152C198.886 103.344 199.941 103.383 200.93 103.114C201.139 103.057 201.342 102.983 201.538 102.896C200.832 99.2021 200.15 95.9237 199.635 94.0522C199.356 93.0409 199.091 92.7287 198.214 92.4453C197.416 92.1878 196.603 93.0733 196.603 93.0733C196.603 93.0733 193.868 95.6144 190.362 98.9007C190.807 99.3985 191.309 99.848 191.83 100.259Z" fill="#3A4C5D"/>
<path d="M178.788 118.927C182.454 119.847 184.287 116.289 184.287 116.289C184.287 116.289 185.112 120.694 187.872 122.627C188.515 120.971 197.013 95.0706 198.004 92.4058C197.28 92.3396 196.604 93.0733 196.604 93.0733C196.604 93.0733 175.518 112.662 175.391 113.415C175.262 114.168 175.121 118.007 178.788 118.927Z" fill="#E9C290"/>
<path d="M173.031 206.46C173.031 206.46 174.981 209.525 176.895 204.298C178.809 199.072 199.388 138.67 195.725 140.571C192.062 142.473 173.644 200.164 173.031 206.46Z" fill="#EE3D4E"/>
<path d="M196.536 134.075C196.398 134.686 196.358 135.413 196.618 135.976C196.891 136.566 197.511 136.733 198.092 136.53C198.745 136.3 199.171 135.684 199.454 135.042C199.708 134.464 199.891 133.851 199.998 133.228C200.064 133.011 200.122 132.792 200.169 132.573C200.272 132.086 200.288 131.491 200.04 131.068C199.736 130.55 199.138 130.459 198.61 130.679C197.964 130.948 197.591 131.571 197.272 132.193C196.966 132.79 196.685 133.416 196.536 134.075Z" fill="#EE3D4E"/>
</g>
<mask id="mask4_2_269" style="mask-type:luminance" maskUnits="userSpaceOnUse" x="5" y="46" width="203" height="131">
<path d="M207.981 145.436L202.512 50.9092C192.378 36.3959 83.6286 57.1251 38.3759 73.3719C-9.33711 90.5019 3.82413 149.678 18.6831 156.064L40.0787 142.332L40.0823 142.334L119.191 176.046L119.22 176.058L207.983 145.439V145.436H207.981Z" fill="white"/>
</mask>
<g mask="url(#mask4_2_269)">
<path d="M118.683 215.668L127.871 161.411L127.932 161.326C130.399 161.624 133.655 161.011 136.062 161.631C135.002 168.69 130.471 194.267 128.518 202.932C126.228 213.098 121.48 218.723 119.633 217.958C117.785 217.194 118.683 215.668 118.683 215.668Z" fill="#989E9C"/>
<path d="M122.16 208.409C122.922 204.198 123.719 199.993 124.498 195.786C125.281 191.558 126.093 187.336 126.946 183.12C127.372 181.012 127.805 178.906 128.234 176.799C128.655 174.734 128.98 172.653 129.29 170.569C129.745 167.505 130.167 164.426 130.813 161.394C129.802 161.423 128.816 161.433 127.933 161.326L127.872 161.411L118.684 215.668C118.684 215.668 117.786 217.194 119.634 217.958C119.881 218.061 120.182 218.045 120.522 217.923C121.033 214.746 121.587 211.575 122.16 208.409Z" fill="#7A7F7E"/>
<path d="M143.964 129.938C144.113 129.381 144.242 128.826 144.352 128.271C144.501 127.632 144.584 127.276 144.584 127.276L144.536 127.253C145.905 118.716 142.88 110.761 136.399 107.716C128.051 103.795 117.132 109.505 112.009 120.47C106.887 131.435 109.502 143.502 117.85 147.424C120.072 148.468 122.347 149.695 124.014 151.544C125.561 153.26 126.06 155.595 126.257 157.834C126.323 158.595 125.786 165.427 126.417 165.639C130.148 166.897 135.9 167 135.9 167C137.601 161.183 142.159 137.675 143.964 129.938ZM117.402 123.323C121.126 115.351 128.658 111.009 134.226 113.624C139.793 116.239 141.288 124.822 137.564 132.794C133.84 140.766 126.308 145.108 120.74 142.493C115.172 139.879 113.678 131.296 117.402 123.323Z" fill="#EE2A25"/>
<path opacity="0.43" d="M141.795 140.028C140.537 141.396 139.312 142.795 138.107 144.21C136.331 146.298 134.593 148.419 132.836 150.522C131.114 152.584 129.341 154.601 127.655 156.691C127.186 157.274 126.719 157.86 126.255 158.446C126.199 160.322 125.871 165.455 126.416 165.639C130.147 166.897 135.899 167 135.899 167C137.1 162.897 139.721 149.992 141.795 140.028Z" fill="#AC121B"/>
<path opacity="0.88" d="M127.507 110.236C127.622 109.965 127.699 109.648 127.591 109.363C127.5 109.124 127.29 108.962 127.065 108.856C126.632 108.652 126.131 108.597 125.641 108.605C125.345 108.722 125.052 108.842 124.762 108.971C123.781 109.408 122.832 109.911 121.943 110.515C120.941 111.195 120.014 111.981 119.149 112.829C117.317 114.624 115.691 116.65 114.413 118.878C113.374 120.689 112.522 122.618 111.918 124.619C111.659 125.475 111.443 126.354 111.356 127.246C111.288 127.947 111.288 128.727 111.589 129.381C111.728 129.258 111.859 129.127 111.977 128.984C112.686 128.124 113.086 127.028 113.458 125.992C113.845 124.913 114.175 123.8 114.689 122.773C115.284 121.586 116.044 120.459 116.851 119.407C117.696 118.306 118.634 117.278 119.639 116.321C120.126 115.857 120.627 115.408 121.143 114.976C121.542 114.643 121.981 114.361 122.425 114.093C123.422 113.492 124.465 112.967 125.441 112.329C126.255 111.798 127.112 111.16 127.507 110.236Z" fill="#E96920"/>
<path opacity="0.88" d="M129.937 109.017C129.853 109.093 129.79 109.185 129.756 109.293C129.634 109.673 129.802 110.105 130.096 110.374C130.748 110.974 131.796 110.958 132.465 110.398C132.651 110.242 132.812 110.044 132.89 109.814C132.952 109.63 132.942 109.429 132.825 109.265C132.43 108.714 130.57 108.444 129.937 109.017Z" fill="#E96920"/>
<path d="M100.158 206.967L135.847 165.157L135.873 165.057C134.065 163.346 132.45 160.445 130.435 158.988C125.706 164.323 109.009 184.186 103.62 191.236C97.2984 199.508 96.0266 206.766 97.7954 207.7C99.5642 208.635 100.158 206.967 100.158 206.967Z" fill="#989E9C"/>
<path d="M103.496 199.641C106.233 196.358 108.945 193.053 111.67 189.76C114.409 186.45 117.124 183.121 119.808 179.766C121.15 178.089 122.486 176.407 123.826 174.727C125.139 173.082 126.525 171.499 127.923 169.927C129.979 167.614 132.068 165.318 133.977 162.88C134.602 163.677 135.225 164.444 135.873 165.057L135.847 165.157L100.158 206.967C100.158 206.967 99.5643 208.635 97.7955 207.701C97.5588 207.576 97.378 207.333 97.2546 206.994C99.362 204.566 101.436 202.109 103.496 199.641Z" fill="#7A7F7E"/>
<path d="M126.426 162.551C126.426 162.551 130.187 166.916 133.539 168.985C134.104 169.335 138.995 164.548 139.62 164.112C141.461 162.83 143.57 161.72 145.876 161.813C148.359 161.914 150.755 162.881 152.978 163.925C161.326 167.846 172.245 162.136 177.367 151.171C182.489 140.206 179.874 128.138 171.527 124.217C165.045 121.172 157.014 123.935 151.349 130.453L151.302 130.431C151.302 130.431 151.082 130.722 150.687 131.247C150.333 131.687 149.991 132.142 149.659 132.613C144.886 138.956 129.794 157.516 126.426 162.551ZM154.905 158.542C149.338 155.927 147.843 147.344 151.567 139.372C155.291 131.4 162.823 127.058 168.391 129.673C173.958 132.288 175.452 140.871 171.729 148.843C168.005 156.815 160.473 161.157 154.905 158.542Z" fill="#EE2A25"/>
<path opacity="0.54" d="M151.568 139.372C154.708 132.651 160.555 128.51 165.649 128.944C164.541 128.711 163.397 128.637 162.275 128.697C160.242 128.806 158.297 129.493 156.594 130.602C154.876 131.72 153.423 133.214 152.217 134.865C151.15 136.325 150.227 137.926 149.573 139.615C148.991 141.121 148.607 142.704 148.407 144.306C148.204 145.928 148.192 147.583 148.432 149.202C148.656 150.715 149.108 152.216 149.889 153.537C150.315 154.255 150.841 154.907 151.451 155.467C148.917 151.568 148.798 145.303 151.568 139.372Z" fill="#E96920"/>
<path opacity="0.43" d="M171.992 158.101C169.037 160.775 165.358 162.893 161.285 162.944C157.188 162.995 153.384 161.206 149.592 159.892C148.649 159.564 147.7 159.228 146.708 159.085C145.826 158.957 144.928 158.974 144.052 159.138C142.362 159.457 140.832 160.319 139.47 161.346C138.721 161.911 138.013 162.531 137.328 163.172C136.482 163.965 135.634 164.753 134.779 165.536C133.895 166.344 133.008 167.168 132.179 168.044C132.633 168.387 133.09 168.707 133.539 168.984C134.104 169.334 138.995 164.547 139.62 164.111C141.462 162.829 143.57 161.719 145.876 161.813C148.359 161.913 150.755 162.881 152.978 163.924C160.849 167.621 171.006 162.755 176.434 152.995C175.158 154.869 173.657 156.593 171.992 158.101Z" fill="#AC121B"/>
<path opacity="0.88" d="M175.288 132.68C175.422 132.418 175.615 132.156 175.903 132.057C176.145 131.974 176.403 132.033 176.628 132.138C177.061 132.341 177.424 132.692 177.732 133.075C177.832 133.377 177.927 133.681 178.014 133.986C178.307 135.021 178.529 136.075 178.635 137.146C178.755 138.354 178.747 139.572 178.651 140.781C178.448 143.341 177.936 145.89 177.048 148.301C176.325 150.261 175.392 152.152 174.246 153.899C173.755 154.647 173.22 155.375 172.593 156.013C172.099 156.515 171.502 157.014 170.808 157.2C170.813 157.014 170.83 156.83 170.864 156.647C171.068 155.551 171.652 154.541 172.208 153.591C172.787 152.602 173.428 151.636 173.886 150.581C174.415 149.363 174.791 148.057 175.081 146.761C175.384 145.406 175.572 144.025 175.661 142.639C175.705 141.967 175.729 141.292 175.729 140.618C175.729 140.098 175.664 139.579 175.584 139.065C175.407 137.912 175.142 136.773 175.006 135.613C174.893 134.645 174.833 133.576 175.288 132.68Z" fill="#E96920"/>
<path opacity="0.88" d="M174.666 130.028C174.662 130.142 174.632 130.248 174.572 130.344C174.358 130.681 173.92 130.827 173.525 130.774C172.649 130.656 171.989 129.838 171.991 128.965C171.992 128.721 172.04 128.47 172.166 128.263C172.267 128.097 172.428 127.976 172.628 127.961C173.303 127.914 174.701 129.174 174.666 130.028Z" fill="#E96920"/>
<path d="M136.226 161.13C135.597 162.475 134.001 163.055 132.659 162.425C131.318 161.795 130.74 160.194 131.368 158.849C131.996 157.504 133.593 156.924 134.934 157.554C136.276 158.184 136.854 159.785 136.226 161.13Z" fill="#5E6463"/>
<path d="M135.373 160.419C134.957 161.311 133.899 161.695 133.01 161.277C132.121 160.86 131.738 159.799 132.155 158.908C132.571 158.016 133.629 157.632 134.518 158.05C135.406 158.468 135.789 159.529 135.373 160.419Z" fill="#989E9C"/>
</g>
<mask id="mask5_2_269" style="mask-type:luminance" maskUnits="userSpaceOnUse" x="5" y="46" width="203" height="131">
<path d="M207.981 145.436L202.512 50.9092C192.378 36.3959 83.6286 57.1251 38.3759 73.3719C-9.33711 90.5019 3.82413 149.678 18.6831 156.064L40.0787 142.332L40.0823 142.334L119.191 176.046L119.22 176.058L207.983 145.439V145.436H207.981Z" fill="white"/>
</mask>
<g mask="url(#mask5_2_269)">
<path d="M74.8218 82.9953L63.875 173.662L66.6593 174L77.6061 83.3333L74.8218 82.9953Z" fill="#CE6F1A"/>
<path d="M65.6638 87.1192L57.3507 105.233C55.2397 110.725 49.4219 110.018 49.4219 110.018L44.8816 109.467C41.5778 105.732 36.9557 103.144 31.6242 102.496C20.041 101.09 9.51431 109.366 8.11204 120.982C6.70977 132.598 14.9627 143.153 26.5467 144.56C32.0546 145.229 37.3215 143.704 41.4839 140.676L45.6598 141.183C45.6598 141.183 51.4776 141.89 52.2207 147.727L55.9828 167.308C55.9828 167.308 56.3364 172.68 61.0798 173.988L65.1539 174.377L76.2522 82.4483L72.2032 81.852C67.2863 81.9865 65.6638 87.1192 65.6638 87.1192ZM18.1409 122.449C18.8632 116.466 24.2858 112.203 30.2521 112.927C36.2184 113.651 40.4696 119.089 39.7474 125.072C39.0251 131.055 33.6025 135.318 27.6362 134.594C21.6699 133.869 17.4187 128.432 18.1409 122.449Z" fill="#FBB216"/>
<path d="M73.9757 86.6056L63.9102 169.982C63.8054 170.848 63.0207 171.465 62.1571 171.36C61.2935 171.255 60.6781 170.468 60.7828 169.602L70.8491 86.2258C70.9538 85.3598 71.7385 84.7427 72.6021 84.8477C73.465 84.9527 74.0804 85.7403 73.9757 86.6056Z" fill="#CE6F1A"/>
<path d="M52.4689 143.389C52.4689 143.389 62.7639 127.17 55.7117 110.342C55.7117 110.342 62.5573 113.419 61.9648 126.574C61.3724 139.728 52.4689 143.389 52.4689 143.389Z" fill="#CE6F1A"/>
<path d="M13.4916 121.635C12.4465 130.292 18.5978 138.16 27.2309 139.208C35.864 140.256 43.7102 134.087 44.7553 125.43C45.8004 116.773 39.6491 108.905 31.016 107.857C22.3821 106.809 14.5366 112.977 13.4916 121.635ZM42.9621 125.213C42.0318 132.918 35.0492 138.408 27.3658 137.475C19.6823 136.542 14.2074 129.54 15.1377 121.835C16.068 114.13 23.0506 108.64 30.7341 109.573C38.4175 110.505 43.8924 117.507 42.9621 125.213Z" fill="#CE6F1A"/>
<path d="M8.75182 121.06C7.39474 132.3 15.3816 142.515 26.5904 143.876C37.7992 145.236 47.9859 137.227 49.343 125.988C50.7001 114.748 42.7132 104.532 31.5044 103.172C20.2956 101.81 10.1089 109.819 8.75182 121.06ZM48.1789 125.846C46.8906 136.518 37.2189 144.121 26.5775 142.829C15.936 141.537 8.35301 131.839 9.64124 121.168C10.9295 110.496 20.6012 102.893 31.2426 104.184C41.8841 105.476 49.4671 115.174 48.1789 125.846Z" fill="#CE6F1A"/>
<path d="M59.4745 171.939C59.4745 171.939 56.8063 171.366 56.3745 166.696C55.9427 162.027 52.9674 145.445 52.9674 145.445C52.9674 145.445 58.073 142.321 59.8339 138.043C59.8339 138.043 59.0176 144.807 56.7101 146.398C54.4027 147.99 58.0471 167.273 59.9945 167.634L59.4745 171.939Z" fill="#FBB216"/>
<path d="M70.1633 83.3977C70.1633 83.3977 67.4355 83.3164 65.9056 87.7471C64.3749 92.1778 57.54 107.569 57.54 107.569C57.54 107.569 61.7547 111.824 62.4469 116.4C62.4469 116.4 63.2632 109.636 61.4011 107.539C59.5391 105.441 67.6672 87.5867 69.644 87.7018L70.1633 83.3977Z" fill="#FBB216"/>
<path d="M10.6268 119.187C10.6268 119.187 8.03381 132.161 18.6789 139.068C29.3239 145.975 38.6987 139.44 38.6987 139.44C38.6987 139.44 28.4094 144.273 20.2174 138.693C12.0254 133.113 11.7923 123.446 12.6695 118.499C13.5468 113.552 11.6575 115.288 10.6268 119.187Z" fill="#FBB216"/>
<path d="M43.5145 139.743C43.5145 139.743 50.0855 133.242 50.3831 126.914C50.3831 126.914 50.9799 129.7 50.1335 133.622C49.2864 137.543 53.0162 139.118 53.0162 139.118L51.3278 142.282C51.3278 142.282 47.5951 139.959 43.5145 139.743Z" fill="#FBB216"/>
</g>
<path d="M233.9 237.14V270.32C233.9 276.153 232.337 280.377 229.21 282.99C226.13 285.603 222.047 286.91 216.96 286.91C213.927 286.91 211.313 286.467 209.12 285.58V276.62C211.593 277.88 213.927 278.51 216.12 278.51C218.453 278.51 220.273 277.903 221.58 276.69C222.933 275.43 223.61 273.19 223.61 269.97V237.14H233.9ZM258.29 279C262.723 279 264.94 275.383 264.94 268.15C264.94 260.917 262.723 257.3 258.29 257.3C253.857 257.3 251.64 260.917 251.64 268.15C251.64 275.383 253.857 279 258.29 279ZM270.61 254.43C273.503 257.79 274.95 262.363 274.95 268.15C274.95 273.937 273.503 278.51 270.61 281.87C267.717 285.23 263.61 286.91 258.29 286.91C252.97 286.91 248.863 285.23 245.97 281.87C243.077 278.51 241.63 273.937 241.63 268.15C241.63 262.363 243.077 257.79 245.97 254.43C248.863 251.07 252.97 249.39 258.29 249.39C263.61 249.39 267.717 251.07 270.61 254.43ZM294.387 286.98C288.88 286.98 285.287 284.88 283.607 280.68C282.767 278.627 282.347 275.383 282.347 270.95V250.3H292.217V268.85C292.217 272.07 292.473 274.38 292.987 275.78C293.687 277.787 295.157 278.79 297.397 278.79C299.73 278.79 301.457 277.997 302.577 276.41C303.743 274.777 304.327 272.093 304.327 268.36V250.3H314.197V286H305.937C305.47 284.88 305.237 283.27 305.237 281.17C304.35 282.85 302.95 284.25 301.037 285.37C299.17 286.443 296.953 286.98 294.387 286.98ZM363.251 286H354.431C353.077 282.64 351.724 278.79 350.371 274.45C349.017 270.11 348.107 266.773 347.641 264.44C347.174 266.82 346.264 270.18 344.911 274.52C343.604 278.813 342.274 282.64 340.921 286H332.101C330.094 281.94 328.041 276.62 325.941 270.04C323.841 263.413 322.067 256.833 320.621 250.3H330.911C332.777 261.827 334.691 270.25 336.651 275.57C339.031 269.037 341.247 260.613 343.301 250.3H351.981C354.034 260.613 356.251 269.037 358.631 275.57C360.591 270.25 362.504 261.827 364.371 250.3H374.661C371.207 265.653 367.404 277.553 363.251 286ZM413.85 292.93H406.36C399.967 284.763 396.77 275.173 396.77 264.16C396.77 253.1 399.967 243.487 406.36 235.32H413.85C408.904 245.493 406.43 255.107 406.43 264.16C406.43 273.167 408.904 282.757 413.85 292.93ZM437.732 286H428.982C426.696 281.333 424.339 275.687 421.912 269.06C419.486 262.387 417.642 256.133 416.382 250.3H426.672C427.979 258.56 430.219 267.077 433.392 275.85C436.472 267.31 438.689 258.793 440.042 250.3H450.332C449.026 256.18 447.159 262.457 444.732 269.13C442.306 275.803 439.972 281.427 437.732 286ZM473.497 271.02L467.197 272.49C465.471 272.91 464.607 273.82 464.607 275.22C464.607 276.107 465.074 276.993 466.007 277.88C466.941 278.72 468.294 279.14 470.067 279.14C474.781 279.14 479.751 278.02 484.977 275.78V283.69C481.151 285.837 476.181 286.91 470.067 286.91C464.654 286.91 460.524 285.23 457.677 281.87C454.831 278.51 453.407 273.937 453.407 268.15C453.407 262.503 455.017 257.977 458.237 254.57C461.504 251.117 465.751 249.39 470.977 249.39C475.644 249.39 479.167 250.417 481.547 252.47C483.974 254.477 485.187 257.067 485.187 260.24C485.187 263.32 484.277 265.653 482.457 267.24C480.637 268.827 477.651 270.087 473.497 271.02ZM470.907 257.16C468.527 257.16 466.661 258.047 465.307 259.82C463.954 261.547 463.277 263.903 463.277 266.89V267.59C463.791 267.077 464.771 266.633 466.217 266.26L470.557 265.14C473.731 264.347 475.317 262.923 475.317 260.87C475.317 259.703 474.921 258.793 474.127 258.14C473.381 257.487 472.307 257.16 470.907 257.16ZM493.313 286V250.3H501.573C502.04 251.42 502.273 252.937 502.273 254.85C503.067 253.403 504.233 252.167 505.773 251.14C507.36 250.067 509.203 249.53 511.303 249.53C512.143 249.53 513.03 249.647 513.963 249.88V258.84C512.843 258.513 511.443 258.35 509.763 258.35C505.377 258.35 503.183 260.73 503.183 265.49V286H493.313ZM523.964 292.93H516.474C521.42 282.757 523.894 273.167 523.894 264.16C523.894 255.107 521.42 245.493 516.474 235.32H523.964C530.357 243.487 533.554 253.1 533.554 264.16C533.554 275.173 530.357 284.763 523.964 292.93ZM542.806 286V235.32H552.676V254.71C553.562 253.17 554.869 251.91 556.596 250.93C558.322 249.903 560.329 249.39 562.616 249.39C566.489 249.39 569.406 250.347 571.366 252.26C573.372 254.127 574.376 256.53 574.376 259.47C574.376 264.417 571.809 267.963 566.676 270.11C567.982 271.277 569.779 273.54 572.066 276.9C574.352 280.26 576.196 283.293 577.596 286H566.116C565.182 284.087 563.759 281.707 561.846 278.86C559.979 275.967 558.392 273.82 557.086 272.42L555.686 272.77C554.472 273.05 553.656 273.82 553.236 275.08C552.862 276.293 552.676 277.973 552.676 280.12V286H542.806ZM564.506 260.59C564.506 258.35 563.269 257.23 560.796 257.23C558.322 257.23 556.339 258.117 554.846 259.89C553.399 261.663 552.676 264.043 552.676 267.03V267.66C553.282 267.053 554.286 266.563 555.686 266.19L559.606 265.14C562.872 264.253 564.506 262.737 564.506 260.59ZM597.831 279C602.264 279 604.481 275.383 604.481 268.15C604.481 260.917 602.264 257.3 597.831 257.3C593.398 257.3 591.181 260.917 591.181 268.15C591.181 275.383 593.398 279 597.831 279ZM610.151 254.43C613.044 257.79 614.491 262.363 614.491 268.15C614.491 273.937 613.044 278.51 610.151 281.87C607.258 285.23 603.151 286.91 597.831 286.91C592.511 286.91 588.404 285.23 585.511 281.87C582.618 278.51 581.171 273.937 581.171 268.15C581.171 262.363 582.618 257.79 585.511 254.43C588.404 251.07 592.511 249.39 597.831 249.39C603.151 249.39 607.258 251.07 610.151 254.43ZM636.728 279C641.161 279 643.378 275.383 643.378 268.15C643.378 260.917 641.161 257.3 636.728 257.3C632.294 257.3 630.078 260.917 630.078 268.15C630.078 275.383 632.294 279 636.728 279ZM649.048 254.43C651.941 257.79 653.388 262.363 653.388 268.15C653.388 273.937 651.941 278.51 649.048 281.87C646.154 285.23 642.048 286.91 636.728 286.91C631.408 286.91 627.301 285.23 624.408 281.87C621.514 278.51 620.068 273.937 620.068 268.15C620.068 262.363 621.514 257.79 624.408 254.43C627.301 251.07 631.408 249.39 636.728 249.39C642.048 249.39 646.154 251.07 649.048 254.43ZM679.894 249.39C689.601 249.39 694.454 255.643 694.454 268.15C694.454 274.077 693.287 278.697 690.954 282.01C688.667 285.277 685.097 286.91 680.244 286.91C678.097 286.91 676.207 286.49 674.574 285.65C672.987 284.763 671.821 283.713 671.074 282.5V299.86H661.204V250.3H669.464C669.931 251.467 670.164 252.89 670.164 254.57C672.357 251.117 675.601 249.39 679.894 249.39ZM677.794 257.3C673.314 257.3 671.074 260.917 671.074 268.15C671.074 275.337 673.314 278.93 677.794 278.93C682.227 278.93 684.444 275.337 684.444 268.15C684.444 260.917 682.227 257.3 677.794 257.3ZM721.115 249.39C730.821 249.39 735.675 255.643 735.675 268.15C735.675 274.077 734.508 278.697 732.175 282.01C729.888 285.277 726.318 286.91 721.465 286.91C719.318 286.91 717.428 286.49 715.795 285.65C714.208 284.763 713.041 283.713 712.295 282.5V299.86H702.425V250.3H710.685C711.151 251.467 711.385 252.89 711.385 254.57C713.578 251.117 716.821 249.39 721.115 249.39ZM719.015 257.3C714.535 257.3 712.295 260.917 712.295 268.15C712.295 275.337 714.535 278.93 719.015 278.93C723.448 278.93 725.665 275.337 725.665 268.15C725.665 260.917 723.448 257.3 719.015 257.3ZM755.265 286.98C749.759 286.98 746.165 284.88 744.485 280.68C743.645 278.627 743.225 275.383 743.225 270.95V250.3H753.095V268.85C753.095 272.07 753.352 274.38 753.865 275.78C754.565 277.787 756.035 278.79 758.275 278.79C760.609 278.79 762.335 277.997 763.455 276.41C764.622 274.777 765.205 272.093 765.205 268.36V250.3H775.075V286H766.815C766.349 284.88 766.115 283.27 766.115 281.17C765.229 282.85 763.829 284.25 761.915 285.37C760.049 286.443 757.832 286.98 755.265 286.98ZM805.09 249.39C810.55 249.39 814.12 251.49 815.8 255.69C816.686 257.837 817.13 261.057 817.13 265.35V286H807.26V267.52C807.26 264.207 807.026 261.873 806.56 260.52C805.86 258.56 804.366 257.58 802.08 257.58C799.746 257.58 797.973 258.373 796.76 259.96C795.593 261.547 795.01 264.207 795.01 267.94V286H785.14V250.3H793.4C793.866 251.467 794.1 253.1 794.1 255.2C794.94 253.52 796.34 252.143 798.3 251.07C800.26 249.95 802.523 249.39 805.09 249.39ZM828.097 274.38V257.79H823.547V250.3H828.097V242.25C830.431 240.99 833.721 240.173 837.967 239.8V250.3H846.227V257.79H837.967V273.61C837.967 275.71 838.271 277.11 838.877 277.81C839.484 278.51 840.557 278.86 842.097 278.86C843.824 278.86 845.574 278.58 847.347 278.02V285.86C845.527 286.467 843.054 286.77 839.927 286.77C835.727 286.77 832.694 285.743 830.827 283.69C829.007 281.637 828.097 278.533 828.097 274.38Z" fill="#F5BA36"/>
<path d="M291.79 217.53C278.87 217.53 267.027 216.907 256.26 215.66V98.36C258.3 97.9067 263.57 97.3967 272.07 96.83C280.57 96.15 287.37 95.81 292.47 95.81C308.45 95.81 320.123 98.4733 327.49 103.8C334.97 109.127 338.71 117.343 338.71 128.45C338.71 133.89 337.067 138.763 333.78 143.07C330.493 147.377 326.3 150.38 321.2 152.08C327.773 153.553 333.27 157.01 337.69 162.45C342.223 167.89 344.49 174.407 344.49 182C344.49 193.673 340.523 202.513 332.59 208.52C324.657 214.527 311.057 217.53 291.79 217.53ZM296.04 164.66H281.25V196.62C284.99 196.96 290.487 197.13 297.74 197.13C311.68 197.13 318.65 191.633 318.65 180.64C318.65 169.987 311.113 164.66 296.04 164.66ZM292.64 116.21C289.013 116.21 285.217 116.493 281.25 117.06V145.62H291.28C305.787 145.62 313.04 140.52 313.04 130.32C313.04 125.56 311.51 122.047 308.45 119.78C305.503 117.4 300.233 116.21 292.64 116.21ZM389.484 97.34V172.48C389.484 180.527 391.241 186.76 394.754 191.18C398.381 195.6 403.481 197.81 410.054 197.81C416.628 197.81 421.671 195.6 425.184 191.18C428.811 186.76 430.624 180.527 430.624 172.48V97.34H455.614V173.5C455.614 187.78 451.534 198.83 443.374 206.65C435.214 214.357 424.108 218.21 410.054 218.21C396.001 218.21 384.894 214.357 376.734 206.65C368.574 198.83 364.494 187.78 364.494 173.5V97.34H389.484ZM506.355 216V200.02C506.355 191.973 505.845 185.457 504.825 180.47C503.805 175.37 501.992 170.327 499.385 165.34C494.965 156.953 489.639 145.96 483.405 132.36C477.285 118.76 472.752 107.087 469.805 97.34H496.665C501.425 114.453 506.865 129.47 512.985 142.39C516.385 149.643 518.369 154.233 518.935 156.16C519.729 153.553 521.655 148.963 524.715 142.39C530.835 129.47 536.275 114.453 541.035 97.34H567.895C564.949 107.087 560.359 118.76 554.125 132.36C548.005 145.96 542.735 156.953 538.315 165.34C533.669 174.52 531.345 186.08 531.345 200.02V216H506.355ZM663.405 216H575.855V197.64C587.075 185.173 598.068 171.63 608.835 157.01C619.715 142.39 628.101 129.47 633.995 118.25H578.065V97.34H663.235V104.14C663.235 109.353 661.761 115.36 658.815 122.16C654.848 131.113 648.218 142.163 638.925 155.31C629.745 168.457 619.488 181.717 608.155 195.09H663.405V216Z" fill="white"/>
<path d="M686.723 34.3646C701.235 30.1487 715.677 31.7436 726.235 37.6438L735.37 35.1415L740.78 54.0156C740.997 54.61 741.197 55.2154 741.375 55.8299C741.569 56.4978 741.734 57.1677 741.876 57.8405L741.891 57.8914L741.887 57.8923C745.764 76.3602 730.49 96.3344 706.715 103.24C682.346 110.319 658.17 101.019 652.271 82.4482L652.259 82.446L645.659 59.7077L655.904 56.9025C661.873 46.8728 672.852 38.3944 686.723 34.3646Z" fill="white"/>
<path d="M652.95 64.587C655.583 66.9073 658.283 69.1356 661.182 71.1161C662.636 72.1092 664.124 73.0508 665.64 73.948C667.125 74.828 668.649 75.6333 670.155 76.4769C672.185 77.6145 674.212 78.8701 676.395 79.6981C676.432 80.0429 676.473 80.3881 676.52 80.7318C676.695 82.0261 678.173 83.6509 678.444 84.9282C679.02 87.6346 678.487 89.9707 679.295 92.6163C680.133 95.3675 681.064 98.0881 681.999 100.808C682.498 102.263 682.997 103.717 683.485 105.177C668.479 103.239 656.239 94.9425 652.272 82.4493L652.26 82.4471L645.66 59.7087L647.403 59.2307C649.171 61.0976 651.02 62.8873 652.95 64.587Z" fill="#EBEBEC"/>
<path d="M686.723 34.3646C701.235 30.1487 715.677 31.7436 726.235 37.6438L735.37 35.1415L740.78 54.0156C740.997 54.61 741.197 55.2154 741.375 55.8299C741.569 56.4978 741.734 57.1677 741.876 57.8405L741.891 57.8915L741.887 57.8924C742.865 62.5492 742.623 67.3016 741.336 71.9153C741.236 70.9878 741.115 70.061 740.966 69.1363C740.097 63.7398 738.359 58.5791 736.355 53.5098C735.225 50.652 733.208 45.9242 729.341 46.7617C727.029 47.2626 725.334 49.3198 723.993 51.1275C722.447 53.2134 721.193 55.5175 719.564 57.5404C718.583 58.7587 717.389 59.8382 716.243 60.8991C714.973 62.0766 713.655 63.2009 712.295 64.2728C709.653 66.3549 706.856 68.2356 703.947 69.9227C697.733 73.5269 691.015 76.209 684.136 78.2387C680.908 79.191 677.626 80.0605 674.318 80.6889C672.187 81.0931 670.023 81.3299 667.936 81.9457C666.053 82.5024 663.998 83.415 663.051 85.2532C661.994 87.3033 662.607 89.8095 663.379 91.8459C664.282 94.2296 665.589 96.474 667.055 98.5518C667.653 99.3989 668.326 100.19 669.054 100.93C660.961 96.9523 654.857 90.5907 652.271 82.4458L652.258 82.4436L645.659 59.7052L655.904 56.9001C661.873 46.8728 672.852 38.3944 686.723 34.3646Z" fill="white"/>
<path d="M729.91 56.5841C730.23 60.0884 728.46 63.2924 726.703 66.1781C724.925 69.0975 722.831 72.0455 722.171 75.4693C721.814 77.328 722.004 79.2809 722.212 81.1489C722.46 83.3894 722.874 85.653 723.685 87.7642C724.277 89.3062 725.124 91.0665 726.716 91.7745C727.061 91.9277 727.418 92.0274 727.781 92.0838C722.051 96.9522 714.885 100.869 706.714 103.242C706.667 103.256 706.621 103.267 706.574 103.281C706.829 103.115 707.081 102.942 707.324 102.761C708.758 101.694 710.014 100.388 711.008 98.9007C711.971 97.4605 712.69 95.8345 713.005 94.1242C713.317 92.4381 713.223 90.6839 712.662 89.0575C712.36 88.1833 711.934 87.3553 711.408 86.5959C710.921 85.892 710.359 85.2743 709.612 84.8425C708.173 84.0124 706.428 83.9445 704.813 84.0345C703.119 84.1282 701.445 84.4034 699.749 84.4665C697.697 84.5429 695.638 84.5182 693.593 84.3287C693.413 84.312 693.233 84.2925 693.053 84.273C691.239 83.8719 689.456 83.3372 687.728 82.6289C688.018 82.5132 688.309 82.3962 688.6 82.2842C691.81 81.0436 695.091 80.0015 698.349 78.8934C701.542 77.8065 704.716 76.6436 707.752 75.1647C710.921 73.6206 713.848 71.6936 716.615 69.5131C719.287 67.4067 721.832 65.0766 723.99 62.4344C725.875 60.1274 727.341 57.3457 729.741 55.5119C729.816 55.8655 729.877 56.2227 729.91 56.5841Z" fill="white"/>
<path d="M716.784 94.7691C717.291 93.371 717.188 91.762 716.938 90.3209C716.682 88.8472 716.195 87.4173 715.647 86.0284C715.193 84.8768 714.57 83.7732 713.67 82.9106C712.856 82.1299 711.853 81.6088 710.773 81.3214C711.301 81.1032 711.811 80.8451 712.305 80.5597C714.495 79.2966 716.451 77.5132 718.909 76.7814C718.615 77.5561 718.092 78.226 717.683 78.9395C717.216 79.7529 716.954 80.628 716.954 81.5711C716.956 82.4412 717.137 83.3048 717.347 84.1455C717.551 84.9581 717.767 85.7676 717.98 86.5764C718.319 87.8669 718.661 89.1673 719.196 90.3928C719.683 91.5078 720.345 92.5797 721.336 93.3119C721.723 93.598 722.142 93.811 722.581 93.9698C722.507 94.0243 722.432 94.0779 722.359 94.1337C720.013 95.8853 717.558 97.8276 714.619 98.393C715.305 97.1626 716.298 96.1104 716.784 94.7691Z" fill="white"/>
<path d="M646.075 61.089C640.555 42.0698 656.072 20.8441 680.734 13.6802C705.396 6.51619 729.863 16.1267 735.383 35.1459C740.903 54.1651 725.386 75.3907 700.724 82.5547C676.062 89.7187 651.595 80.1082 646.075 61.089Z" fill="#C7C8CA"/>
<path d="M700.257 80.9912C724.582 73.9256 740.009 53.1813 735.131 34.3663C735.214 34.6232 735.294 34.8818 735.37 35.1429C740.89 54.163 725.372 75.3888 700.71 82.5531C676.047 89.7174 651.578 80.1063 646.059 61.0862C645.983 60.8252 645.913 60.5638 645.845 60.3021C651.798 78.8046 675.932 88.0568 700.257 80.9912Z" fill="#A4A7A9"/>
<path opacity="0.42" d="M650.357 59.8434C645.358 42.62 659.41 23.3986 681.743 16.9111C704.077 10.4235 726.234 19.1266 731.232 36.35C736.231 53.5733 722.179 72.7948 699.846 79.2823C677.513 85.7698 655.356 77.0667 650.357 59.8434Z" fill="#A4A7A9"/>
<path d="M661.544 54.2661C658.099 42.3968 667.783 29.1505 683.173 24.6797C698.564 20.2089 713.833 26.2066 717.278 38.0759C720.723 49.9452 711.039 63.1915 695.649 67.6623C680.258 72.1331 664.989 66.1354 661.544 54.2661Z" fill="#A4A7A9"/>
<path d="M666.341 52.7998C663.415 42.7183 671.7 31.4499 684.846 27.6311C697.992 23.8123 711.021 28.8892 713.947 38.9707C716.873 49.0522 708.588 60.3207 695.442 64.1395C682.296 67.9583 669.267 62.8813 666.341 52.7998Z" fill="#4B4C45"/>
<path d="M669.56 51.8614C667.095 43.368 674.074 33.8748 685.149 30.6577C696.224 27.4407 707.2 31.718 709.665 40.2114C712.13 48.7048 705.151 58.198 694.076 61.4151C683.001 64.6321 672.025 60.3548 669.56 51.8614Z" fill="#8B8A7E"/>
<path d="M709.652 40.2103C710.433 42.9002 710.264 45.6897 709.321 48.3494C704.529 44.5952 697.008 43.2916 689.441 45.4904C681.873 47.6895 676.22 52.8186 674.183 58.5561C671.962 56.8161 670.326 54.5513 669.545 51.8614C667.081 43.3677 674.06 33.8741 685.135 30.6567C696.211 27.4393 707.188 31.7167 709.652 40.2103Z" fill="#8B8A7E"/>
<path opacity="0.44" d="M689.44 45.4907C697.009 43.2929 704.529 44.5953 709.319 48.3497C707.283 54.0872 701.63 59.2175 694.061 61.4154C686.494 63.6141 678.973 62.3108 674.182 58.5564C676.219 52.8174 681.873 47.6883 689.44 45.4907Z" fill="#A4A7A9"/>
<path d="M648.955 133.408L645.824 130.866L647.1 127.041L643.965 124.504L645.236 120.675L642.097 118.141L643.364 114.31L640.225 111.778L641.49 107.947L641.396 107.871C650.369 90.5714 678.393 84.9004 678.393 84.9004L683.857 105.182C683.857 105.182 672.871 107.611 663.626 113.034C654.417 118.435 650.947 131.371 649.68 138.873L647.668 137.23L648.955 133.408Z" fill="white"/>
<path d="M641.492 107.948L640.227 111.779L643.366 114.311L642.099 118.142L645.238 120.676L643.967 124.505L647.102 127.042L645.826 130.867L648.957 133.408L647.673 137.232L649.685 138.875C649.666 138.985 649.648 139.093 649.63 139.202L647.338 137.33L648.622 133.508L645.491 130.966L646.766 127.141L643.631 124.606L644.902 120.777L641.763 118.243L643.03 114.412L639.891 111.88L640.815 109.085C641 108.676 641.193 108.272 641.399 107.876L641.492 107.948Z" fill="white"/>
<path d="M654.068 121.136C653.863 118.129 652.348 115.458 651.418 112.648C650.801 110.781 650.264 108.883 649.478 107.079C648.802 105.527 647.9 103.852 646.38 102.986C645.925 102.726 645.451 102.578 644.97 102.513C648.289 98.6331 652.559 95.5081 656.927 93.0316C656.148 93.8958 655.458 94.8617 655.003 95.9351C654.473 97.187 654.343 98.5537 654.487 99.9012C654.662 101.534 655.14 103.112 655.519 104.704C655.667 105.327 655.849 105.942 656.024 106.557C656.22 107.244 656.427 107.928 656.671 108.599C657.126 109.851 657.701 111.147 658.666 112.091C659.103 112.517 659.617 112.839 660.202 113.016C660.803 113.199 661.441 113.244 662.065 113.214C662.582 113.188 663.089 113.118 663.588 113.017C663.577 113.024 663.566 113.031 663.553 113.038C658.588 115.95 655.292 121.054 653.108 126.315C653.645 124.622 654.19 122.93 654.068 121.136Z" fill="white"/>
</svg>
