<?xml version="1.0" encoding="utf-8"?>
<!-- Generator: Adobe Illustrator 27.5.0, SVG Export Plug-In . SVG Version: 6.00 Build 0)  -->
<svg version="1.1" id="Layer_1" xmlns="http://www.w3.org/2000/svg" xmlns:xlink="http://www.w3.org/1999/xlink" x="0px" y="0px"
	 viewBox="0 0 344.36 355.919" style="enable-background:new 0 0 344.36 355.919;" xml:space="preserve">
<g>
	<g>
		<g>
			<g>
				<g>
					<polygon style="fill:#BA865A;" points="288.159,143.586 288.156,143.586 288.159,143.587 					"/>
					<polygon style="fill:#A26C45;" points="164.408,186.161 164.367,186.144 164.367,310.774 164.408,310.791 288.164,268.219 
						288.159,143.591 					"/>
					<polygon style="fill:#DEAC7A;" points="164.408,186.161 164.367,186.144 189.343,258.14 288.164,212.375 288.159,143.591 					
						"/>
					<polygon style="fill:#D09565;" points="54.076,139.272 54.073,139.272 54.071,263.9 164.367,310.774 164.367,186.144 					"/>
					<polygon style="fill:#DEAC7A;" points="54.076,139.272 54.073,139.272 54.071,225.335 125.757,261.785 164.367,186.144 					
						"/>
					<polygon style="fill:#DEAC7A;" points="288.164,143.589 288.159,143.587 288.159,143.591 					"/>
					<polygon style="fill:#DEAC7A;" points="288.156,143.586 180.809,99.784 54.071,139.27 54.076,139.272 164.367,186.144 
						164.408,186.161 288.159,143.591 288.159,143.587 					"/>
					<polygon style="fill:#BA865A;" points="180.809,99.784 54.071,139.27 54.076,139.272 164.367,186.144 164.408,186.161 
						178.002,181.73 					"/>
					<polygon style="fill:#BA865A;" points="180.809,99.784 54.071,139.27 54.076,139.272 164.367,186.144 164.408,186.161 
						178.002,181.73 					"/>
				</g>
				<polygon style="fill:#D09565;" points="54.076,139.272 16.406,72.648 147.627,39.438 180.809,99.784 				"/>
				<polygon style="fill:#DEAC7A;" points="54.076,139.272 164.408,186.161 115.227,247.003 7.091,196.58 				"/>
				<polygon style="fill:#D09565;" points="180.809,99.784 288.159,143.587 339.194,96.949 202.303,47.133 				"/>
				<polygon style="fill:#D09565;" points="288.159,143.587 164.408,186.161 208.783,234.65 329.474,183.214 				"/>
			</g>
			<path style="opacity:0.52;fill:#DEAC7A;" d="M242.11,148.519c-13.594-5.075-27.592-9.136-41.92-11.513
				c-14.908-2.473-30.018-2.929-45.047-1.348c-14.811,1.559-29.377,4.947-43.594,9.327c-8.18,2.52-16.249,5.372-24.251,8.406
				l77.07,32.753l0.04,0.017l92.332-31.762C251.908,152.331,247.036,150.357,242.11,148.519z"/>
		</g>
		<path style="opacity:0.51;fill:#D09565;" d="M119.172,70.837c4.618-1.43,9.181-3.293,13.336-5.852
			c4.399-2.708,8.376-6.224,11.148-10.416c2.397-3.501,3.061-8.247-2.775-8.188c-7.974,0.6-15.926,2.785-23.756,4.469
			c-16.548,3.948-33.099,7.879-49.47,12.335c-1.769,0.537-3.571,1.133-5.106,1.955c-3.315,1.614-4.813,4.872-1.607,7.085
			c1.764,1.274,4.029,1.892,6.154,2.369c4.091,0.874,8.297,1.405,12.519,1.64c13.284,0.631,26.721-1.718,39.443-5.363
			L119.172,70.837z"/>
		<path style="opacity:0.51;fill:#D09565;" d="M55.444,73.515c1.197-3.403-2.989-5.427-5.77-5.531
			c-3.259-0.123-7.599,1.406-9.815,3.833c-0.792,0.867-1.378,2.081-1.029,3.205c1.238,3.975,8.249,2.95,11.284,2.28
			C52.257,76.827,54.657,75.747,55.444,73.515z"/>
		<path style="opacity:0.51;fill:#D09565;" d="M227.186,82.877c12.323,4.825,25.48,8.425,38.764,9.046
			c4.225,0.163,8.463,0.03,12.618-0.456c2.161-0.275,4.474-0.678,6.35-1.781c3.4-1.902,2.214-5.285-0.934-7.204
			c-1.451-0.963-3.188-1.726-4.899-2.426c-15.88-5.975-31.989-11.444-48.092-16.929c-7.637-2.413-15.348-5.336-23.231-6.682
			c-5.804-0.608-5.589,4.18-3.532,7.891c2.366,4.433,5.995,8.308,10.12,11.417c3.897,2.938,8.265,5.222,12.728,7.079L227.186,82.877
			z"/>
		<path style="opacity:0.51;fill:#D09565;" d="M295.223,95.756c2.959,0.953,9.842,2.632,11.448-1.209
			c0.453-1.086-0.016-2.349-0.723-3.288c-1.979-2.624-6.155-4.554-9.412-4.738c-2.779-0.157-7.137,1.464-6.264,4.964
			C290.845,93.782,293.133,95.083,295.223,95.756z"/>
	</g>
	<g>
		<g>
			<path style="fill:#EBEBEC;" d="M102.073,276.987c-11.984-0.498-22.813,3.457-29.832,9.987l-7.515-0.197l-0.593,15.529
				c-0.055,0.498-0.094,1.001-0.115,1.507c-0.023,0.55-0.023,1.096-0.005,1.64l-0.002,0.042l0.003,0
				c0.512,14.927,16.069,27.393,35.702,28.208c20.124,0.836,36.995-10.881,38.022-26.269l0.009-0.004l0.778-18.724l-8.428-0.22
				C123.596,281.905,113.528,277.463,102.073,276.987z"/>
			<path style="fill:#EBEBEC;" d="M133.831,293.834c-1.59,2.281-3.249,4.504-5.108,6.574c-0.932,1.038-1.901,2.043-2.899,3.019
				c-0.978,0.957-2,1.864-3.001,2.797c-1.349,1.258-2.673,2.606-4.199,3.655c0.037,0.272,0.071,0.545,0.1,0.818
				c0.11,1.028-0.721,2.556-0.688,3.589c0.069,2.189,0.922,3.884,0.801,6.07c-0.125,2.273-0.327,4.54-0.532,6.807
				c-0.109,1.213-0.218,2.425-0.317,3.639c11.198-4.325,19.06-13.015,19.75-23.367l0.009-0.004l0.778-18.724l-1.434-0.038
				C136.082,290.438,134.996,292.163,133.831,293.834z"/>
			<path style="fill:#EBEBEC;" d="M102.073,276.987c-11.984-0.498-22.813,3.457-29.832,9.987l-7.515-0.197l-0.593,15.529
				c-0.055,0.498-0.094,1.001-0.115,1.507c-0.023,0.55-0.023,1.096-0.005,1.64l-0.002,0.042l0.003,0
				c0.129,3.764,1.216,7.371,3.082,10.674c-0.098-0.732-0.181-1.467-0.241-2.206c-0.353-4.312,0.009-8.607,0.593-12.882
				c0.329-2.41,0.988-6.425,4.127-6.512c1.877-0.052,3.573,1.209,4.949,2.345c1.587,1.311,2.99,2.845,4.629,4.092
				c0.987,0.751,2.112,1.355,3.196,1.954c1.202,0.665,2.431,1.28,3.682,1.847c2.431,1.101,4.943,2.018,7.505,2.765
				c5.472,1.596,11.158,2.388,16.845,2.648c2.668,0.122,5.363,0.17,8.031,0.028c1.719-0.092,3.432-0.319,5.157-0.24
				c1.557,0.072,3.314,0.385,4.392,1.619c1.203,1.376,1.206,3.418,0.997,5.129c-0.245,2.003-0.827,3.975-1.563,5.849
				c-0.3,0.764-0.669,1.499-1.09,2.206c5.484-4.587,8.983-10.63,9.433-17.379l0.009-0.004l0.778-18.724l-8.428-0.22
				C123.596,281.905,113.528,277.463,102.073,276.987z"/>
			<path style="fill:#EBEBEC;" d="M72.998,302.226c0.417,2.754,2.389,4.882,4.29,6.768c1.923,1.908,4.096,3.778,5.253,6.285
				c0.628,1.361,0.851,2.898,1.045,4.373c0.233,1.769,0.343,3.587,0.118,5.363c-0.164,1.297-0.483,2.81-1.576,3.655
				c-0.237,0.183-0.493,0.327-0.762,0.439c5.339,2.659,11.604,4.315,18.351,4.595c0.039,0.002,0.077,0.002,0.116,0.004
				c-0.228-0.08-0.455-0.165-0.677-0.258c-1.307-0.549-2.523-1.316-3.571-2.271c-1.015-0.925-1.877-2.039-2.444-3.294
				c-0.56-1.237-0.82-2.603-0.696-3.959c0.067-0.729,0.239-1.446,0.5-2.129c0.242-0.633,0.558-1.214,1.052-1.687
				c0.952-0.91,2.284-1.292,3.546-1.528c1.323-0.248,2.666-0.353,3.985-0.625c1.596-0.329,3.178-0.737,4.718-1.269
				c0.136-0.047,0.271-0.096,0.406-0.145c1.322-0.651,2.595-1.399,3.793-2.27c-0.246-0.034-0.492-0.069-0.738-0.1
				c-2.709-0.347-5.435-0.528-8.156-0.764c-2.667-0.232-5.334-0.526-7.954-1.089c-2.735-0.588-5.356-1.516-7.902-2.669
				c-2.459-1.114-4.862-2.424-7.026-4.047c-1.89-1.417-3.547-3.278-5.744-4.234C72.934,301.656,72.955,301.942,72.998,302.226z"/>
			<path style="fill:#EBEBEC;" d="M90.35,329.095c-0.655-0.979-0.881-2.235-0.961-3.39c-0.082-1.181,0.022-2.372,0.181-3.543
				c0.132-0.971,0.403-1.937,0.933-2.77c0.48-0.754,1.154-1.344,1.932-1.769c-0.448-0.068-0.89-0.17-1.325-0.296
				c-1.927-0.557-3.773-1.558-5.806-1.656c0.373,0.54,0.903,0.956,1.354,1.427c0.514,0.537,0.882,1.16,1.06,1.885
				c0.164,0.669,0.188,1.367,0.185,2.053c-0.003,0.663-0.016,1.326-0.027,1.988c-0.017,1.056-0.034,2.12-0.214,3.163
				c-0.164,0.949-0.471,1.898-1.096,2.648c-0.244,0.293-0.527,0.536-0.835,0.741c0.067,0.028,0.135,0.055,0.202,0.084
				c2.14,0.903,4.4,1.932,6.773,1.811C91.944,330.655,90.979,330.034,90.35,329.095z"/>
			
				<ellipse transform="matrix(0.0415 -0.9991 0.9991 0.0415 -190.6741 377.8613)" style="fill:#C7C8CA;" cx="101.603" cy="288.309" rx="28.383" ry="36.908"/>
			<g>
				<path style="fill:#A4A7A9;" d="M100.478,315.382c-20.087-0.834-35.908-13.863-35.714-29.246
					c-0.015,0.213-0.028,0.427-0.037,0.642c-0.65,15.662,15.332,29.044,35.698,29.89c20.366,0.846,37.404-11.165,38.054-26.827
					c0.009-0.215,0.013-0.429,0.016-0.643C137.413,304.544,120.565,316.216,100.478,315.382z"/>
			</g>
			
				<ellipse transform="matrix(0.0415 -0.9991 0.9991 0.0415 -190.7247 377.803)" style="opacity:0.42;fill:#A4A7A9;" cx="101.548" cy="288.307" rx="25.703" ry="33.423"/>
			
				<ellipse transform="matrix(0.0415 -0.9991 0.9991 0.0415 -188.3109 376.8359)" style="fill:#A4A7A9;" cx="102.251" cy="286.565" rx="17.713" ry="23.033"/>
			
				<ellipse transform="matrix(0.0415 -0.9991 0.9991 0.0415 -188.8228 376.1378)" style="fill:#4B4C45;" cx="101.63" cy="286.483" rx="15.045" ry="19.674"/>
			
				<ellipse transform="matrix(0.0415 -0.9991 0.9991 0.0415 -188.4213 376.5915)" style="fill:#8B8A7E;" cx="102.069" cy="286.501" rx="12.675" ry="16.574"/>
			<g>
				<path style="fill:#8B8A7E;" d="M85.509,285.813c-0.092,2.215,0.567,4.327,1.798,6.193c2.982-3.791,8.531-6.214,14.78-5.954
					c6.25,0.26,11.579,3.134,14.236,7.159c1.382-1.757,2.214-3.807,2.306-6.022c0.29-6.994-6.888-12.972-16.034-13.352
					C93.449,273.457,85.799,278.819,85.509,285.813z"/>
				<path style="opacity:0.44;fill:#A4A7A9;" d="M102.088,286.052c-6.25-0.259-11.799,2.163-14.78,5.954
					c2.657,4.025,7.986,6.9,14.236,7.159c6.249,0.26,11.799-2.163,14.78-5.954C113.666,289.185,108.337,286.311,102.088,286.052z"/>
			</g>
		</g>
		<g>
			<path style="fill:#EBEBEC;" d="M149.812,346.001l1.932-2.545l-1.709-2.699l1.936-2.542l-1.705-2.703l1.939-2.541l-1.703-2.705
				l1.94-2.539l-1.701-2.706l0.058-0.076c-10.194-11.601-32.868-10.664-32.868-10.664l-0.368,16.621c0,0,8.928-0.209,17.081,2.212
				c8.121,2.411,13.247,11.698,15.645,17.225l1.239-1.643L149.812,346.001z"/>
			<path style="fill:#A4A7A9;" d="M150.74,325.022l1.701,2.706l-1.94,2.539l1.703,2.705l-1.939,2.541l1.705,2.703l-1.936,2.542
				l1.709,2.699l-1.932,2.545l1.714,2.696l-1.239,1.643c0.035,0.081,0.07,0.161,0.104,0.241l1.412-1.872l-1.714-2.695l1.932-2.545
				l-1.708-2.699l1.936-2.541l-1.705-2.703l1.939-2.541l-1.703-2.705l1.94-2.539l-1.242-1.974c-0.22-0.279-0.445-0.553-0.679-0.819
				L150.74,325.022z"/>
		</g>
		<path style="fill:#EBEBEC;" d="M143.488,337.546c-0.412-2.35,0.25-4.689,0.434-7.025c0.122-1.551,0.176-3.112,0.44-4.647
			c0.227-1.32,0.605-2.778,1.612-3.731c0.302-0.286,0.639-0.489,0.997-0.63c-3.293-2.355-7.176-3.95-11.012-5.028
			c0.764,0.517,1.479,1.129,2.033,1.868c0.646,0.862,1.005,1.888,1.149,2.951c0.175,1.288,0.105,2.591,0.115,3.886
			c0.004,0.507-0.02,1.014-0.038,1.52c-0.021,0.565-0.051,1.13-0.112,1.692c-0.113,1.048-0.311,2.153-0.876,3.061
			c-0.256,0.41-0.591,0.754-1.008,1.001c-0.429,0.254-0.912,0.409-1.399,0.504c-0.403,0.078-0.807,0.12-1.211,0.137
			c0.01,0.003,0.02,0.006,0.031,0.009c4.379,1.3,7.886,4.6,10.566,8.231C144.475,340.145,143.734,338.948,143.488,337.546z"/>
	</g>
	<g>
		<defs>
			<path id="SVGID_1_" d="M288.156,143.586l-7.625-131.422c-14.129-20.178-165.744,8.642-228.834,31.23
				C-14.823,67.21,3.526,149.483,24.242,158.361l29.829-19.091l0.005,0.002l110.291,46.871l0.04,0.017l123.751-42.57v-0.004
				L288.156,143.586z"/>
		</defs>
		<clipPath id="SVGID_00000114066298035936619740000013768221283857598338_">
			<use xlink:href="#SVGID_1_"  style="overflow:visible;"/>
		</clipPath>
		<g style="clip-path:url(#SVGID_00000114066298035936619740000013768221283857598338_);">
			<path style="fill:#C2CAD3;" d="M228.591,175.983l-110.42,37.584c-5.235,1.782-10.923-1.017-12.705-6.252L61.348,77.694
				c-1.782-5.235,1.018-10.923,6.252-12.705l110.42-37.584c5.235-1.782,10.923,1.017,12.705,6.252l44.119,129.62
				C236.625,168.513,233.826,174.201,228.591,175.983z"/>
			
				<rect x="88.168" y="55.991" transform="matrix(0.9467 -0.3222 0.3222 0.9467 -31.6173 54.5165)" style="fill:#72787E;" width="121.408" height="133.55"/>
			
				<rect x="89.677" y="57.544" transform="matrix(0.9467 -0.3222 0.3222 0.9467 -31.5648 54.4883)" style="fill:#FFFDED;" width="118.271" height="130.099"/>
			<path style="fill:#4D7DBF;" d="M149.903,66.824L113.925,79.07c-4.391,1.494-9.023-0.404-10.325-4.231l-4.309-12.66
				c-1.303-3.827,1.209-8.157,5.6-9.652l35.978-12.246c4.391-1.494,9.023,0.404,10.325,4.231l4.309,12.66
				C156.806,61,154.294,65.33,149.903,66.824z M105.877,55.424c-2.793,0.951-4.448,3.539-3.689,5.769l4.309,12.66
				c0.759,2.23,3.649,3.271,6.443,2.32l35.978-12.246c2.793-0.951,4.448-3.539,3.689-5.769l-4.309-12.66
				c-0.759-2.23-3.649-3.271-6.443-2.32L105.877,55.424z"/>
			
				<rect x="104.527" y="41.241" transform="matrix(0.9467 -0.3222 0.3222 0.9467 -9.2709 42.5366)" style="fill:#355162;" width="38.659" height="16.064"/>
			<path style="fill:#8DA1A3;" d="M186.591,79.883l-79.257,26.977c-0.457,0.156-0.954-0.089-1.109-0.546
				c-0.156-0.457,0.089-0.954,0.546-1.109l79.257-26.977c0.457-0.156,0.954,0.089,1.109,0.546
				C187.293,79.23,187.048,79.727,186.591,79.883z"/>
			<path style="fill:#8DA1A3;" d="M194.363,102.715l-79.256,26.977c-0.457,0.156-0.954-0.089-1.109-0.546
				c-0.156-0.457,0.089-0.954,0.546-1.109l79.256-26.977c0.457-0.156,0.954,0.089,1.109,0.546
				C195.064,102.063,194.82,102.56,194.363,102.715z"/>
			<path style="fill:#8DA1A3;" d="M202.134,125.548l-79.257,26.977c-0.457,0.155-0.954-0.089-1.109-0.546
				c-0.156-0.457,0.089-0.954,0.546-1.109l79.257-26.977c0.457-0.156,0.954,0.089,1.109,0.546
				C202.836,124.895,202.591,125.392,202.134,125.548z"/>
			<path style="fill:#8DA1A3;" d="M209.906,148.38l-79.257,26.977c-0.457,0.156-0.954-0.089-1.109-0.546
				c-0.156-0.457,0.089-0.954,0.546-1.109l79.257-26.977c0.457-0.156,0.954,0.089,1.109,0.546
				C210.607,147.728,210.363,148.224,209.906,148.38z"/>
			
				<rect x="87.653" y="102.094" transform="matrix(0.9467 -0.3222 0.3222 0.9467 -29.7146 35.774)" style="fill:#C9E6D5;" width="11.108" height="11.108"/>
			
				<rect x="95.359" y="124.731" transform="matrix(0.9467 -0.3222 0.3222 0.9467 -36.5981 39.4645)" style="fill:#C9E6D5;" width="11.108" height="11.108"/>
			
				<rect x="103.064" y="147.369" transform="matrix(0.9467 -0.3222 0.3222 0.9467 -43.4815 43.1546)" style="fill:#C9E6D5;" width="11.108" height="11.108"/>
			
				<rect x="110.769" y="170.007" transform="matrix(0.9467 -0.3222 0.3222 0.9467 -50.3648 46.8447)" style="fill:#C9E6D5;" width="11.108" height="11.108"/>
		</g>
		<g style="clip-path:url(#SVGID_00000114066298035936619740000013768221283857598338_);">
			<polygon style="fill:#396925;" points="222.832,68.896 222.132,55.36 209.598,48.286 210.709,69.757 			"/>
			<path style="fill:#B9D542;" d="M215.125,84.584l0.002,0.038l2.31-0.138l2.312-0.101l-0.002-0.038l23.933-1.433l-0.491-7.188
				c0,0-15.487-0.711-18.704-7.758l-1.182-4.476l-4.623,0.239l-4.623,0.239l-4.623,0.239l-0.714,4.574
				c-2.473,7.341-17.804,9.647-17.804,9.647l0.254,7.2L215.125,84.584z"/>
			<path style="fill:#B9D542;" d="M206.946,204.871l35.035-1.812c4.784-0.248,8.863,3.43,9.111,8.214l0.509,9.843
				c0.247,4.784-3.43,8.863-8.214,9.111l-35.035,1.812c-4.784,0.247-8.863-3.43-9.111-8.215l-0.509-9.843
				C198.484,209.198,202.162,205.119,206.946,204.871z"/>
			<path style="opacity:0.57;fill:#FFFFFF;" d="M223.26,228.361c0.03,0.066,0.067,0.132,0.111,0.196
				c0.423,0.604,1.371,0.804,2.228,0.919c4.11,0.554,8.189,0.237,12.318-0.168c3.541-0.347,7.234-1.465,9.277-3.838
				c2.045-2.376,3.647-9.903-2.609-8.183c-1.222,0.336-2.415,0.763-3.604,1.17c-5.407,1.851-12.478,3.98-16.594,7.501
				C223.616,226.618,222.904,227.562,223.26,228.361z"/>
			<path style="opacity:0.57;fill:#FFFFFF;" d="M210.822,229.456c1.659,0.905,4.128,1.125,6.153,0.569
				c0.98-0.156,1.914-0.497,2.751-1.051c0.223-0.148,0.613-0.615,0.238-0.817c-1.239-0.666-2.886-0.928-4.377-0.863
				c-1.633,0.071-3.079,0.507-4.481,1.187C210.796,228.632,210.41,229.232,210.822,229.456z"/>
			<g>
				<g>
					<g>
						<g>
							
								<rect x="193.781" y="80.783" transform="matrix(-0.9987 0.0517 -0.0517 -0.9987 449.4068 287.4015)" style="fill:#7CC24F;" width="54.416" height="137.452"/>
							
								<rect x="193.805" y="81.678" transform="matrix(-0.9987 0.0517 -0.0517 -0.9987 414.8594 290.0853)" style="fill:#7CC24F;" width="19.753" height="137.452"/>
						</g>
						<g>
							
								<rect x="196.851" y="210.835" transform="matrix(-0.9987 0.0517 -0.0517 -0.9987 460.5276 419.1743)" style="fill:#528935;" width="55.992" height="9.408"/>
						</g>
					</g>
					<path style="opacity:0.53;fill:#B9D542;" d="M242.38,204.247c0,0,5.036,2.976,5.025-4.791
						c-0.011-7.766-2.661-96.734-7.513-92.384C235.039,111.423,239.597,195.76,242.38,204.247z"/>
					<path style="opacity:0.53;fill:#B9D542;" d="M237.312,98.224c0.141,0.864,0.514,1.828,1.279,2.424
						c0.801,0.625,1.918,0.524,2.745-0.039c0.932-0.634,1.258-1.652,1.335-2.63c0.069-0.881-0.002-1.771-0.202-2.635
						c-0.021-0.315-0.057-0.629-0.113-0.937c-0.125-0.685-0.455-1.465-1.116-1.887c-0.808-0.516-1.844-0.326-2.575,0.23
						c-0.895,0.681-1.13,1.682-1.279,2.654C237.242,96.335,237.159,97.292,237.312,98.224z"/>
				</g>
			</g>
			<path style="fill:#B9D542;" d="M218.169,91.835L218.169,91.835c7.83-0.405,14.567,5.67,14.972,13.499l4.286,82.848
				c0.405,7.83-5.67,14.567-13.499,14.972l0,0c-7.83,0.405-14.567-5.67-14.972-13.499l-4.286-82.848
				C204.264,98.977,210.339,92.24,218.169,91.835z"/>
		</g>
		<g style="clip-path:url(#SVGID_00000114066298035936619740000013768221283857598338_);">
			<g>
				<g>
					<path style="fill:#1F2F3D;" d="M129.838,83.435c-3.934-4.34-7.571-8.231-9.738-10.258c-1.069-1-1.613-1.178-2.866-0.874
						c-1.14,0.276-1.464,1.923-1.464,1.923s-1.717,6.107-3.762,13.53L129.838,83.435z"/>
					<path style="fill:#AFB7C7;" d="M111.294,85.455c-3.076,11.172-6.839,25.128-6.603,25.716c0.395,0.986,3.015,5.641,8.043,4.062
						c5.027-1.579,9.635,0.069,16.145-2.831c6.511-2.9,11.748-2.126,15.733-4.535c4.41-2.666,2.322-6.935,2.322-6.935
						s-9.343-10.839-17.518-19.869L111.294,85.455z"/>
					<path style="fill:#AFB7C7;" d="M112.733,115.232c2.288-0.719,4.489-0.769,6.822-0.884c0.086-2.124,0.133-4.249,0.152-6.374
						c0.035-3.743,0.001-7.486,0.016-11.229c0.015-3.781,0.126-7.559,0.237-11.338c0.02-0.691,0.048-1.381,0.075-2.072l-8.742,2.119
						c-3.076,11.172-6.839,25.128-6.603,25.716C105.085,112.157,107.706,116.812,112.733,115.232z"/>
					<g>
						<path style="fill:#D2DBE6;" d="M144.677,233.727l23.841-5.779c4.656-1.128,9.345,1.731,10.474,6.387l2.303,9.503
							c1.128,4.656-1.731,9.345-6.387,10.473l-23.841,5.779c-4.656,1.128-9.345-1.731-10.473-6.387l-2.303-9.503
							C137.162,239.545,140.021,234.856,144.677,233.727z"/>
						<g>
							
								<rect x="120.222" y="104.123" transform="matrix(-0.9719 0.2356 -0.2356 -0.9719 320.5842 307.0046)" style="fill:#485C7A;" width="43.466" height="137.057"/>
							
								<rect x="120.611" y="107.384" transform="matrix(-0.9719 0.2356 -0.2356 -0.9719 294.8221 316.6048)" style="fill:#2D3B52;" width="15.778" height="137.057"/>
						</g>
						<g>
							
								<rect x="135.432" y="231.65" transform="matrix(-0.9719 0.2356 -0.2356 -0.9719 366.8591 429.1829)" style="fill:#ACA49E;" width="44.725" height="9.708"/>
							<path style="fill:#E4D7CD;" d="M135.47,238.203l43.095-10.445c1.484-0.36,2.979,0.552,3.339,2.036l0.351,1.449
								c0.36,1.484-0.552,2.979-2.036,3.339l-43.095,10.445c-1.484,0.36-2.979-0.552-3.339-2.036l-0.351-1.449
								C133.074,240.058,133.985,238.563,135.47,238.203z"/>
						</g>
					</g>
					<path style="fill:#485C7A;" d="M169.442,223.208c0,0,4.544,2.214,3.025-5.376c-1.519-7.59-20.906-94.19-23.881-89.269
						C145.611,133.485,165.601,215.297,169.442,223.208z"/>
					<path style="fill:#485C7A;" d="M144.833,120.27c0.279,0.825,0.76,1.716,1.478,2.193c0.753,0.501,1.612,0.248,2.154-0.416
						c0.611-0.748,0.669-1.789,0.54-2.755c-0.117-0.871-0.346-1.731-0.671-2.548c-0.078-0.305-0.167-0.607-0.271-0.9
						c-0.231-0.652-0.644-1.369-1.246-1.691c-0.736-0.393-1.515-0.065-1.983,0.58c-0.572,0.789-0.563,1.8-0.491,2.77
						C144.412,118.434,144.532,119.381,144.833,120.27z"/>
				</g>
				<path style="opacity:0.57;fill:#FFFFFF;" d="M160.394,254.851c0.036,0.061,0.078,0.12,0.126,0.176
					c0.451,0.532,1.236,0.597,1.933,0.592c3.344-0.025,6.494-0.897,9.667-1.862c2.72-0.827,5.411-2.429,6.558-5.031
					c1.148-2.604,0.946-10.183-3.646-7.639c-0.897,0.497-1.753,1.079-2.61,1.641c-3.897,2.555-9.051,5.611-11.607,9.619
					C160.335,253.098,159.958,254.119,160.394,254.851z"/>
				<path style="opacity:0.57;fill:#FFFFFF;" d="M150.813,257.636c1.483,0.656,3.469,0.531,4.955-0.291
					c0.741-0.288,1.41-0.75,1.962-1.407c0.147-0.175,0.363-0.686,0.029-0.831c-1.105-0.481-2.453-0.509-3.614-0.24
					c-1.272,0.295-2.326,0.92-3.297,1.778C150.633,256.834,150.445,257.473,150.813,257.636z"/>
			</g>
			<path style="fill:#716D69;" d="M120.313,156.757L120.313,156.757c3.622-0.878,7.304,1.368,8.183,4.99l17.578,72.524
				c0.878,3.622-1.367,7.305-4.99,8.183l0,0c-3.622,0.878-7.305-1.367-8.183-4.99l-17.578-72.524
				C114.445,161.317,116.691,157.635,120.313,156.757z"/>
			<path style="fill:#ACA49E;" d="M118.16,157.132L118.16,157.132c3.622-0.878,7.305,1.367,8.183,4.99l17.505,72.222
				c0.878,3.622-1.367,7.304-4.99,8.182l0,0c-3.622,0.878-7.305-1.367-8.183-4.99l-17.505-72.222
				C112.292,161.692,114.537,158.01,118.16,157.132z"/>
		</g>
		<g style="clip-path:url(#SVGID_00000114066298035936619740000013768221283857598338_);">
			<g>
				<g>
					<path style="fill:#D2DBE6;" d="M212.816,224.465l23.35,7.522c4.56,1.469,7.066,6.356,5.597,10.916l-2.998,9.307
						c-1.469,4.56-6.356,7.065-10.916,5.596l-23.35-7.522c-4.56-1.469-7.066-6.356-5.596-10.916l2.998-9.307
						C203.369,225.502,208.256,222.996,212.816,224.465z"/>
					<g>
						
							<rect x="220.657" y="102.429" transform="matrix(-0.9518 -0.3066 0.3066 -0.9518 420.6789 408.0054)" style="fill:#D51E20;" width="43.466" height="137.057"/>
						
							<rect x="221.134" y="99.393" transform="matrix(-0.9518 -0.3066 0.3066 -0.9518 403.2158 399.1896)" style="fill:#F68921;" width="23.663" height="137.057"/>
						
							<rect x="233.678" y="102.499" transform="matrix(-0.9518 -0.3066 0.3066 -0.9518 421.0805 408.2086)" style="fill:#008BCB;" width="17.857" height="137.057"/>
						
							<rect x="169.125" y="165.707" transform="matrix(0.3066 -0.9518 0.9518 0.3066 3.5096 343.6805)" style="fill:#003F65;" width="137.057" height="7.449"/>
					</g>
					<g>
						
							<rect x="200.189" y="228.829" transform="matrix(-0.9518 -0.3066 0.3066 -0.9518 362.7247 524.353)" style="fill:#ACA49E;" width="44.725" height="9.708"/>
						<path style="fill:#E4D7CD;" d="M202.159,228.234l39.461,12.713c1.454,0.468,2.253,2.027,1.784,3.48v0
							c-0.468,1.454-2.027,2.253-3.48,1.784l-39.461-12.713c-1.454-0.468-2.253-2.027-1.784-3.48l0,0
							C199.147,228.564,200.705,227.765,202.159,228.234z"/>
						<path style="fill:#E4D7CD;" d="M204.416,221.227l39.461,12.713c1.454,0.468,2.253,2.027,1.784,3.48l0,0
							c-0.468,1.454-2.027,2.253-3.48,1.784l-39.461-12.713c-1.454-0.468-2.253-2.027-1.784-3.48l0,0
							C201.404,221.558,202.962,220.759,204.416,221.227z"/>
					</g>
				</g>
				<path style="fill:#E9C290;" d="M284.089,112.394c0,0-0.449,4.731-5.602,4.701c-4.656-0.027-6.595-5.316-6.369-8.558
					c0,0-2.349,5.135-9.416,4.209c-7.067-0.926-7.581-9.685-7.581-9.685s-2.554,4.947-7.667,3.668
					c-5.112-1.279-4.916-6.617-4.738-7.664c0.179-1.047,29.575-28.281,29.575-28.281s1.133-1.231,2.245-0.873
					c1.223,0.394,1.593,0.828,1.981,2.234C278.957,80.984,284.089,112.394,284.089,112.394z"/>
				<path style="fill:#3A4C5D;" d="M265.638,80.775c1.235,0.97,2.58,1.806,3.992,2.495c1.411,0.688,2.908,1.233,4.452,1.528
					c1.393,0.266,2.864,0.321,4.243-0.053c0.292-0.079,0.574-0.183,0.848-0.303c-0.985-5.136-1.936-9.694-2.654-12.296
					c-0.388-1.406-0.758-1.84-1.981-2.234c-1.112-0.358-2.245,0.873-2.245,0.873s-3.813,3.533-8.701,8.102
					C264.212,79.579,264.912,80.204,265.638,80.775z"/>
				<path style="fill:#E9C290;" d="M247.455,106.73c5.112,1.279,7.667-3.668,7.667-3.668s1.15,6.125,4.998,8.812
					c0.897-2.303,12.744-38.312,14.126-42.017c-1.01-0.092-1.952,0.928-1.952,0.928s-29.397,27.234-29.575,28.281
					C242.539,100.113,242.343,105.451,247.455,106.73z"/>
				<path style="fill:#EE3D4E;" d="M239.429,228.427c0,0,2.719,4.262,5.387-3.005c2.668-7.266,31.359-91.244,26.252-88.6
					C265.961,139.466,240.284,219.674,239.429,228.427z"/>
				<path style="fill:#EE3D4E;" d="M272.199,127.79c-0.193,0.85-0.248,1.861,0.115,2.643c0.38,0.82,1.245,1.053,2.054,0.77
					c0.911-0.319,1.505-1.176,1.899-2.068c0.355-0.804,0.609-1.657,0.758-2.523c0.093-0.301,0.174-0.605,0.239-0.91
					c0.143-0.677,0.166-1.504-0.18-2.093c-0.423-0.72-1.258-0.846-1.994-0.541c-0.9,0.374-1.42,1.241-1.865,2.106
					C272.799,126.003,272.407,126.874,272.199,127.79z"/>
			</g>
			<path style="opacity:0.57;fill:#FFFFFF;" d="M215.188,250.687c-0.001,0.071,0.004,0.143,0.015,0.216
				c0.107,0.689,0.742,1.154,1.34,1.514c2.864,1.725,6.007,2.626,9.216,3.46c2.752,0.715,5.883,0.754,8.22-0.865
				c2.339-1.621,6.124-8.19,0.88-8.419c-1.024-0.045-2.059,0.005-3.083,0.036c-4.658,0.144-10.649,0.058-14.922,2.142
				C216.053,249.161,215.198,249.835,215.188,250.687z"/>
			<path style="opacity:0.57;fill:#FFFFFF;" d="M205.563,248.059c0.922,1.334,2.682,2.264,4.378,2.339
				c0.782,0.142,1.594,0.097,2.408-0.175c0.217-0.073,0.667-0.396,0.459-0.694c-0.691-0.987-1.826-1.715-2.957-2.092
				c-1.239-0.413-2.464-0.43-3.741-0.206C205.828,247.281,205.334,247.728,205.563,248.059z"/>
		</g>
		<g style="clip-path:url(#SVGID_00000114066298035936619740000013768221283857598338_);">
			<g>
				<g>
					<g>
						<path style="fill:#989E9C;" d="M163.659,241.23l12.809-75.435l0.085-0.117c3.44,0.414,7.979-0.438,11.335,0.424
							c-1.478,9.813-7.795,45.374-10.517,57.421c-3.193,14.133-9.812,21.954-12.388,20.891S163.659,241.23,163.659,241.23z"/>
					</g>
					<g>
						<path style="fill:#7A7F7E;" d="M168.506,231.137c1.063-5.854,2.173-11.7,3.259-17.549c1.092-5.879,2.225-11.749,3.413-17.61
							c0.594-2.931,1.198-5.859,1.797-8.789c0.586-2.87,1.039-5.764,1.471-8.661c0.635-4.26,1.223-8.541,2.124-12.756
							c-1.41,0.04-2.784,0.054-4.016-0.094l-0.085,0.117l-12.809,75.435c0,0-1.252,2.121,1.324,3.184
							c0.345,0.143,0.765,0.12,1.238-0.05C166.935,239.947,167.707,235.539,168.506,231.137z"/>
					</g>
				</g>
				<path style="fill:#EE2A25;" d="M198.905,122.038c0.207-0.774,0.387-1.546,0.541-2.317c0.207-0.889,0.323-1.384,0.323-1.384
					l-0.066-0.031c1.908-11.869-2.309-22.93-11.345-27.163c-11.639-5.452-26.862,2.487-34.004,17.732
					c-7.141,15.244-3.495,32.022,8.143,37.474c3.099,1.452,6.27,3.158,8.594,5.728c2.157,2.386,2.853,5.633,3.127,8.746
					c0.093,1.058-0.656,10.556,0.223,10.851c5.202,1.749,13.221,1.892,13.221,1.892
					C190.034,165.479,196.389,132.795,198.905,122.038z M161.873,112.842c5.192-11.084,15.693-17.121,23.455-13.485
					c7.762,3.636,9.846,15.569,4.654,26.652c-5.192,11.084-15.693,17.121-23.455,13.485
					C158.764,135.859,156.681,123.926,161.873,112.842z"/>
				<path style="opacity:0.43;fill:#AC121B;" d="M195.881,136.067c-1.754,1.902-3.462,3.846-5.141,5.814
					c-2.477,2.903-4.9,5.851-7.35,8.776c-2.4,2.866-4.872,5.67-7.222,8.577c-0.655,0.81-1.305,1.624-1.953,2.439
					c-0.077,2.608-0.535,9.745,0.225,10.001c5.202,1.749,13.221,1.892,13.221,1.892C189.335,167.861,192.99,149.92,195.881,136.067z
					"/>
				<path style="opacity:0.88;fill:#E96920;" d="M175.961,94.646c0.161-0.376,0.268-0.817,0.117-1.213
					c-0.127-0.333-0.42-0.558-0.733-0.705c-0.604-0.284-1.302-0.36-1.986-0.349c-0.412,0.162-0.821,0.33-1.225,0.509
					c-1.367,0.607-2.691,1.307-3.93,2.146c-1.397,0.946-2.69,2.039-3.896,3.218c-2.553,2.495-4.82,5.312-6.602,8.409
					c-1.449,2.518-2.637,5.2-3.479,7.982c-0.361,1.191-0.662,2.412-0.783,3.653c-0.095,0.974-0.095,2.059,0.325,2.968
					c0.193-0.171,0.376-0.353,0.54-0.552c0.989-1.195,1.546-2.719,2.065-4.16c0.54-1.5,1-3.047,1.717-4.475
					c0.829-1.651,1.889-3.217,3.014-4.68c1.178-1.531,2.485-2.96,3.886-4.29c0.679-0.645,1.378-1.27,2.098-1.87
					c0.556-0.463,1.168-0.856,1.787-1.228c1.39-0.836,2.844-1.566,4.204-2.452C174.216,96.818,175.41,95.931,175.961,94.646z"/>
				<path style="opacity:0.88;fill:#E96920;" d="M179.349,92.952c-0.117,0.106-0.205,0.233-0.253,0.383
					c-0.169,0.529,0.065,1.129,0.475,1.504c0.908,0.833,2.37,0.811,3.302,0.033c0.26-0.217,0.484-0.492,0.593-0.812
					c0.087-0.256,0.073-0.536-0.091-0.763C182.824,92.53,180.231,92.155,179.349,92.952z"/>
			</g>
			<g>
				<g>
					<g>
						<path style="fill:#989E9C;" d="M137.832,229.132l49.757-58.128l0.035-0.14c-2.52-2.378-4.771-6.411-7.581-8.437
							c-6.593,7.417-29.871,35.033-37.384,44.835c-8.814,11.5-10.587,21.591-8.121,22.89
							C137.004,231.452,137.832,229.132,137.832,229.132z"/>
					</g>
					<g>
						<path style="fill:#7A7F7E;" d="M142.485,218.947c3.817-4.564,7.597-9.159,11.397-13.738c3.818-4.602,7.603-9.23,11.345-13.894
							c1.871-2.332,3.734-4.671,5.602-7.006c1.83-2.287,3.763-4.488,5.712-6.674c2.866-3.215,5.779-6.407,8.44-9.797
							c0.872,1.108,1.74,2.174,2.643,3.026l-0.035,0.14l-49.757,58.128c0,0-0.828,2.32-3.294,1.021
							c-0.33-0.174-0.582-0.511-0.754-0.983C136.722,225.794,139.614,222.379,142.485,218.947z"/>
					</g>
				</g>
				<path style="fill:#EE2A25;" d="M174.454,167.38c0,0,5.243,6.069,9.916,8.946c0.789,0.486,7.607-6.169,8.479-6.775
					c2.567-1.783,5.507-3.326,8.721-3.196c3.462,0.14,6.803,1.485,9.902,2.936c11.638,5.451,26.862-2.487,34.003-17.732
					c7.141-15.245,3.495-32.023-8.143-37.475c-9.036-4.233-20.233-0.392-28.131,8.671l-0.066-0.031c0,0-0.307,0.405-0.857,1.134
					c-0.493,0.612-0.971,1.245-1.433,1.899C200.191,134.576,179.149,160.38,174.454,167.38z M214.159,161.807
					c-7.762-3.636-9.846-15.569-4.654-26.652c5.192-11.084,15.693-17.121,23.455-13.485c7.762,3.636,9.845,15.568,4.654,26.652
					C232.422,159.406,221.921,165.443,214.159,161.807z"/>
				<path style="opacity:0.54;fill:#E96920;" d="M209.506,135.155c4.378-9.345,12.53-15.102,19.632-14.499
					c-1.545-0.323-3.14-0.427-4.705-0.343c-2.834,0.152-5.546,1.107-7.92,2.648c-2.395,1.555-4.42,3.632-6.102,5.928
					c-1.487,2.029-2.775,4.255-3.686,6.604c-0.812,2.093-1.347,4.294-1.626,6.521c-0.283,2.256-0.299,4.556,0.035,6.807
					c0.312,2.104,0.943,4.19,2.032,6.027c0.593,0.999,1.326,1.905,2.177,2.683C205.81,152.111,205.644,143.4,209.506,135.155z"/>
				<path style="opacity:0.43;fill:#AC121B;" d="M237.98,161.193c-4.119,3.718-9.248,6.663-14.927,6.734
					c-5.711,0.071-11.015-2.416-16.302-4.244c-1.315-0.455-2.637-0.923-4.02-1.122c-1.23-0.177-2.482-0.154-3.703,0.075
					c-2.357,0.443-4.49,1.642-6.388,3.069c-1.045,0.786-2.032,1.647-2.987,2.539c-1.179,1.102-2.362,2.198-3.554,3.286
					c-1.232,1.124-2.469,2.27-3.625,3.487c0.633,0.478,1.27,0.922,1.896,1.308c0.789,0.486,7.607-6.169,8.479-6.775
					c2.567-1.783,5.507-3.326,8.721-3.196c3.462,0.14,6.803,1.485,9.902,2.936c10.974,5.14,25.134-1.626,32.702-15.195
					C242.394,156.7,240.302,159.097,237.98,161.193z"/>
				<path style="opacity:0.88;fill:#E96920;" d="M242.576,125.851c0.186-0.364,0.456-0.729,0.857-0.866
					c0.337-0.116,0.697-0.034,1.011,0.112c0.604,0.282,1.11,0.77,1.539,1.303c0.139,0.42,0.272,0.842,0.393,1.267
					c0.409,1.439,0.718,2.904,0.866,4.393c0.167,1.679,0.156,3.372,0.022,5.053c-0.283,3.559-0.996,7.104-2.235,10.455
					c-1.007,2.725-2.308,5.354-3.906,7.783c-0.684,1.04-1.43,2.052-2.305,2.94c-0.688,0.697-1.521,1.391-2.488,1.65
					c0.007-0.258,0.031-0.515,0.078-0.769c0.285-1.524,1.099-2.928,1.874-4.249c0.807-1.375,1.701-2.718,2.339-4.184
					c0.738-1.694,1.262-3.51,1.666-5.311c0.423-1.885,0.684-3.805,0.809-5.732c0.061-0.934,0.094-1.872,0.094-2.809
					c0-0.723-0.09-1.445-0.201-2.159c-0.247-1.603-0.617-3.187-0.807-4.799C242.025,128.582,241.942,127.097,242.576,125.851z"/>
				<path style="opacity:0.88;fill:#E96920;" d="M241.709,122.164c-0.006,0.158-0.048,0.306-0.132,0.439
					c-0.298,0.469-0.909,0.672-1.459,0.598c-1.222-0.164-2.141-1.302-2.139-2.516c0.001-0.338,0.068-0.687,0.244-0.976
					c0.141-0.23,0.365-0.399,0.644-0.419C239.809,119.224,241.757,120.976,241.709,122.164z"/>
			</g>
			<path style="fill:#5E6463;" d="M188.116,165.405c-0.876,1.87-3.102,2.676-4.972,1.8c-1.87-0.876-2.676-3.102-1.8-4.972
				c0.876-1.87,3.102-2.676,4.972-1.8C188.186,161.309,188.992,163.535,188.116,165.405z"/>
			<path style="fill:#989E9C;" d="M186.927,164.417c-0.58,1.239-2.055,1.773-3.294,1.192c-1.239-0.58-1.773-2.055-1.192-3.294
				c0.58-1.239,2.055-1.773,3.294-1.192C186.973,161.704,187.507,163.179,186.927,164.417z"/>
		</g>
		<g style="clip-path:url(#SVGID_00000114066298035936619740000013768221283857598338_);">
			
				<rect x="33.327" y="118.084" transform="matrix(0.1202 -0.9928 0.9928 0.1202 -33.9926 201.7217)" style="fill:#CE6F1A;" width="126.969" height="3.91"/>
			<g>
				<path style="fill:#FBB216;" d="M89.741,62.507l-11.59,25.184c-2.943,7.635-11.054,6.653-11.054,6.653l-6.33-0.766
					c-4.606-5.193-11.05-8.792-18.483-9.692c-16.149-1.955-30.825,9.551-32.78,25.701c-1.955,16.149,9.551,30.825,25.701,32.78
					c7.679,0.93,15.022-1.189,20.825-5.399l5.822,0.705c0,0,8.111,0.982,9.147,9.098l5.245,27.223c0,0,0.493,7.469,7.106,9.287
					l5.68,0.542l15.473-127.81l-5.645-0.829C92.003,55.371,89.741,62.507,89.741,62.507z M23.486,111.626
					c1.007-8.318,8.567-14.245,16.885-13.238c8.318,1.007,14.245,8.567,13.238,16.885c-1.007,8.318-8.567,14.245-16.885,13.238
					C28.406,127.504,22.479,119.945,23.486,111.626z"/>
				<path style="fill:#CE6F1A;" d="M101.329,61.793L87.296,177.712c-0.146,1.204-1.24,2.062-2.444,1.916
					c-1.204-0.146-2.062-1.24-1.916-2.444L96.97,61.265c0.146-1.204,1.24-2.062,2.444-1.916
					C100.617,59.495,101.475,60.59,101.329,61.793z"/>
				<path style="fill:#CE6F1A;" d="M71.345,140.739c0,0,14.353-22.549,4.521-45.945c0,0,9.544,4.278,8.718,22.567
					C83.758,135.65,71.345,140.739,71.345,140.739z"/>
				<path style="fill:#CE6F1A;" d="M17.004,110.494c-1.457,12.036,7.119,22.975,19.155,24.432
					c12.036,1.457,22.975-7.119,24.432-19.155c1.457-12.036-7.119-22.975-19.155-24.432C29.399,89.882,18.461,98.458,17.004,110.494
					z M58.091,115.469c-1.297,10.712-11.032,18.345-21.744,17.048c-10.712-1.297-18.345-11.032-17.048-21.744
					c1.297-10.712,11.032-18.345,21.744-17.048C51.755,95.021,59.388,104.756,58.091,115.469z"/>
				<path style="fill:#CE6F1A;" d="M10.396,109.695c-1.892,15.627,9.243,29.829,24.87,31.721
					c15.627,1.892,29.829-9.243,31.721-24.87c1.892-15.627-9.243-29.83-24.87-31.721C26.49,82.932,12.288,94.067,10.396,109.695z
					 M65.364,116.349c-1.796,14.837-15.28,25.408-30.116,23.612s-25.408-15.28-23.612-30.116
					c1.796-14.837,15.28-25.408,30.116-23.612C56.588,88.029,67.16,101.512,65.364,116.349z"/>
				<path style="fill:#FBB216;" d="M81.112,180.433c0,0-3.72-0.797-4.322-7.289c-0.602-6.492-4.75-29.546-4.75-29.546
					s7.118-4.343,9.573-10.291c0,0-1.138,9.404-4.355,11.616c-3.217,2.213,1.864,29.023,4.579,29.525L81.112,180.433z"/>
				<path style="fill:#FBB216;" d="M96.014,57.333c0,0-3.803-0.113-5.936,6.047c-2.134,6.16-11.663,27.559-11.663,27.559
					s5.876,5.916,6.841,12.278c0,0,1.138-9.404-1.458-12.32c-2.596-2.917,8.736-27.74,11.492-27.58L96.014,57.333z"/>
				<path style="fill:#FBB216;" d="M13.01,107.091c0,0-3.615,18.038,11.226,27.641c14.841,9.603,27.911,0.517,27.911,0.517
					s-14.345,6.72-25.766-1.038c-11.421-7.758-11.746-21.198-10.523-28.076C17.081,99.257,14.447,101.671,13.01,107.091z"/>
				<path style="fill:#FBB216;" d="M58.861,135.671c0,0,9.161-9.039,9.576-17.837c0,0,0.832,3.874-0.348,9.326
					c-1.181,5.452,4.019,7.642,4.019,7.642l-2.354,4.399C69.753,139.202,64.55,135.97,58.861,135.671z"/>
			</g>
		</g>
	</g>
</g>
</svg>
